SplineFontDB: 3.0
FontName: Coustard-Black
FullName: Coustard Black
FamilyName: Coustard
Weight: Black
Copyright: Copyright (c) 2011 by vernon adams. All rights reserved. with\nReserved Font Names "Coustard" and "Coustard Black". This\nFont Software is licensed under the SIL Open Font License, Version\n1.1. This license is available with a FAQ at:\nhttp://scripts.sil.org/OFL
Version: 001
ItalicAngle: 0
UnderlinePosition: 0
UnderlineWidth: 0
Ascent: 1638
Descent: 410
sfntRevision: 0x00010000
LayerCount: 2
Layer: 0 0 "Back"  1
Layer: 1 0 "Fore"  0
NeedsXUIDChange: 1
XUID: [1021 14 500265001 14228317]
FSType: 0
OS2Version: 3
OS2_WeightWidthSlopeOnly: 0
OS2_UseTypoMetrics: 1
CreationTime: 1309244640
ModificationTime: 1312536544
PfmFamily: 17
TTFWeight: 900
TTFWidth: 5
LineGap: 0
VLineGap: 0
Panose: 2 11 8 3 5 3 2 2 2 4
OS2TypoAscent: -9
OS2TypoAOffset: 1
OS2TypoDescent: -97
OS2TypoDOffset: 1
OS2TypoLinegap: 0
OS2WinAscent: -405
OS2WinAOffset: 1
OS2WinDescent: -235
OS2WinDOffset: 1
HheadAscent: -405
HheadAOffset: 1
HheadDescent: 235
HheadDOffset: 1
OS2SubXSize: 1331
OS2SubYSize: 1228
OS2SubXOff: 0
OS2SubYOff: 153
OS2SupXSize: 1331
OS2SupYSize: 1228
OS2SupXOff: 0
OS2SupYOff: 716
OS2StrikeYSize: 0
OS2StrikeYPos: 674
OS2Vendor: 'newt'
OS2CodePages: 20000093.00000000
OS2UnicodeRanges: 00000007.00000000.00000000.00000000
Lookup: 4 0 1 "'liga' Standard Ligatures in Latin lookup 0"  {"'liga' Standard Ligatures in Latin lookup 0-1"  } ['liga' ('DFLT' <'dflt' > 'latn' <'dflt' > ) ]
Lookup: 258 0 0 "'kern' Horizontal Kerning in Latin lookup 0"  {"'kern' Horizontal Kerning in Latin lookup 0-1" [307,30,0] "'kern' Horizontal Kerning in Latin lookup 0-2" [307,30,0] } ['kern' ('DFLT' <'dflt' > 'latn' <'dflt' > ) ]
MarkAttachClasses: 1
DEI: 91125
KernClass2: 3 2 "'kern' Horizontal Kerning in Latin lookup 0-1" 
 5 V W Y
 3 F T

StartChar: exclam
Encoding: 1 33 1
Width: 670
Flags: HMW
HStem: 38 441 396 20G<251.5 427.5>
VStem: 110 543
LayerCount: 2
Fore
SplineSet
349 -29 m 0xa0
 270 -29 87 -1 87 140 c 0
 87 259 173 316 342 316 c 0
 551 316 588 211 588 137 c 0
 588 5 433 -29 349 -29 c 0xa0
340 416 m 0x60
 163 416 214 432 192 592 c 0
 152 872 51 1391 51 1438 c 0
 51 1495 80 1516 141 1516 c 2
 537 1516 l 2
 598 1516 627 1495 627 1438 c 0
 627 1391 525 872 486 592 c 0
 463 432 515 416 340 416 c 0x60
EndSplineSet
Validated: 1
EndChar

StartChar: quotedbl
Encoding: 2 34 2
Width: 1161
Flags: HMW
HStem: 1545 20G
VStem: 101 477 614 479
LayerCount: 2
Fore
SplineSet
113 978 m 0
 113 1022 228 1085 228 1145 c 0
 228 1181 63 1167 63 1347 c 0
 63 1483 163 1575 309 1575 c 0
 447 1575 558 1470 558 1337 c 0
 558 1176 380 923 195 923 c 0
 142 923 113 953 113 978 c 0
662 978 m 0
 662 1022 777 1085 777 1145 c 0
 777 1181 612 1167 612 1347 c 0
 612 1483 712 1575 858 1575 c 0
 996 1575 1107 1470 1107 1337 c 0
 1107 1176 929 923 744 923 c 0
 691 923 662 953 662 978 c 0
EndSplineSet
Validated: 1
EndChar

StartChar: numbersign
Encoding: 3 35 3
Width: 1112
Flags: HMW
HStem: 597 286 793 90 1176 67
LayerCount: 2
Fore
SplineSet
535 536 m 0x20
 544 586 563 657 586 735 c 1
 386 735 l 1
 365 663 346 594 329 533 c 0
 312 473 302 436 220 436 c 0
 195 436 125 451 125 518 c 0
 125 562 152 645 176 731 c 1
 157 731 138 730 120 730 c 2
 104 730 l 2
 65 730 40 735 40 778 c 0
 40 813 56 874 124 893 c 1
 148 897 185 900 225 901 c 1
 244 965 264 1028 283 1091 c 1
 259 1091 234 1090 212 1090 c 2
 196 1090 l 2
 157 1090 132 1095 132 1138 c 0
 132 1173 148 1234 216 1253 c 1
 246 1258 288 1259 335 1262 c 1
 357 1335 376 1399 387 1444 c 0
 397 1483 429 1496 486 1496 c 0
 519 1496 587 1494 587 1434 c 0
 587 1402 557 1329 538 1265 c 1
 744 1265 l 1
 766 1337 784 1400 795 1444 c 0
 805 1483 837 1496 894 1496 c 0
 927 1496 995 1494 995 1434 c 0
 995 1417 987 1397 979 1371 c 2
 946 1268 l 1
 1046 1268 l 2
 1073 1268 1083 1253 1083 1223 c 2
 1083 1217 l 2
 1083 1191 1076 1100 987 1100 c 2
 897 1100 l 1
 842 908 l 1
 954 908 l 2
 981 908 991 893 991 863 c 2
 991 857 l 2
 991 831 984 740 895 740 c 2
 795 740 l 1
 737 533 l 2
 720 473 710 436 628 436 c 0
 603 436 533 451 533 518 c 0
 533 524 533 529 535 536 c 0x20
488 1095 m 1
 434 905 l 1
 634 905 l 1
 693 1095 l 1
 488 1095 l 1
EndSplineSet
Validated: 8388609
EndChar

StartChar: dollar
Encoding: 4 36 4
Width: 1145
Flags: HMW
HStem: -27 266<477 767 676.5 724> 192 47<651 715> 1250 64<633 749 633 633> 1250 266<658.5 706 459 749 459 633>
VStem: 420 116<1249 1441> 438 116<48 240 238 240> 633 116<1250 1250> 651 116<239 239>
LayerCount: 2
Fore
SplineSet
438 238 m 1x65
 554 240 l 1
 546 97 564 -27 490 -27 c 0
 464 -27 438 -3 438 48 c 2
 438 238 l 1x65
651 239 m 1
 767 239 l 1
 767 48 l 2
 767 -1 738 -27 710 -27 c 0
 643 -27 659 92 651 239 c 1
536 1249 m 1
 420 1251 l 1
 420 1441 l 2
 420 1492 446 1516 472 1516 c 0
 546 1516 528 1391 536 1249 c 1
749 1250 m 1
 633 1250 l 1
 641 1396 625 1516 692 1516 c 0
 720 1516 749 1490 749 1441 c 2
 749 1250 l 1
1108 544 m 0
 1108 294 875 192 555 192 c 0x56
 301 192 44 306 44 488 c 0
 44 512 50 572 177 572 c 0x6a
 227 572 258 573 275 573 c 0
 368 573 385 535 406 470 c 1x59
 416 424 461 403 509 403 c 0
 566 403 627 427 627 468 c 0x69
 627 564 375 618 295 656 c 0
 142 729 43 829 43 987 c 0xa5
 43 1209 327 1314 595 1314 c 0
 917 1314 1061 1221 1061 1051 c 0
 1061 1027 1051 969 928 969 c 0x65
 883 969 855 968 840 968 c 0
 747 968 730 1022 708 1084 c 0xa5
 699 1110 652 1124 601 1124 c 0
 553 1124 504 1105 504 1065 c 0
 504 1024 570 973 673 945 c 0
 865 893 1108 817 1108 544 c 0
EndSplineSet
Validated: 5
EndChar

StartChar: percent
Encoding: 5 37 5
Width: 1533
Flags: HMW
HStem: 26 21G<1035.5 1240.5>
VStem: 299 151 1060 150
LayerCount: 2
Fore
SplineSet
40 1103 m 0
 40 1330 206 1492 413 1492 c 0
 603 1492 734 1361 734 1162 c 0
 734 940 587 768 370 768 c 0
 175 768 40 908 40 1103 c 0
375 1380 m 0
 320 1380 297 1255 297 1140 c 0
 297 1001 331 889 374 889 c 0
 426 889 450 1006 450 1122 c 0
 450 1268 420 1380 375 1380 c 0
801 358 m 0
 801 586 963 750 1173 750 c 0
 1363 750 1494 618 1494 420 c 0
 1494 202 1347 26 1134 26 c 0
 937 26 801 162 801 358 c 0
1135 638 m 0
 1080 638 1057 510 1057 395 c 0
 1057 258 1092 147 1135 147 c 0
 1188 147 1210 259 1210 376 c 0
 1210 524 1180 638 1135 638 c 0
888 1187 m 0
 952 1305 991 1390 1001 1439 c 0
 1010 1485 1068 1502 1125 1502 c 0
 1193 1502 1303 1478 1303 1434 c 0
 1303 1422 1299 1408 1289 1395 c 0
 1040 1056 739 616 586 210 c 0
 576 184 567 159 560 135 c 0
 541 68 478 48 417 48 c 0
 333 48 232 86 232 111 c 0
 232 112 233 114 234 116 c 0
 324 226 689 822 888 1187 c 0
EndSplineSet
Validated: 1
EndChar

StartChar: ampersand
Encoding: 6 38 6
Width: 1727
Flags: HMW
HStem: -27 243 1112 403 1272 244<727.5 797>
LayerCount: 2
Fore
SplineSet
1503 543 m 1xc0
 1459 443 1413 358 1362 285 c 1
 1364 282 1367 280 1370 278 c 1
 1400 242 1461 233 1513 233 c 0
 1597 233 1674 257 1679 260 c 1
 1683 261 1690 199 1690 142 c 0
 1690 75 1684 13 1670 10 c 0
 1570 -16 1483 -26 1403 -26 c 0
 1253 -26 1191 -5 1115 63 c 1
 998 2 854 -27 667 -27 c 0
 323 -27 35 122 35 399 c 0
 35 626 184 742 358 823 c 1
 272 940 214 1053 214 1150 c 0
 214 1160 215 1170 216 1180 c 0
 258 1482 648 1516 736 1516 c 0xa0
 1000 1516 1251 1399 1251 1170 c 0
 1251 980 1086 843 914 732 c 1
 1005 633 1103 534 1187 452 c 1
 1215 482 1241 514 1252 554 c 1
 1197 566 1150 557 1150 672 c 0
 1150 714 1154 773 1158 809 c 1
 1170 814 l 1
 1271 816 1481 821 1636 821 c 0
 1662 821 1675 745 1675 691 c 0
 1675 647 1669 607 1663 584 c 1
 1605 574 1552 560 1503 543 c 1xc0
632 1150 m 0
 632 1108 664 1045 716 971 c 1
 816 1020 887 1079 887 1173 c 0
 887 1244 831 1272 763 1272 c 0
 692 1272 632 1221 632 1150 c 0
756 264 m 0
 796 264 840 269 885 280 c 1
 804 353 704 443 607 540 c 1
 560 504 530 469 530 435 c 0
 530 310 629 264 756 264 c 0
EndSplineSet
Validated: 33
EndChar

StartChar: quoteright
Encoding: 309 8217 7
Width: 637
Flags: HMW
HStem: 1545 20G
VStem: 110 477 623 479
LayerCount: 2
Fore
SplineSet
122 978 m 0
 122 1022 237 1085 237 1145 c 0
 237 1181 72 1167 72 1347 c 0
 72 1483 172 1575 318 1575 c 0
 456 1575 567 1470 567 1337 c 0
 567 1176 389 923 204 923 c 0
 151 923 122 953 122 978 c 0
EndSplineSet
Validated: 1
EndChar

StartChar: parenleft
Encoding: 8 40 8
Width: 710
Flags: HMW
VStem: 58 377
LayerCount: 2
Fore
SplineSet
435 771 m 0
 435 450 513 248 669 88 c 1
 670 83 670 78 670 73 c 0
 670 -9 568 -100 470 -138 c 1
 203 5 54 387 54 765 c 0
 54 1143 203 1525 470 1668 c 1
 568 1630 670 1539 670 1457 c 0
 670 1452 670 1447 669 1442 c 1
 515 1284 435 1085 435 771 c 0
EndSplineSet
Validated: 1
EndChar

StartChar: parenright
Encoding: 9 41 9
Width: 719
Flags: HMW
VStem: 282 377
LayerCount: 2
Fore
SplineSet
282 771 m 0
 282 1085 202 1284 48 1442 c 1
 47 1447 47 1452 47 1457 c 0
 47 1539 149 1630 247 1668 c 1
 514 1525 663 1143 663 765 c 0
 663 387 514 5 247 -138 c 1
 149 -100 47 -9 47 73 c 0
 47 79 47 82 48 88 c 1
 204 248 282 450 282 771 c 0
EndSplineSet
Validated: 1
EndChar

StartChar: asterisk
Encoding: 10 42 10
Width: 1178
Flags: HMW
HStem: 1060 20G<160.5 213.5 955 1009.5>
VStem: 36 1097<861.5 946.5>
LayerCount: 2
Fore
SplineSet
267 1063 m 2
 459 949 l 1
 404 1164 l 2
 402 1172 402 1180 402 1188 c 0
 402 1275 493 1345 585 1345 c 0
 677 1345 768 1275 768 1188 c 0
 768 1180 767 1172 766 1164 c 1
 711 949 l 1
 903 1063 l 1
 921 1072 944 1080 966 1080 c 0
 1053 1080 1133 995 1133 898 c 0
 1133 825 1089 751 1012 741 c 1
 780 722 l 1
 966 584 l 1
 983 567 l 1
 1004 541 1014 509 1014 476 c 0
 1014 374 926 283 817 283 c 0
 768 283 712 303 690 350 c 2
 584 576 l 1
 478 350 l 2
 457 306 398 283 351 283 c 0
 243 283 154 372 154 476 c 0
 154 509 164 541 185 567 c 1
 202 584 l 1
 388 722 l 1
 158 741 l 1
 81 752 36 825 36 898 c 0
 36 995 117 1080 204 1080 c 0
 223 1080 249 1073 267 1063 c 2
EndSplineSet
Validated: 1
EndChar

StartChar: plus
Encoding: 11 43 11
Width: 942
Flags: HMW
HStem: 0 59 828 615 828 647
VStem: 764 647
LayerCount: 2
Fore
SplineSet
721 831 m 0x90
 775 831 851 833 864 834 c 1
 890 824 900 797 900 749 c 0
 900 676 877 644 845 644 c 1
 832 649 578 650 578 650 c 1
 565 650 l 1
 566 576 566 524 566 416 c 0
 566 389 566 379 569 347 c 1
 558 321 531 310 484 310 c 0
 411 310 379 333 379 365 c 1
 384 379 385 632 385 632 c 1
 385 648 l 1
 367 648 l 1
 367 648 113 647 100 642 c 1
 68 642 45 674 45 747 c 0
 45 795 55 822 81 832 c 1
 94 831 170 829 224 829 c 2
 383 829 l 1
 383 843 l 1
 383 843 382 1097 377 1110 c 1
 377 1142 409 1166 482 1166 c 0
 529 1166 556 1155 567 1129 c 1
 566 1116 564 1040 564 986 c 2
 564 830 l 1
 648 831 714 831 721 831 c 0x90
EndSplineSet
Validated: 8388609
EndChar

StartChar: comma
Encoding: 12 44 12
Width: 611
Flags: HMW
HStem: 422 20G<231 373>
VStem: 46 495
LayerCount: 2
Fore
SplineSet
108 -155 m 0
 108 -111 223 -48 223 12 c 0
 223 48 58 34 58 214 c 0
 58 350 158 442 304 442 c 0
 442 442 553 337 553 204 c 0
 553 43 375 -210 190 -210 c 0
 137 -210 108 -180 108 -155 c 0
EndSplineSet
Validated: 1
EndChar

StartChar: hyphen
Encoding: 13 45 13
Width: 963
Flags: HMW
HStem: 699 21G 701 345
LayerCount: 2
Fore
SplineSet
136 567 m 1x00
 77 567 68 624 68 679 c 0
 68 836 128 949 284 949 c 0
 373 949 474 928 585 928 c 0
 671 928 772 946 821 946 c 0
 868 946 889 937 889 901 c 0
 889 745 867 571 692 571 c 0
 592 571 474 585 373 585 c 0
 292 585 211 582 136 567 c 1x00
EndSplineSet
Validated: 8388609
EndChar

StartChar: period
Encoding: 14 46 14
Width: 637
Flags: HMW
HStem: -26 470<232.5 413.5>
VStem: 62 514<151 267.5 151 269.5>
LayerCount: 2
Fore
SplineSet
62 209 m 0
 62 330 142 444 323 444 c 0
 504 444 576 326 576 209 c 0
 576 93 504 -26 323 -26 c 0
 142 -26 62 89 62 209 c 0
EndSplineSet
Validated: 1
EndChar

StartChar: slash
Encoding: 15 47 15
Width: 1011
Flags: HMW
HStem: 3 1584<215 846.5>
VStem: 36 945
LayerCount: 2
Fore
SplineSet
43 153 m 0
 169 460 513 1233 622 1510 c 0
 644 1567 694 1587 768 1587 c 0
 925 1587 981 1559 981 1506 c 0
 981 1478 962 1445 944 1400 c 0
 797 1025 606 559 430 139 c 0
 395 57 373 3 254 3 c 0
 176 3 36 26 36 117 c 0
 36 128 38 140 43 153 c 0
EndSplineSet
Validated: 1
EndChar

StartChar: zero
Encoding: 16 48 16
Width: 1827
Flags: HMW
HStem: -29 228<843.5 988 843.5 1163.5> 1283 232<842 992.5>
LayerCount: 2
Fore
SplineSet
927 -29 m 0
 477 -29 64 252 64 748 c 0
 64 1228 430 1515 934 1515 c 0
 1440 1515 1776 1190 1776 758 c 0
 1776 302 1400 -29 927 -29 c 0
914 199 m 0
 1062 199 1084 533 1084 750 c 0
 1084 958 1066 1283 919 1283 c 0
 765 1283 747 981 747 751 c 0
 747 523 773 199 914 199 c 0
EndSplineSet
Validated: 1
EndChar

StartChar: one
Encoding: 17 49 17
Width: 994
Flags: HMW
HStem: 45 21G
VStem: 221 579
LayerCount: 2
Fore
SplineSet
236 555 m 2
 236 1089 l 2
 236 1206 28 1106 28 1236 c 0
 28 1312 69 1471 116 1502 c 1
 258 1493 368 1489 448 1489 c 0
 584 1489 633 1508 732 1516 c 1
 772 1516 801 1499 801 1442 c 2
 801 575 l 2
 801 459 806 303 885 294 c 1
 920 288 961 281 961 227 c 0
 961 145 938 1 883 -27 c 1
 840 -19 714 0 564 0 c 0
 369 0 207 -19 155 -27 c 1
 100 1 77 145 77 227 c 0
 77 281 118 288 153 294 c 1
 227 302 236 432 236 555 c 2
EndSplineSet
Validated: 1
EndChar

StartChar: two
Encoding: 18 50 18
Width: 1496
Flags: HMW
HStem: 0 1155 609 546 1095 28
LayerCount: 2
Fore
SplineSet
181 1456 m 1x20
 307 1490 548 1514 802 1514 c 0
 1081 1514 1406 1431 1406 1170 c 0
 1406 804 1008 591 786 395 c 1
 834 395 l 2
 928 395 1111 399 1193 575 c 1
 1257 603 1293 609 1327 609 c 0x40
 1364 609 1464 588 1464 513 c 0
 1464 404 1353 132 1313 59 c 1
 1241 7 859 -2 530 -2 c 0
 382 -2 246 0 159 0 c 1
 116 15 54 101 49 173 c 1
 54 247 263 457 405 608 c 0
 558 770 728 991 728 1155 c 0x80
 728 1254 693 1291 642 1291 c 0
 510 1291 266 1014 256 994 c 1
 184 994 37 1045 37 1095 c 0
 37 1265 116 1413 181 1456 c 1x20
EndSplineSet
Validated: 1
EndChar

StartChar: three
Encoding: 19 51 19
Width: 1552
Flags: HMW
HStem: 691 259 1123 197 1282 38
LayerCount: 2
Fore
SplineSet
262 12 m 1xa0
 176 55 45 201 45 304 c 0
 45 378 168 460 249 460 c 0
 275 460 379 314 622 314 c 0
 739 314 880 344 880 497 c 0
 880 608 797 685 709 691 c 0
 679 693 648 695 616 695 c 0
 555 695 493 690 440 689 c 1
 411 692 394 719 394 820 c 0
 394 886 411 933 449 950 c 1
 468 948 487 947 506 947 c 0
 743 948 831 1023 831 1123 c 0xc0
 831 1216 765 1285 684 1285 c 0
 464 1285 395 1024 323 1024 c 0
 195 1024 104 1092 104 1125 c 0
 104 1321 240 1490 366 1503 c 0
 472 1513 706 1514 820 1514 c 0
 1191 1514 1330 1348 1330 1181 c 0
 1330 1057 1242 932 1110 895 c 1
 1336 877 1508 671 1508 494 c 0
 1508 141 1173 -27 763 -27 c 0
 598 -27 429 -12 262 12 c 1xa0
EndSplineSet
Validated: 1
EndChar

StartChar: four
Encoding: 20 52 20
Width: 1718
Flags: HMW
HStem: 36 21G 483 357
VStem: 701 600
LayerCount: 2
Fore
SplineSet
721 835 m 1
 723 885 723 971 723 1055 c 2
 723 1072 l 2
 723 1135 723 1197 725 1233 c 1
 708 1223 674 1176 627 1122 c 0
 551 1035 503 959 463 884 c 0
 456 871 451 860 451 854 c 0
 451 833 516 832 605 832 c 0
 642 832 685 832 721 835 c 1
734 495 m 1
 674 495 555 493 496 493 c 2
 468 493 l 2
 337 493 196 493 133 529 c 1
 71 589 45 740 45 765 c 0
 45 780 49 795 57 812 c 1
 197 1058 412 1242 609 1445 c 1
 663 1489 766 1488 876 1488 c 2
 1198 1489 l 2
 1269 1489 1319 1470 1319 1416 c 1
 1309 1273 1300 1116 1300 951 c 2
 1300 859 l 2
 1300 848 1302 839 1318 839 c 2
 1383 839 l 2
 1452 839 1529 849 1591 849 c 0
 1651 849 1669 814 1675 753 c 1
 1674 666 1661 591 1590 542 c 1
 1493 510 1444 509 1299 505 c 1
 1299 417 1304 303 1383 294 c 1
 1418 288 1459 281 1459 227 c 0
 1459 145 1436 1 1381 -27 c 1
 1338 -19 1212 0 1062 0 c 0
 867 0 705 -19 653 -27 c 1
 598 1 575 145 575 227 c 0
 575 281 616 288 651 294 c 1
 725 302 734 402 734 495 c 1
EndSplineSet
Validated: 33
EndChar

StartChar: five
Encoding: 21 53 21
Width: 1583
Flags: HMW
HStem: -26 340<602 1042> 660 311<528.5 1130> 1210 279<650.5 1098.5> 1483 20G 1496 20G
VStem: 41 1495<309 345>
LayerCount: 2
Fore
SplineSet
327 3 m 1xe4
 244 42 41 180 41 304 c 0
 41 386 171 460 247 460 c 1
 355 384 365 338 602 314 c 1
 774 314 915 353 915 499 c 0
 915 633 785 660 585 660 c 0
 472 660 383 609 275 609 c 0
 168 609 150 632 148 657 c 1
 148 793 158 957 158 1094 c 0
 158 1139 157 1180 157 1217 c 0xd4
 157 1368 162 1478 257 1503 c 1
 403 1494 574 1489 727 1489 c 0xe4
 903 1489 1246 1494 1342 1516 c 1xcc
 1365 1482 1448 1239 1448 1107 c 0
 1448 1032 1346 1003 1262 1003 c 0
 1250 1003 1182 1210 1015 1210 c 0
 893 1210 662 1207 590 1201 c 1
 579 1167 568 1095 568 1020 c 0
 568 957 570 922 574 914 c 1
 697 964 819 971 935 971 c 0
 1325 971 1536 759 1536 475 c 0
 1536 143 1244 -26 840 -26 c 0
 599 -26 517 -23 327 3 c 1xe4
EndSplineSet
Validated: 1
EndChar

StartChar: six
Encoding: 22 54 22
Width: 1739
Flags: HMW
HStem: -27 202<897 994.5 869.5 1106.5> 692 235<833.5 1244.5> 1303 213<899 1117>
VStem: 74 1619<469.5 662 315.5 903.5>
LayerCount: 2
Fore
SplineSet
986 1303 m 0
 812 1303 757 1070 757 862 c 2
 757 835 l 1
 864 900 992 927 1116 927 c 0
 1373 927 1693 812 1693 512 c 0
 1693 119 1316 -27 897 -27 c 1
 334 -19 74 272 74 667 c 0
 74 1140 378 1516 986 1516 c 0
 1264 1516 1361 1497 1392 1486 c 1
 1481 1443 1586 1295 1586 1125 c 0
 1586 1075 1440 1024 1367 1024 c 0
 1307 1024 1248 1303 986 1303 c 0
918 692 m 0
 749 692 748 552 748 421 c 0
 748 239 829 175 910 175 c 0
 1079 175 1093 344 1093 466 c 0
 1093 623 1014 692 918 692 c 0
EndSplineSet
Validated: 1
EndChar

StartChar: seven
Encoding: 23 55 23
Width: 1517
Flags: HMW
HStem: -27 21G<543.5 767.5> -27 278 1186 302<446.5 846 615 846 615 887> 1496 20G<1435 1443>
VStem: 27 1453<1046 1338>
LayerCount: 2
Fore
SplineSet
1076 173 m 2xa8
 1076 -24 862 -27 673 -27 c 0
 414 -27 310 56 310 187 c 0
 310 564 693 1029 887 1186 c 1xa8
 543 1186 l 2
 350 1186 242 983 207 983 c 0
 138 983 27 1006 27 1086 c 0xb8
 27 1249 71 1388 133 1516 c 1
 326 1496 522 1488 708 1488 c 0xa8
 984 1488 1234 1501 1435 1516 c 1
 1451 1516 1480 1494 1480 1474 c 2
 1480 1338 l 2
 1480 1308 1480 1261 1439 1215 c 0
 1240 995 985 666 985 359 c 0x78
 985 211 1076 268 1076 239 c 2
 1076 173 l 2xa8
EndSplineSet
Validated: 1
EndChar

StartChar: eight
Encoding: 24 56 24
Width: 1744
Flags: HMW
HStem: -28 255<854.5 948.5 854.5 1051.5> 1311 205<812.5 898>
VStem: 54 1636<248.5 553>
LayerCount: 2
Fore
SplineSet
1587 1167 m 0
 1587 988 1453 885 1313 816 c 1
 1479 775 1690 684 1690 437 c 0
 1690 60 1241 -28 862 -28 c 0
 556 -28 54 25 54 424 c 0
 54 682 266 779 463 823 c 1
 300 866 142 954 142 1134 c 0
 142 1474 612 1516 878 1516 c 0
 1108 1516 1587 1482 1587 1167 c 0
720 406 m 0
 720 299 807 227 902 227 c 0
 995 227 1046 317 1046 404 c 0
 1046 583 855 705 855 705 c 1
 855 705 720 628 720 406 c 0
708 1176 m 0
 708 1022 892 906 892 906 c 1
 892 906 1007 1042 1007 1186 c 0
 1007 1261 942 1311 854 1311 c 0
 771 1311 708 1257 708 1176 c 0
EndSplineSet
Validated: 1
EndChar

StartChar: nine
Encoding: 25 57 25
Width: 1704
Flags: HMW
HStem: -27 460 1496 20G<633.5 848>
LayerCount: 2
Fore
SplineSet
739 184 m 0
 913 184 968 417 968 624 c 2
 968 652 l 1
 861 587 733 560 609 560 c 0
 352 560 32 675 32 975 c 0
 32 1368 419 1516 848 1516 c 1
 1397 1508 1651 1215 1651 820 c 0
 1651 347 1347 -27 739 -27 c 0
 475 -27 383 -7 353 1 c 1
 244 16 119 192 119 362 c 0
 119 412 293 463 378 463 c 0
 434 463 491 184 739 184 c 0
807 795 m 0
 976 795 977 935 977 1066 c 0
 977 1248 896 1312 815 1312 c 0
 646 1312 632 1143 632 1021 c 0
 632 864 711 795 807 795 c 0
EndSplineSet
Validated: 1
EndChar

StartChar: colon
Encoding: 26 58 26
Width: 607
Flags: HMW
HStem: 38 438<219.5 388> 750 438<219.5 388>
VStem: 61 478<203 311 203 313 915 1023>
LayerCount: 2
Fore
SplineSet
61 257 m 0
 61 369 135 476 304 476 c 0
 472 476 539 365 539 257 c 0
 539 149 472 38 304 38 c 0
 135 38 61 145 61 257 c 0
61 969 m 0
 61 1081 135 1188 304 1188 c 0
 472 1188 539 1077 539 969 c 0
 539 861 472 750 304 750 c 0
 135 750 61 857 61 969 c 0
EndSplineSet
Validated: 1
EndChar

StartChar: semicolon
Encoding: 27 59 27
Width: 611
Flags: HMW
HStem: 460 285 462 20G<230 372> 745 436
VStem: 43 517 57 495<164 310.5 163.5 322>
LayerCount: 2
Fore
SplineSet
62 969 m 0x90
 62 1081 136 1188 305 1188 c 0
 473 1188 540 1077 540 969 c 0
 540 861 473 750 305 750 c 0
 136 750 62 857 62 969 c 0x90
107 -115 m 0
 107 -71 222 -8 222 52 c 0
 222 88 57 74 57 254 c 0x88
 57 390 157 482 303 482 c 0x70
 441 482 552 377 552 244 c 0x88
 552 83 374 -170 189 -170 c 0
 136 -170 107 -140 107 -115 c 0
EndSplineSet
Validated: 1
EndChar

StartChar: less
Encoding: 28 60 28
Width: 858
Flags: HMW
HStem: -1 21G<592 620.5> 1049 20G<592 619.5> 1061 8
VStem: 786 13 796 13
LayerCount: 2
Fore
SplineSet
39 534 m 0xa8
 39 623 577 1061 577 1061 c 2xb0
 581 1064 586 1069 598 1069 c 0
 641 1069 799 907 799 835 c 0
 799 824 795 815 786 806 c 2xd0
 786 806 538 603 468 534 c 1
 540 465 796 262 796 262 c 1
 805 253 809 244 809 233 c 0
 809 161 643 -1 598 -1 c 0
 586 -1 581 4 577 7 c 2
 577 7 39 445 39 534 c 0xa8
EndSplineSet
Validated: 1
EndChar

StartChar: equal
Encoding: 29 61 29
Width: 1140
Flags: HMW
HStem: 390 170<282 911> 722 171<282 913>
VStem: 82 983<444 835 778 833>
LayerCount: 2
Fore
SplineSet
261 892 m 1
 313 893 879 893 886 893 c 0
 940 893 1016 895 1029 896 c 1
 1055 886 1065 859 1065 811 c 0
 1065 745 1042 716 1010 716 c 1
 998 721 783 722 783 722 c 1
 282 722 l 1
 282 722 144 718 137 714 c 1
 105 714 82 743 82 809 c 0
 82 857 92 884 118 894 c 1
 131 893 207 892 261 892 c 1
261 559 m 1
 311 560 877 560 884 560 c 0
 938 560 1014 563 1027 564 c 1
 1053 554 1063 527 1063 479 c 0
 1063 413 1040 384 1008 384 c 1
 997 388 781 390 781 390 c 1
 282 390 l 1
 282 390 144 386 137 382 c 1
 105 382 82 411 82 477 c 0
 82 525 92 552 118 562 c 1
 131 561 207 559 261 559 c 1
EndSplineSet
Validated: 1
EndChar

StartChar: greater
Encoding: 30 62 30
Width: 846
Flags: HMW
HStem: -1 21G<234.5 263> 1049 20G<235.5 263> 1061 8
VStem: 46 770<197 578.5>
LayerCount: 2
Fore
SplineSet
816 534 m 0xd0
 816 445 278 7 278 7 c 2
 274 4 269 -1 257 -1 c 0
 212 -1 46 161 46 233 c 0
 46 244 50 253 59 262 c 1
 59 262 315 465 387 534 c 1
 317 603 69 806 69 806 c 2
 60 815 56 824 56 835 c 0
 56 907 214 1069 257 1069 c 0
 269 1069 274 1064 278 1061 c 2xb0
 278 1061 816 623 816 534 c 0xd0
EndSplineSet
Validated: 1
EndChar

StartChar: question
Encoding: 31 63 31
Width: 1303
Flags: HMW
HStem: -26 438<481.5 650> 1348 194<482.5 854.5>
VStem: 32 1236<1203.5 1262>
LayerCount: 2
Fore
SplineSet
32 1262 m 1
 34 1435 115 1514 192 1535 c 1
 313 1535 339 1471 369 1471 c 1
 460 1500 522 1542 692 1542 c 0
 1017 1542 1268 1436 1268 1182 c 0
 1268 943 831 884 831 777 c 0
 831 727 866 664 866 616 c 0
 866 547 764 535 678 535 c 0
 634 535 594 538 574 538 c 0
 449 538 328 639 328 756 c 0
 328 810 352 836 411 861 c 0
 496 896 670 971 670 1134 c 0
 670 1248 609 1348 520 1348 c 0
 445 1348 366 1297 323 1245 c 1
 293 1187 214 1119 143 1119 c 0
 91 1119 32 1145 32 1262 c 1
323 193 m 0
 323 305 397 412 566 412 c 0
 734 412 801 301 801 193 c 0
 801 85 734 -26 566 -26 c 0
 397 -26 323 81 323 193 c 0
EndSplineSet
Validated: 1
EndChar

StartChar: at
Encoding: 32 64 32
Width: 1831
Flags: HMW
HStem: -171 202<729.5 1044.5 729.5 1130> 218 181<692.5 929.5> 234 147<1417 1452> 648 101<904 907 775.5 957.5> 943 156<918 941.5> 1322 194<754.5 1126>
VStem: 59 230<491.5 813 491.5 866.5> 1569 210<706 957.5>
LayerCount: 2
Fore
SplineSet
1417 381 m 1xbf
 1569 381 1569 631 1569 781 c 0
 1569 1134 1277 1322 975 1322 c 0
 534 1322 289 978 289 648 c 0
 289 335 500 31 959 31 c 0
 1130 31 1318 73 1500 175 c 1
 1521 156 1534 120 1534 82 c 0
 1534 -22 1280 -171 980 -171 c 0
 404 -171 59 189 59 652 c 0
 59 1081 369 1516 972 1516 c 0
 1415 1516 1779 1231 1779 790 c 0
 1779 425 1563 234 1341 234 c 0xbf
 1246 234 1146 274 1069 366 c 1
 1004 265 895 218 799 218 c 0xdf
 586 218 507 345 507 485 c 0
 507 716 674 749 877 749 c 0
 937 749 989 739 989 739 c 1
 989 862 l 2
 989 922 966 943 917 943 c 0
 787 943 658 833 658 833 c 1
 610 833 585 864 585 919 c 0
 585 1088 833 1099 1003 1099 c 0
 1296 1099 1345 946 1345 632 c 0
 1345 501 1345 399 1417 381 c 1xbf
980 444 m 0xdf
 989 481 989 557 989 609 c 0
 989 640 986 648 929 648 c 0
 879 648 848 610 848 537 c 0
 848 478 870 399 917 399 c 0
 942 399 974 423 980 444 c 0xdf
EndSplineSet
Validated: 1
EndChar

StartChar: A
Encoding: 33 65 33
Width: 1890
Flags: HMW
HStem: 604 0<1574 1574>
LayerCount: 2
Fore
SplineSet
1044 535 m 1
 616 535 l 1
 600 482 584 437 584 394 c 0
 584 262 749 316 749 251 c 0
 749 131 725 21 656 -13 c 1
 618 -8 512 0 387 0 c 0
 262 0 156 -8 118 -13 c 1
 61 24 58 128 58 196 c 0
 58 365 236 236 307 422 c 2
 552 1063 l 2
 568 1105 576 1134 576 1155 c 0
 576 1239 491 1165 491 1270 c 0
 491 1413 530 1491 558 1503 c 1
 655 1495 797 1489 934 1489 c 0
 1041 1489 1144 1492 1221 1503 c 1
 1224 1502 1243 1493 1262 1443 c 2
 1574 604 l 2
 1626 464 1708 294 1758 294 c 1
 1793 288 1834 281 1834 227 c 0
 1834 148 1811 14 1756 -13 c 1
 1713 -8 1587 0 1437 0 c 0
 1242 0 1080 -8 1028 -13 c 1
 973 14 950 148 950 227 c 0
 950 281 991 289 1026 294 c 1
 1063 295 1078 333 1078 382 c 0
 1078 429 1065 487 1044 535 c 1
1000 705 m 1
 968 807 932 904 897 1003 c 0
 869 1082 856 1125 845 1125 c 0
 836 1125 826 1098 805 1042 c 2
 681 705 l 1
 1000 705 l 1
EndSplineSet
Validated: 1
EndChar

StartChar: B
Encoding: 34 66 34
Width: 1617
Flags: HMW
VStem: 219 567 960 517<1035 1110> 990 593<430 551>
LayerCount: 2
Fore
SplineSet
816 869 m 0xc0
 909 869 960 918 960 1075 c 0
 960 1145 934 1279 865 1279 c 0
 847 1279 827 1275 801 1271 c 1
 787 1245 786 1017 786 921 c 2
 786 892 l 2
 786 877 790 869 816 869 c 0xc0
791 251 m 1
 808 225 843 210 871 210 c 0
 976 210 990 367 990 493 c 0xa0
 990 609 954 709 868 709 c 0
 794 709 786 696 786 673 c 0
 786 522 787 378 791 251 c 1
556 1489 m 0
 684 1489 818 1503 951 1503 c 4
 1215 1503 1467 1427 1467 1138 c 4xc0
 1467 932 1313 849 1124 811 c 1
 1381 787 1583 680 1583 449 c 0
 1583 102 1380 -13 985 -13 c 0
 847 -13 695 0 524 0 c 0
 463 0 255 -7 97 -13 c 1
 56 15 39 165 39 247 c 0
 39 301 83 307 128 312 c 0
 211 321 221 432 221 535 c 2
 221 974 l 2
 221 1087 214 1177 131 1186 c 0
 86 1191 42 1198 42 1252 c 0
 42 1331 59 1476 100 1503 c 1
 156 1503 403 1489 556 1489 c 0
EndSplineSet
Validated: 1
EndChar

StartChar: C
Encoding: 35 67 35
Width: 1536
Flags: HMW
HStem: -27 413<968 1072> 1232 284<509.5 957> 1483 20G<1172.5 1302>
VStem: 37 1444<248.5 949>
LayerCount: 2
Fore
SplineSet
875 -27 m 0xb0
 304 -27 37 369 37 759 c 0
 37 1139 281 1516 738 1516 c 0
 880 1516 973 1496 1106 1421 c 1xd0
 1105 1433 1104 1443 1104 1452 c 0
 1104 1492 1122 1503 1223 1503 c 0xb0
 1381 1503 1416 1484 1451 1250 c 0
 1461 1182 1465 1144 1465 1116 c 0
 1465 1022 1443 1020 1357 1013 c 0
 1260 1004 1256 1004 1252 1004 c 0
 1214 1004 1194 1024 1177 1057 c 1
 1103 1174 1004 1232 910 1232 c 0xd0
 775 1232 658 1116 658 885 c 0
 658 577 852 386 1084 386 c 0
 1200 386 1327 417 1444 483 c 1
 1469 438 1481 390 1481 343 c 0
 1481 154 1269 -27 875 -27 c 0xb0
EndSplineSet
Validated: 1
EndChar

StartChar: D
Encoding: 36 68 36
Width: 1726
Flags: HMW
HStem: -14 21G
VStem: 260 582
LayerCount: 2
Fore
SplineSet
894 222 m 0
 1040 222 1119 476 1119 732 c 0
 1119 991 1038 1252 864 1252 c 0
 848 1252 832 1252 817 1249 c 1
 813 1230 812 1034 812 790 c 2
 812 623 l 2
 812 336 827 224 827 224 c 1
 827 224 848 222 894 222 c 0
123 -13 m 1
 82 13 65 163 65 245 c 0
 65 299 109 305 154 310 c 0
 237 319 247 430 247 533 c 2
 247 972 l 2
 247 1085 240 1175 157 1184 c 0
 112 1189 68 1196 68 1250 c 0
 68 1329 85 1476 126 1503 c 1
 180 1501 455 1489 564 1489 c 4
 686 1490 803 1503 925 1503 c 4
 1438 1503 1690 1119 1690 738 c 0
 1690 361 1444 -13 960 -13 c 4
 849 -13 750 0 637 0 c 4
 560 0 217 -10 123 -13 c 1
EndSplineSet
Validated: 1
EndChar

StartChar: E
Encoding: 37 69 37
Width: 1513
Flags: HMW
VStem: 222 600 981 255
LayerCount: 2
Fore
SplineSet
126 1503 m 1
 319 1493 526 1489 732 1489 c 0
 934 1489 1135 1493 1322 1503 c 1
 1361 1430 1428 1241 1428 1137 c 0
 1428 1056 1306 1033 1248 1033 c 0
 1223 1033 1085 1276 912 1276 c 0
 845 1276 812 1272 812 1037 c 2
 812 819 l 1
 887 908 973 968 1084 968 c 0
 1200 968 1262 872 1262 782 c 0
 1262 672 1172 593 1076 593 c 1
 1029 646 958 690 894 690 c 0
 864 690 835 676 812 641 c 1
 812 378 l 2
 812 288 819 194 855 194 c 2
 943 194 l 1
 1100 224 1184 383 1269 582 c 1
 1277 585 1287 586 1298 586 c 0
 1361 586 1469 550 1494 507 c 0
 1498 499 1499 487 1499 473 c 0
 1499 404 1456 233 1420 127 c 0
 1407 87 1362 -13 1332 -13 c 1
 1106 8 848 0 605 0 c 0
 439 0 288 -2 123 -13 c 1
 82 15 65 165 65 247 c 0
 65 301 109 307 154 312 c 0
 237 321 247 432 247 535 c 2
 247 974 l 2
 247 1087 240 1177 157 1186 c 0
 112 1191 68 1198 68 1252 c 0
 68 1331 85 1476 126 1503 c 1
EndSplineSet
Validated: 33
EndChar

StartChar: F
Encoding: 38 70 38
Width: 1408
Flags: HMW
HStem: -13 21G
VStem: 121 1380
LayerCount: 2
Fore
SplineSet
126 1503 m 1
 273 1494 515 1489 755 1489 c 0
 962 1489 1168 1492 1312 1503 c 1
 1351 1430 1418 1241 1418 1137 c 0
 1418 1056 1296 1033 1238 1033 c 0
 1228 1033 1222 1038 1206 1063 c 1
 1139 1182 1052 1276 902 1276 c 0
 842 1276 812 1272 812 1037 c 2
 812 850 l 1
 884 939 977 1008 1084 1008 c 0
 1200 1008 1262 912 1262 822 c 0
 1262 712 1172 633 1076 633 c 1
 1029 686 958 730 894 730 c 0
 864 730 835 716 812 681 c 1
 812 603 l 2
 812 475 817 303 885 296 c 1
 925 289 972 286 972 227 c 0
 972 148 952 14 904 -13 c 1
 852 -8 690 0 495 0 c 0
 332 0 167 -5 123 -13 c 1
 82 15 65 165 65 247 c 0
 65 301 109 307 154 312 c 0
 237 321 247 432 247 535 c 2
 247 974 l 2
 247 1087 240 1177 157 1186 c 0
 112 1191 68 1198 68 1252 c 0
 68 1331 85 1476 126 1503 c 1
EndSplineSet
Validated: 1
EndChar

StartChar: G
Encoding: 39 71 39
Width: 1755
Flags: HMW
HStem: 828 142 1007 496
LayerCount: 2
Fore
SplineSet
1262 84 m 1
 1163 5 1015 -27 876 -27 c 0
 456 -27 37 221 37 769 c 0
 37 1266 401 1516 791 1516 c 0
 993 1516 1087 1483 1194 1421 c 1
 1194 1487 1207 1503 1309 1503 c 2
 1342 1503 l 2
 1454 1503 1519 1489 1554 1144 c 0
 1556 1127 1556 1113 1556 1100 c 0
 1556 1009 1510 1019 1412 1007 c 0
 1386 1004 1365 1002 1348 1002 c 0
 1303 1002 1290 1019 1255 1068 c 2
 1241 1088 l 1
 1171 1207 1067 1233 976 1233 c 0
 812 1233 661 1085 661 835 c 0
 661 498 877 363 1027 363 c 0
 1106 363 1167 401 1167 467 c 0
 1167 549 1132 576 952 588 c 1
 943 606 943 627 943 652 c 0
 943 712 983 806 1007 829 c 1
 1084 815 1186 810 1284 810 c 0
 1422 810 1550 821 1605 828 c 1
 1665 828 1725 820 1725 722 c 0
 1725 503 1594 633 1594 398 c 0
 1594 315 1602 235 1602 156 c 2
 1602 122 l 1
 1555 78 1491 47 1420 47 c 0
 1360 47 1314 73 1262 84 c 1
EndSplineSet
Validated: 1
EndChar

StartChar: H
Encoding: 40 72 40
Width: 2087
Flags: HMW
HStem: 692 226 1478 20G
VStem: 248 590 1226 603
LayerCount: 2
Fore
SplineSet
1945 1503 m 1
 1986 1476 2003 1331 2003 1252 c 0
 2003 1198 1959 1191 1914 1186 c 0
 1831 1177 1824 1087 1824 974 c 2
 1824 535 l 2
 1824 432 1834 321 1917 312 c 0
 1962 307 2006 301 2006 247 c 0
 2006 165 1989 15 1948 -13 c 1
 1904 -5 1742 0 1587 0 c 0
 1392 0 1230 -8 1178 -13 c 1
 1123 14 1100 148 1100 227 c 0
 1100 281 1141 288 1176 294 c 1
 1250 302 1259 447 1259 615 c 0
 1259 651 1259 657 1227 657 c 0
 1186 657 1126 655 1035 655 c 0
 945 655 885 657 844 657 c 0
 813 657 813 650 813 615 c 0
 813 483 818 303 897 294 c 1
 932 288 973 281 973 227 c 0
 973 148 950 14 895 -13 c 1
 852 -8 726 0 576 0 c 0
 376 0 176 -5 123 -13 c 1
 82 15 65 165 65 247 c 0
 65 301 109 307 154 312 c 0
 237 321 247 432 247 535 c 2
 247 974 l 2
 247 1087 240 1177 157 1186 c 0
 112 1191 68 1198 68 1252 c 0
 68 1331 85 1476 126 1503 c 1
 179 1495 379 1489 579 1489 c 0
 729 1489 855 1498 898 1503 c 1
 953 1476 976 1338 976 1259 c 0
 976 1205 935 1198 889 1190 c 1
 821 1183 813 1036 813 922 c 0
 813 899 815 882 853 882 c 0
 892 882 949 883 1032 883 c 0
 1127 883 1189 881 1231 881 c 0
 1259 881 1259 885 1259 911 c 0
 1259 1073 1254 1184 1190 1190 c 1
 1144 1198 1103 1205 1103 1259 c 0
 1103 1338 1126 1476 1181 1503 c 1
 1233 1498 1395 1489 1590 1489 c 0
 1745 1489 1901 1495 1945 1503 c 1
EndSplineSet
Validated: 1
EndChar

StartChar: I
Encoding: 41 73 41
Width: 1045
Flags: HMW
HStem: 1487 20G
VStem: 240 568
LayerCount: 2
Fore
SplineSet
926 1503 m 1
 967 1476 984 1331 984 1252 c 0
 984 1198 940 1191 895 1186 c 0
 812 1177 805 1087 805 974 c 2
 805 535 l 2
 805 432 815 321 898 312 c 0
 943 307 987 301 987 247 c 0
 987 165 970 16 929 -12 c 1
 882 -4 694 0 528 0 c 0
 349 0 164 -4 116 -12 c 1
 75 16 58 165 58 247 c 0
 58 301 102 307 147 312 c 0
 230 321 240 432 240 535 c 2
 240 974 l 2
 240 1087 233 1177 150 1186 c 0
 105 1191 61 1198 61 1252 c 0
 61 1331 78 1476 119 1503 c 1
 166 1495 347 1489 532 1489 c 0
 688 1489 846 1493 926 1503 c 1
EndSplineSet
Validated: 1
EndChar

StartChar: J
Encoding: 42 74 42
Width: 1313
Flags: HMW
HStem: -72 232<351.5 403 310 705> 1469 20G<704.5 875> 1483 20G
VStem: 36 1213<107 1291.5>
LayerCount: 2
Fore
SplineSet
505 510 m 2xb0
 505 974 l 2
 505 1087 498 1177 415 1186 c 0
 370 1191 326 1198 326 1252 c 0xb0
 326 1331 343 1476 384 1503 c 1
 431 1495 612 1489 797 1489 c 0xd0
 953 1489 1111 1493 1191 1503 c 1
 1232 1476 1249 1331 1249 1252 c 0
 1249 1198 1205 1191 1160 1186 c 0
 1077 1177 1070 1087 1070 974 c 2
 1070 490 l 2
 1070 66 889 -72 521 -72 c 0
 182 -72 36 44 36 170 c 0
 36 247 95 309 185 309 c 0
 317 309 255 160 365 160 c 0
 441 160 505 222 505 510 c 2xb0
EndSplineSet
Validated: 1
EndChar

StartChar: K
Encoding: 43 75 43
Width: 1987
Flags: HMW
HStem: 0 21<421.5 600>
VStem: -48 21
LayerCount: 2
Fore
SplineSet
126 1503 m 1
 173 1495 353 1489 528 1489 c 0
 713 1489 867 1498 917 1503 c 1
 958 1476 975 1341 975 1262 c 0
 975 1208 934 1201 899 1195 c 1
 820 1186 812 1030 812 914 c 2
 812 838 l 1
 898 895 1152 1109 1202 1149 c 0
 1219 1162 1225 1174 1225 1184 c 0
 1225 1217 1163 1237 1163 1266 c 0
 1163 1268 1164 1271 1165 1274 c 0
 1202 1362 1257 1503 1283 1503 c 0
 1296 1503 1426 1489 1584 1489 c 0
 1743 1489 1790 1503 1847 1503 c 0
 1885 1503 1894 1489 1894 1452 c 0
 1894 1419 1884 1345 1882 1317 c 0
 1870 1145 1765 1228 1594 1114 c 1
 1291 883 l 1
 1291 883 1371 811 1427 756 c 0
 1616 572 1647 394 1747 325 c 0
 1819 276 1920 317 1920 216 c 0
 1920 199 1919 172 1907 153 c 1
 1834 -12 1704 -27 1488 -27 c 0
 1125 -27 1152 132 1017 480 c 0
 972 596 963 640 940 640 c 0
 932 640 922 635 908 625 c 2
 812 556 l 1
 813 441 823 302 896 294 c 1
 931 288 972 281 972 227 c 0
 972 148 952 14 904 -13 c 1
 853 -8 695 0 505 0 c 0
 338 0 168 -5 123 -13 c 1
 82 15 65 165 65 247 c 0
 65 301 109 307 154 312 c 0
 237 321 247 432 247 535 c 2
 247 974 l 2
 247 1087 240 1177 157 1186 c 0
 112 1191 68 1198 68 1252 c 0
 68 1331 85 1476 126 1503 c 1
EndSplineSet
Validated: 1
EndChar

StartChar: L
Encoding: 44 76 44
Width: 1494
Flags: HMW
HStem: 17 20G 42 21G
VStem: 22 20
LayerCount: 2
Fore
SplineSet
812 974 m 2
 812 420 l 2
 812 319 820 204 844 204 c 0
 1129 204 1114 522 1262 590 c 0
 1271 595 1285 597 1301 597 c 0
 1371 597 1474 557 1474 506 c 1
 1455 403 1345 145 1290 29 c 0
 1279 5 1259 -13 1225 -13 c 0
 1210 -13 966 0 569 0 c 0
 366 0 176 -5 123 -13 c 1
 82 15 65 165 65 247 c 0
 65 301 109 307 154 312 c 0
 237 321 247 432 247 535 c 2
 247 974 l 2
 247 1087 240 1177 157 1186 c 0
 112 1191 68 1198 68 1252 c 0
 68 1331 85 1476 126 1503 c 1
 173 1495 354 1489 539 1489 c 0
 695 1489 853 1493 933 1503 c 1
 974 1476 991 1331 991 1252 c 0
 991 1198 947 1191 902 1186 c 0
 819 1177 812 1087 812 974 c 2
EndSplineSet
Validated: 1
EndChar

StartChar: M
Encoding: 45 77 45
Width: 2313
Flags: HMW
HStem: 33 21G
VStem: 287 268
LayerCount: 2
Fore
SplineSet
1493 605 m 2
 1493 756 l 2
 1493 806 1490 861 1480 865 c 1
 1472 865 1463 856 1460 850 c 0
 1364 641 1273 410 1175 154 c 2
 1135 50 l 1
 1109 37 1050 20 1022 16 c 1
 1001 17 981 30 963 56 c 1
 845 279 686 682 584 845 c 0
 577 856 568 862 564 862 c 0
 548 862 546 741 546 656 c 2
 546 579 l 2
 546 427 559 250 667 241 c 0
 716 237 770 231 770 187 c 0
 770 122 751 9 705 -13 c 1
 671 -9 565 0 447 0 c 0
 292 0 162 -9 121 -13 c 1
 75 9 57 122 57 187 c 0
 57 231 110 237 159 241 c 0
 271 250 292 382 292 524 c 0
 292 606 291 690 291 1032 c 0
 291 1247 64 1120 64 1249 c 0
 64 1305 82 1468 142 1503 c 1
 256 1493 480 1489 547 1489 c 0
 698 1489 838 1497 910 1504 c 1
 957 1493 967 1468 967 1434 c 0
 967 1413 963 1388 963 1362 c 0
 963 1339 965 1315 975 1290 c 0
 1043 1117 1120 951 1197 792 c 1
 1216 843 1328 1140 1364 1341 c 0
 1372 1387 1357 1478 1394 1503 c 1
 1468 1494 1634 1489 1796 1489 c 0
 1946 1489 2093 1493 2164 1503 c 1
 2196 1503 2240 1369 2240 1264 c 0
 2240 1078 2058 1320 2058 955 c 2
 2058 575 l 2
 2058 459 2063 303 2142 294 c 1
 2177 288 2218 281 2218 227 c 0
 2218 148 2198 14 2150 -13 c 1
 2106 -8 1976 0 1821 0 c 0
 1621 0 1455 -8 1402 -13 c 1
 1354 14 1334 148 1334 227 c 0
 1334 281 1375 288 1410 294 c 1
 1484 302 1493 457 1493 605 c 2
EndSplineSet
Validated: 1
EndChar

StartChar: N
Encoding: 46 78 46
Width: 1881
Flags: HMW
HStem: 808 20G
VStem: 110 22 1152 194
LayerCount: 2
Fore
SplineSet
547 803 m 2
 547 473 l 2
 547 378 559 249 660 241 c 0
 709 237 763 231 763 187 c 0
 763 122 744 9 698 -13 c 1
 664 -9 564 0 446 0 c 0
 286 0 152 -9 110 -13 c 1
 64 9 46 122 46 187 c 0
 46 231 99 237 148 241 c 0
 254 249 263 376 263 498 c 2
 263 1051 l 2
 263 1233 54 1145 54 1243 c 0
 54 1278 60 1449 132 1503 c 1
 189 1497 262 1489 503 1489 c 0
 670 1489 721 1503 742 1503 c 0
 788 1503 810 1445 904 1333 c 0
 1321 836 1322 838 1322 838 c 1
 1326 835 1331 831 1346 831 c 1
 1346 1021 l 2
 1346 1138 1337 1232 1240 1240 c 0
 1192 1244 1138 1250 1138 1294 c 0
 1138 1362 1157 1480 1202 1503 c 1
 1244 1499 1373 1489 1528 1489 c 0
 1647 1489 1746 1499 1781 1503 c 1
 1826 1480 1845 1362 1845 1294 c 0
 1845 1250 1791 1244 1742 1240 c 0
 1642 1232 1631 1112 1631 1021 c 2
 1631 930 l 2
 1631 581 1631 168 1650 44 c 1
 1578 1 1510 -27 1441 -27 c 0
 1351 -27 1264 23 1152 138 c 1
 1065 233 769 595 626 770 c 0
 588 816 571 834 559 834 c 0
 550 834 547 821 547 803 c 2
EndSplineSet
Validated: 33
EndChar

StartChar: O
Encoding: 47 79 47
Width: 1826
Flags: HMW
HStem: -16 217 1297 207
LayerCount: 2
Fore
SplineSet
918 -27 m 0
 384 -27 38 254 38 748 c 0
 38 1228 373 1516 925 1516 c 0
 1505 1516 1792 1192 1792 773 c 0
 1792 210 1400 -27 918 -27 c 0
931 220 m 0
 1082 220 1083 548 1083 753 c 0
 1083 965 1070 1279 911 1279 c 0
 804 1279 771 1026 771 733 c 0
 771 599 772 220 931 220 c 0
EndSplineSet
Validated: 1
EndChar

StartChar: P
Encoding: 48 80 48
Width: 1682
Flags: HMW
HStem: 42 21G
VStem: 259 553 1059 630
LayerCount: 2
Fore
SplineSet
822 822 m 1
 865 803 865 801 891 801 c 0
 957 801 1013 863 1013 1102 c 0
 1013 1222 997 1338 912 1338 c 0
 824 1338 812 1244 812 1116 c 0
 812 1097 811 1078 811 1012 c 0
 811 979 811 935 812 873 c 0
 812 853 816 835 822 822 c 1
126 1503 m 1
 179 1501 381 1489 498 1489 c 0
 636 1489 772 1503 915 1503 c 0
 1170 1503 1639 1491 1639 1093 c 0
 1639 732 1324 613 985 613 c 0
 924 613 861 618 812 622 c 1
 812 486 820 303 897 296 c 1
 937 289 984 286 984 227 c 0
 984 148 971 14 916 -13 c 1
 864 -8 692 0 497 0 c 0
 338 0 166 -5 123 -13 c 1
 82 15 65 165 65 247 c 0
 65 301 109 307 154 312 c 0
 237 321 247 432 247 535 c 2
 247 974 l 2
 247 1087 240 1177 157 1186 c 0
 112 1191 68 1198 68 1252 c 0
 68 1331 85 1476 126 1503 c 1
EndSplineSet
Validated: 1
EndChar

StartChar: Q
Encoding: 49 81 49
Width: 1869
Flags: HMW
HStem: -298 270 -27 258<859.5 997> 1313 203<855 987.5>
VStem: 37 1812
LayerCount: 2
Fore
SplineSet
933 231 m 0
 1080 231 1084 539 1084 752 c 0
 1084 1051 1062 1313 913 1313 c 0
 797 1313 775 1022 775 733 c 0
 775 574 786 231 933 231 c 0
997 -27 m 1
 495 -27 37 188 37 760 c 0
 37 1223 369 1516 915 1516 c 0
 1488 1516 1796 1218 1796 756 c 0
 1796 478 1687 275 1456 120 c 1
 1519 -29 1824 -25 1849 -66 c 1
 1848 -97 1821 -161 1799 -201 c 0
 1756 -279 1654 -298 1549 -298 c 0xb0
 1281 -298 1218 -160 1181 -25 c 1
 1123 -25 1066 -26 997 -27 c 1
EndSplineSet
Validated: 1
EndChar

StartChar: R
Encoding: 50 82 50
Width: 1895
Flags: HMW
HStem: 0 21<453.5 630.5>
VStem: 819 842 1003 637
LayerCount: 2
Fore
SplineSet
812 846 m 1x80
 837 840 857 836 897 836 c 0
 968 836 1029 890 1029 1097 c 4
 1029 1202 1010 1303 908 1303 c 0
 829 1303 812 1221 812 1111 c 2
 812 846 l 1x80
126 1503 m 1
 263 1494 359 1489 446 1489 c 0
 703 1489 736 1503 941 1503 c 0
 1184 1503 1635 1496 1635 1128 c 0
 1635 932 1535 814 1346 767 c 1
 1573 706 1636 561 1665 323 c 0
 1676 232 1789 282 1842 235 c 1
 1842 14 1813 -27 1465 -27 c 0
 843 -27 1235 439 878 667 c 1
 812 667 l 1
 812 515 816 303 893 296 c 1
 933 289 980 286 980 227 c 0
 980 148 960 13 912 -14 c 1
 864 -9 718 0 543 0 c 0
 364 0 171 -5 123 -13 c 1
 82 15 65 165 65 247 c 0
 65 301 109 307 154 312 c 0
 237 321 247 432 247 535 c 2
 247 974 l 2
 247 1087 240 1177 157 1186 c 0
 112 1191 68 1198 68 1252 c 0
 68 1331 85 1476 126 1503 c 1
EndSplineSet
Validated: 1
EndChar

StartChar: S
Encoding: 51 83 51
Width: 1520
Flags: HMW
HStem: -27 243<747 793 669 995.5> 1074 442 1285 231<711 751.5 478 867.5>
LayerCount: 2
Fore
SplineSet
1062 1430 m 1xa0
 1081 1488 1075 1503 1200 1503 c 0
 1248 1503 1317 1494 1317 1494 c 1
 1317 1494 1409 1285 1409 1147 c 0
 1409 1091 1278 1064 1203 1064 c 0
 1176 1064 1157 1067 1152 1074 c 0xc0
 1094 1164 966 1285 769 1285 c 0
 653 1285 565 1256 565 1203 c 0
 565 1118 813 1063 985 1028 c 0
 1316 961 1487 774 1487 519 c 1
 1463 123 1155 -27 836 -27 c 0
 658 -27 509 7 416 58 c 1
 406 23 413 -13 318 -13 c 0
 273 -13 210 -9 171 -5 c 1
 136 78 69 239 69 367 c 0
 69 428 175 466 249 466 c 0
 273 466 293 462 306 454 c 1
 381 326 595 216 743 216 c 0
 843 216 951 248 951 323 c 0
 951 433 684 485 493 536 c 0
 234 604 37 727 37 1012 c 0
 37 1344 290 1516 666 1516 c 0
 837 1516 957 1474 1062 1430 c 1xa0
EndSplineSet
Validated: 1
EndChar

StartChar: T
Encoding: 52 84 52
Width: 1580
Flags: HMW
HStem: 1494 20G
VStem: 515 566
LayerCount: 2
Fore
SplineSet
1513 1503 m 1
 1525 1433 1571 1227 1571 1105 c 0
 1571 1095 1569 1085 1566 1075 c 1
 1548 1050 1405 1014 1335 1014 c 0
 1328 1014 1321 1015 1317 1017 c 1
 1268 1126 1193 1316 1116 1316 c 0
 1081 1316 1078 1275 1078 1243 c 2
 1078 605 l 2
 1078 457 1085 302 1159 294 c 1
 1194 288 1235 281 1235 227 c 0
 1235 148 1212 14 1157 -13 c 1
 1105 -7 991 0 796 0 c 0
 601 0 487 -7 435 -13 c 1
 380 14 357 148 357 227 c 0
 357 281 398 288 433 294 c 1
 507 302 513 457 513 605 c 2
 513 1243 l 2
 513 1275 511 1316 476 1316 c 0
 391 1316 309 1126 255 1017 c 1
 250 1015 244 1014 237 1014 c 0
 167 1014 24 1050 6 1075 c 1
 3 1085 1 1095 1 1105 c 0
 1 1226 47 1433 59 1503 c 1
 192 1493 495 1489 796 1489 c 0
 1089 1489 1384 1493 1513 1503 c 1
EndSplineSet
Validated: 1
EndChar

StartChar: U
Encoding: 53 85 53
Width: 1841
Flags: HMW
HStem: -27 260<884.5 1075.5 884.5 1147.5> 1469 20G<437 609.5 1360.5 1503> 1483 20G
VStem: 52 1737<1221 1276 1214 1289>
LayerCount: 2
Fore
SplineSet
1648 989 m 2xb0
 1648 698 l 2
 1648 102 1360 -27 935 -27 c 0
 553 -27 208 19 208 635 c 2
 208 914 l 2
 208 1052 202 1173 128 1181 c 1xb0
 93 1187 52 1194 52 1248 c 0
 52 1330 75 1475 130 1503 c 1xd0
 181 1498 342 1489 532 1489 c 0
 687 1489 817 1498 861 1503 c 1
 916 1475 939 1330 939 1248 c 0
 939 1194 898 1187 863 1181 c 1
 784 1172 773 1022 773 914 c 2
 773 623 l 2
 773 405 796 233 973 233 c 0
 1178 233 1179 440 1179 612 c 2
 1179 989 l 2
 1179 1089 1172 1178 1100 1184 c 1
 1074 1188 1044 1194 1044 1234 c 0xb0
 1044 1318 1066 1474 1121 1503 c 1
 1161 1498 1286 1489 1435 1489 c 0xd0
 1571 1489 1685 1498 1721 1503 c 1
 1769 1474 1789 1318 1789 1234 c 0
 1789 1194 1757 1188 1732 1184 c 1
 1656 1177 1648 1068 1648 989 c 2xb0
EndSplineSet
Validated: 1
EndChar

StartChar: V
Encoding: 54 86 54
Width: 1628
Flags: HMW
HStem: 0 21G<672.5 751 751 956> 1178 310 1215 273 1469 20G<353 495 1250.5 1345> 1483 20G<829 839>
VStem: -10 1648<1215.5 1312 1312 1336.5>
LayerCount: 2
Fore
SplineSet
956 0 m 2x8c
 751 0 l 2xc4
 594 0 569 149 476 379 c 0
 325 749 239 974 162 1138 c 0x8c
 126 1213 -10 1137 -10 1291 c 0
 -10 1382 -9 1481 27 1503 c 1x94
 145 1492 284 1489 422 1489 c 0
 568 1489 712 1493 829 1503 c 1
 849 1503 881 1337 881 1265 c 0
 881 1199 785 1241 785 1173 c 2
 785 1169 l 2
 785 1157 789 1142 796 1123 c 0
 801 1107 940 647 949 647 c 0
 956 647 1113 1087 1113 1157 c 0
 1113 1184 1095 1212 1064 1217 c 0
 995 1228 994 1257 994 1298 c 0x8c
 994 1362 1000 1483 1039 1503 c 1
 1133 1489 1214 1489 1287 1489 c 0x94
 1403 1489 1501 1497 1610 1503 c 1x8c
 1635 1501 1638 1437 1638 1371 c 2
 1638 1312 l 2xa4
 1638 1119 1502 1352 1381 967 c 0
 1299 706 1161 350 1076 116 c 0
 1058 67 1035 0 956 0 c 2x8c
EndSplineSet
Validated: 1
EndChar

StartChar: W
Encoding: 55 87 55
Width: 2316
Flags: HMW
HStem: 1489 20G
LayerCount: 2
Fore
SplineSet
1644 0 m 2
 1479 0 l 2
 1365 0 1344 124 1309 243 c 2
 1168 716 l 1
 1103 511 1020 250 975 116 c 0
 958 67 935 0 856 0 c 2
 671 0 l 2
 539 0 517 149 434 378 c 0
 300 749 221 976 149 1139 c 0
 116 1215 -20 1139 -20 1293 c 0
 -20 1384 -19 1481 17 1503 c 1
 135 1493 273 1489 412 1489 c 0
 554 1489 695 1493 809 1503 c 1
 829 1503 861 1339 861 1267 c 0
 861 1208 741 1248 741 1160 c 0
 741 1150 743 1139 746 1125 c 0
 750 1109 872 717 879 717 c 0
 884 717 982 1020 1009 1125 c 0
 1017 1157 1020 1191 1020 1225 c 0
 1020 1318 998 1406 998 1422 c 0
 998 1451 1015 1477 1040 1477 c 1
 1120 1469 1197 1460 1269 1460 c 0
 1328 1460 1390 1465 1469 1476 c 0
 1474 1477 1478 1477 1482 1477 c 0
 1503 1477 1519 1466 1519 1432 c 0
 1519 1374 1500 1336 1500 1273 c 0
 1500 1246 1503 1214 1513 1175 c 0
 1514 1171 1627 727 1637 727 c 0
 1648 727 1761 1134 1761 1159 c 0
 1761 1186 1743 1219 1712 1219 c 1
 1642 1233 1642 1259 1642 1300 c 0
 1642 1364 1648 1483 1687 1503 c 1
 1809 1490 1911 1489 2005 1489 c 0
 2105 1489 2191 1497 2288 1503 c 1
 2331 1501 2336 1439 2336 1373 c 2
 2336 1314 l 2
 2336 1121 2180 1357 2057 970 c 0
 1974 710 1854 347 1765 116 c 0
 1746 66 1721 0 1644 0 c 2
EndSplineSet
Validated: 1
EndChar

StartChar: X
Encoding: 56 88 56
Width: 1774
Flags: HMW
HStem: -13 21G 0 21G<332 420 1178.5 1338.5> 1469 20G<431.5 598 1326.5 1426.5> 1483 20G
VStem: 39 1680<99.5 216.5>
LayerCount: 2
Fore
SplineSet
638 -13 m 1x58
 541 -3 469 0 371 0 c 0
 293 0 198 -1 68 -13 c 1
 43 -2 39 24 39 59 c 0
 39 374 74 172 293 419 c 0
 363 498 476 614 587 763 c 1x98
 537 822 367 1035 316 1103 c 0
 242 1201 71 1172 71 1265 c 0x68
 71 1458 87 1482 101 1503 c 1
 148 1495 335 1489 528 1489 c 0
 668 1489 811 1491 909 1503 c 1
 931 1489 951 1330 951 1257 c 0
 951 1225 905 1231 905 1192 c 0
 905 1154 981 1053 1022 995 c 1
 1088 1077 1158 1181 1158 1198 c 0x58
 1158 1235 1074 1209 1074 1311 c 0
 1074 1371 1075 1475 1120 1503 c 1x68
 1190 1490 1279 1489 1374 1489 c 0
 1479 1489 1590 1491 1690 1503 c 1
 1715 1494 1719 1457 1719 1417 c 0
 1719 1286 1719 1225 1651 1213 c 0
 1519 1189 1518 1168 1182 805 c 1
 1239 722 1407 521 1463 453 c 1
 1625 231 1719 379 1719 124 c 0x98
 1719 75 1719 15 1681 -13 c 1
 1599 -5 1424 0 1253 0 c 0x58
 1104 0 958 -4 878 -13 c 1x98
 846 11 828 150 828 189 c 0
 828 287 920 248 920 298 c 0
 920 315 909 344 878 393 c 0
 862 418 764 567 764 567 c 1
 740 534 586 340 586 312 c 0
 586 259 684 297 684 170 c 2
 684 161 l 2
 684 122 683 14 638 -13 c 1x58
EndSplineSet
Validated: 1
EndChar

StartChar: Y
Encoding: 57 89 57
Width: 1609
Flags: HMW
HStem: -13 21G 0 21G<703 903> 1208 294 1469 20G<382.5 509 1254.5 1337>
VStem: -20 1649<1223 1349 1223 1373.5>
LayerCount: 2
Fore
SplineSet
1085 605 m 2x58
 1085 457 1092 302 1166 294 c 1x58
 1201 288 1242 281 1242 227 c 0
 1242 148 1222 14 1174 -13 c 1
 1121 -7 1003 0 803 0 c 0
 603 0 485 -7 432 -13 c 1
 384 14 364 148 364 227 c 0
 364 281 405 288 440 294 c 1
 514 302 520 457 520 605 c 2
 520 737 l 1
 386 920 l 2
 315 1017 220 1142 97 1176 c 0xa8
 25 1196 -20 1174 -20 1335 c 2
 -20 1349 l 2x58
 -20 1398 -8 1503 22 1503 c 1
 194 1489 325 1489 440 1489 c 0
 578 1489 684 1494 810 1503 c 1
 830 1503 862 1327 862 1259 c 0
 862 1208 781 1234 781 1192 c 0
 781 1181 784 1167 799 1144 c 0
 823 1106 914 966 914 966 c 1
 914 966 1037 1149 1056 1178 c 0
 1062 1187 1064 1194 1064 1200 c 0
 1064 1225 985 1222 985 1272 c 2x68
 985 1287 l 2
 985 1347 987 1484 1030 1503 c 1x58
 1132 1489 1214 1489 1295 1489 c 0
 1379 1489 1533 1503 1601 1503 c 0
 1628 1503 1629 1401 1629 1329 c 2
 1629 1295 l 2x68
 1629 1151 1475 1274 1364 1122 c 0
 1209 910 1123 800 1085 733 c 1
 1085 605 l 2x58
EndSplineSet
Validated: 1
EndChar

StartChar: Z
Encoding: 58 90 58
Width: 1472
Flags: HMW
HStem: 1300 168
LayerCount: 2
Fore
SplineSet
117 -13 m 1
 105 -9 56 118 56 205 c 0
 56 212 58 219 61 225 c 0
 90 272 121 323 153 373 c 2
 713 1246 l 1
 721 1261 729 1273 729 1285 c 0
 729 1297 692 1301 633 1301 c 0
 440 1301 300 1025 282 1025 c 0
 187 1025 50 1079 50 1123 c 0
 50 1126 50 1129 51 1132 c 0
 68 1228 118 1394 170 1503 c 1
 370 1492 599 1489 850 1489 c 0
 1045 1489 1242 1497 1369 1503 c 1
 1389 1466 1394 1444 1394 1314 c 0
 1394 1266 1313 1143 1226 1014 c 1
 1226 1014 822 372 749 256 c 0
 748 255 748 255 748 254 c 0
 748 245 827 241 895 241 c 0
 1098 241 1200 553 1216 553 c 0
 1335 553 1443 479 1443 463 c 0
 1436 347 1343 75 1299 -13 c 1
 1110 -4 895 0 686 0 c 0
 483 0 282 -4 117 -13 c 1
EndSplineSet
Validated: 1
EndChar

StartChar: bracketleft
Encoding: 59 91 59
Width: 1033
Flags: HMW
HStem: 1487 20G
VStem: 232 568
LayerCount: 2
Fore
SplineSet
680 1054 m 2
 680 295 l 2
 680 200 694 200 813 194 c 1
 858 188 909 181 909 127 c 0
 909 45 886 -99 831 -127 c 1
 777 -119 607 -100 402 -100 c 0
 306 -100 222 -108 179 -108 c 0
 173 -108 167 -107 163 -107 c 1
 136 -97 135 10 135 88 c 2
 135 1262 l 2
 135 1285 134 1315 134 1345 c 0
 134 1414 138 1488 160 1496 c 1
 164 1496 170 1497 176 1497 c 0
 219 1497 303 1489 399 1489 c 0
 604 1489 774 1508 828 1516 c 1
 883 1488 906 1344 906 1262 c 0
 906 1208 855 1200 810 1195 c 1
 691 1187 680 1174 680 1054 c 2
EndSplineSet
Validated: 1
EndChar

StartChar: backslash
Encoding: 60 92 60
Width: 1214
Flags: HMW
HStem: 3 1584<190 988>
VStem: 62 1088
LayerCount: 2
Fore
SplineSet
1121 188 m 1
 1147 136 1150 120 1150 106 c 0
 1150 24 1022 3 954 3 c 0
 831 3 800 59 758 148 c 0
 549 591 335 1040 111 1400 c 0
 82 1446 62 1483 62 1512 c 0
 62 1561 114 1587 266 1587 c 0
 345 1587 401 1567 430 1510 c 0
 556 1259 951 511 1121 188 c 1
EndSplineSet
Validated: 1
EndChar

StartChar: bracketright
Encoding: 61 93 61
Width: 1033
Flags: HMW
HStem: 1487 20G
VStem: 200 568
LayerCount: 2
Fore
SplineSet
320 295 m 2
 320 1054 l 2
 320 1174 309 1187 190 1195 c 1
 145 1200 94 1208 94 1262 c 0
 94 1344 117 1488 172 1516 c 1
 226 1508 396 1489 601 1489 c 0
 697 1489 781 1497 824 1497 c 0
 830 1497 836 1496 840 1496 c 1
 862 1488 866 1414 866 1345 c 0
 866 1315 865 1285 865 1262 c 2
 865 88 l 2
 865 10 864 -97 837 -107 c 1
 833 -107 827 -108 821 -108 c 0
 778 -108 694 -100 598 -100 c 0
 393 -100 223 -119 169 -127 c 1
 114 -99 91 45 91 127 c 0
 91 181 142 188 187 194 c 1
 306 200 320 200 320 295 c 2
EndSplineSet
Validated: 1
EndChar

StartChar: asciicircum
Encoding: 62 94 62
Width: 930
Flags: HMW
HStem: 1076 20G<390 540 540 540>
VStem: 21 888<660 696>
LayerCount: 2
Fore
SplineSet
390 1096 m 1
 540 1096 l 1
 637 1007 790 845 821 807 c 0
 871 746 909 711 909 681 c 0
 909 639 873 620 772 620 c 0
 688 620 663 645 616 693 c 1
 465 884 l 1
 314 693 l 1
 267 645 242 620 158 620 c 0
 57 620 21 639 21 681 c 0
 21 711 59 746 109 807 c 0
 140 845 293 1007 390 1096 c 1
EndSplineSet
Validated: 1
EndChar

StartChar: underscore
Encoding: 63 95 63
Width: 1183
Flags: HMW
HStem: -197 171<200 1031>
VStem: 0 1183<-141 -86>
LayerCount: 2
Fore
SplineSet
179 -27 m 1
 231 -26 997 -26 1004 -26 c 0
 1058 -26 1134 -24 1147 -23 c 1
 1173 -33 1183 -60 1183 -108 c 0
 1183 -174 1160 -203 1128 -203 c 1
 1116 -198 901 -197 901 -197 c 1
 200 -197 l 1
 200 -197 62 -201 55 -205 c 1
 23 -205 0 -176 0 -110 c 0
 0 -62 10 -35 36 -25 c 1
 49 -26 125 -27 179 -27 c 1
EndSplineSet
Validated: 1
EndChar

StartChar: quoteleft
Encoding: 308 8216 64
Width: 634
Flags: HMW
HStem: 1545 20G
VStem: 111 477 624 479
LayerCount: 2
Fore
SplineSet
518 1520 m 0
 518 1476 403 1413 403 1353 c 0
 403 1317 568 1331 568 1151 c 0
 568 1015 468 923 322 923 c 0
 184 923 73 1028 73 1161 c 0
 73 1322 251 1575 436 1575 c 0
 489 1575 518 1545 518 1520 c 0
EndSplineSet
Validated: 1
EndChar

StartChar: a
Encoding: 65 97 65
Width: 1363
Flags: HMW
HStem: -27 21G<268.5 454> -11 21G<790.5 832.5> -1 21G<951.5 1087> 542 134<576.5 582 405.5 651.5> 888 207<594 629>
VStem: 51 1268<222.5 256 205.5 469.5>
LayerCount: 2
Fore
SplineSet
729 124 m 1x9c
 646 21 514 -27 394 -27 c 0
 143 -27 51 135 51 310 c 0
 51 629 271 676 540 676 c 0
 624 676 694 663 694 663 c 1
 694 781 l 2
 694 861 665 888 593 888 c 0
 422 888 250 742 250 742 c 1
 187 742 154 784 154 858 c 0
 154 1079 482 1094 706 1094 c 4
 1115 1094 1180 905 1180 528 c 0
 1180 403 1180 303 1255 289 c 0x9c
 1272 286 1319 298 1319 214 c 0
 1319 197 1306 -5 1237 -27 c 1x3c
 1184 -14 1161 -1 1013 -1 c 0
 890 -1 860 -11 805 -11 c 0x5c
 776 -11 752 44 729 124 c 1x9c
684 271 m 1
 694 320 694 421 694 492 c 0
 694 532 693 542 610 542 c 0
 543 542 503 490 503 394 c 0
 503 316 531 212 594 212 c 0
 629 212 675 245 684 271 c 1
EndSplineSet
Validated: 1
EndChar

StartChar: b
Encoding: 66 98 66
Width: 1486
Flags: HMW
HStem: -27 220<774 852.5 774 989.5> -14 21G<179 234> 887 208<764 1080> 1469 20G<359 489> 1482 20G<623 675.5> 1496 20G
VStem: 34 1415<404.5 1324>
LayerCount: 2
Fore
SplineSet
719 1415 m 0xaa
 719 1399 709 1154 709 1038 c 1
 787 1076 869 1094 950 1094 c 4xa6
 1210 1094 1449 915 1449 609 c 0
 1449 200 1162 -27 817 -27 c 0
 686 -27 553 4 436 67 c 1
 336 9 268 -14 200 -14 c 0
 158 -14 94 0 94 91 c 0
 94 151 207 231 207 231 c 1
 220 332 224 723 224 1021 c 0
 224 1105 222 1211 84 1225 c 0x66
 40 1229 34 1243 34 1285 c 0
 34 1363 54 1489 98 1516 c 1xb2
 158 1506 275 1489 443 1489 c 0
 535 1489 600 1502 646 1502 c 0
 705 1502 719 1487 719 1415 c 0xaa
709 514 m 0
 709 334 729 193 819 193 c 0
 886 193 920 305 920 538 c 0xa6
 920 738 886 887 816 887 c 0xaa
 712 887 709 719 709 514 c 0
EndSplineSet
Validated: 1
EndChar

StartChar: c
Encoding: 67 99 67
Width: 1154
Flags: HMW
HStem: 47 342
VStem: 4 512
LayerCount: 2
Back
SplineSet
666 517.900390625 m 6
 666 417.900390625 670 283.900390625 749 274.900390625 c 5
 784 268.900390625 825 261.900390625 825 207.900390625 c 4
 825 125.900390625 802 -18.099609375 747 -46.099609375 c 5
 704 -38.099609375 578 -19.099609375 428 -19.099609375 c 4
 273 -19.099609375 143 -38.099609375 99 -46.099609375 c 5
 44 -18.099609375 21 125.900390625 21 207.900390625 c 4
 21 261.900390625 62 268.900390625 97 274.900390625 c 5
 176 283.900390625 181 405.900390625 181 497.900390625 c 6
 181 579.900390625 l 6
 181 663.900390625 178 769.900390625 40 783.900390625 c 4
 -4 787.900390625 -10 801.900390625 -10 843.900390625 c 4
 -10 921.900390625 10 1048.90039062 54 1075.90039062 c 5
 110 1065.90039062 221 1047.90039062 379 1047.90039062 c 4
 453 1047.90039062 504 1061.90039062 542 1061.90039062 c 4
 601 1061.90039062 615 1046.90039062 615 973.900390625 c 4
 615 968.900390625 614 938.900390625 612 896.900390625 c 5
 684 1002.90039062 771 1074.90039062 878 1074.90039062 c 4
 1010 1074.90039062 1069 990.900390625 1069 900.900390625 c 4
 1069 795.900390625 989 680.900390625 851 680.900390625 c 5
 791 794.900390625 l 5
 741 794.900390625 680 763.900390625 666 649.900390625 c 5
 666 517.900390625 l 6
EndSplineSet
Fore
SplineSet
1089 390 m 1
 1120 340 l 1
 1120 116 986 -27 660 -27 c 0
 244 -27 38 244 38 519 c 0
 38 817 241 1094 659 1094 c 0
 955 1094 1075 969 1075 855 c 0
 1075 761 991 674 855 674 c 1
 743 908 l 1
 743 908 732 919 683 919 c 0
 581 919 541 777 541 629 c 0
 541 418 652 307 786 307 c 0
 882 307 993 334 1089 390 c 1
EndSplineSet
Validated: 1
EndChar

StartChar: d
Encoding: 68 100 68
Width: 1468
Flags: HMW
VStem: -26 21
LayerCount: 2
Fore
SplineSet
1268 1038 m 0
 1268 797 1269 813 1269 576 c 0
 1269 439 1272 305 1367 289 c 0
 1384 286 1431 298 1431 214 c 0
 1431 197 1418 -5 1349 -27 c 1
 1288 -14 1257 -1 1082 -1 c 0
 972 -1 923 -11 875 -11 c 0
 814 -11 791 36 791 124 c 1
 739 8 618 -27 484 -27 c 0
 172 -27 38 278 38 556 c 0
 38 900 231 1094 541 1094 c 4
 638 1094 723 1079 793 1021 c 1
 793 1105 791 1211 653 1225 c 0
 609 1229 603 1243 603 1285 c 0
 603 1363 623 1489 667 1516 c 1
 725 1506 839 1489 1002 1489 c 0
 1094 1489 1159 1502 1205 1502 c 0
 1264 1502 1278 1487 1278 1415 c 0
 1278 1399 1268 1154 1268 1038 c 0
571 514 m 0
 571 334 591 193 681 193 c 0
 748 193 782 305 782 538 c 0
 782 738 748 887 678 887 c 0
 574 887 571 719 571 514 c 0
EndSplineSet
Validated: 1
EndChar

StartChar: e
Encoding: 69 101 69
Width: 1229
Flags: HMW
HStem: -27 329<741 744> 529 168<561 752.5> 920 175<618.5 715>
VStem: 48 1137
LayerCount: 2
Fore
SplineSet
543 700 m 1
 602 700 660 697 725 697 c 0
 780 697 794 719 794 769 c 0
 794 866 753 920 677 920 c 0
 560 920 543 840 543 700 c 1
1094 98 m 0
 988 -3 818 -27 670 -27 c 0
 330 -27 48 185 48 538 c 0
 48 894 301 1094 663 1094 c 4
 963 1094 1165 907 1185 693 c 1
 1164 555 959 535 812 532 c 0
 711 529 610 529 561 529 c 1
 575 365 682 302 800 302 c 0
 922 302 1053 345 1144 408 c 1
 1167 398 1178 379 1178 349 c 0
 1178 252 1131 132 1094 98 c 0
EndSplineSet
Validated: 1
EndChar

StartChar: f
Encoding: 70 102 70
Width: 972
Flags: HMW
HStem: -27 21G 781 180<828 846> 1348 168<660.5 721.5>
VStem: -7 1094<906 1341>
LayerCount: 2
Back
SplineSet
762 916 m 6
 762 816 766 682 845 673 c 5
 880 667 921 660 921 606 c 4
 921 524 898 380 843 352 c 5
 800 360 674 379 524 379 c 4
 369 379 239 360 195 352 c 5
 140 380 117 524 117 606 c 4
 117 660 158 667 193 673 c 5
 272 682 277 804 277 896 c 6
 277 978 l 6
 277 1062 274 1168 136 1182 c 4
 92 1186 86 1200 86 1242 c 4
 86 1320 106 1447 150 1474 c 5
 206 1464 317 1446 475 1446 c 4
 549 1446 600 1460 638 1460 c 4
 697 1460 711 1444.82758621 711 1372 c 4
 711 1367 710 1337 708 1295 c 5
 780 1401.40223464 867 1473 974 1473 c 4
 1106.01132701 1473 1164.94042969 1389.02477909 1164.94042969 1298.61132812 c 4
 1164.94042969 1193.18275802 1084.813591 1079 947 1079 c 5
 887 1193 l 4
 837.320512821 1193 776.423076923 1162 762 1048 c 5
 762 916 l 6
EndSplineSet
Fore
SplineSet
199 538 m 0
 199 769 198 769 196 769 c 2
 190 769 l 2
 156 769 39 770 39 795 c 0
 39 846 36 886 36 926 c 0
 36 938 198 961 198 961 c 1
 198 1322 405 1516 747 1516 c 0
 1010 1516 1126 1385 1126 1267 c 0
 1126 1170 1048 1081 910 1081 c 1
 759 1348 l 1
 648 1348 599 1289 599 1212 c 0
 599 1135 623 1044 683 959 c 1
 690 959 848 961 894 961 c 0
 953 961 977 953 977 890 c 0
 977 790 923 781 889 781 c 2
 684 781 l 1
 684 587 l 2
 684 455 695 304 767 297 c 1
 813 289 854 282 854 228 c 0
 854 146 831 1 776 -27 c 1
 732 -19 602 0 447 0 c 0
 292 0 162 -19 118 -27 c 1
 63 1 40 146 40 228 c 0
 40 282 81 289 127 297 c 1
 193 304 199 438 199 538 c 0
EndSplineSet
Validated: 1
EndChar

StartChar: g
Encoding: 71 103 71
Width: 1294
Flags: HMW
HStem: -534 204<502 680 428 776> -223 361 241 143<562 597 555 748.5> 937 158<557.5 620> 947 248<1071 1169>
VStem: 38 1222<581.5 1075.5>
LayerCount: 2
Fore
SplineSet
1282 -110 m 0xf4
 1282 -462 952 -534 654 -534 c 0
 404 -534 181 -476 181 -378 c 0
 181 -324 206 -266 263 -198 c 1
 142 -166 68 -97 68 24 c 0
 68 147 152 246 224 327 c 1
 101 426 75 538 75 642 c 4
 75 964 307 1094 603 1094 c 0xf4
 741 1094 806 1064 910 1041 c 1
 935 1071 1001 1195 1136 1195 c 0
 1266 1195 1287 1095 1287 1056 c 0
 1287 962 1249 947 1143 947 c 0
 1053 947 1044 937 1044 935 c 1xec
 1111 866 1172 765 1172 637 c 0
 1172 417 938 241 613 241 c 0
 565 241 535 250 520 250 c 1
 505 234 497 220 497 209 c 0
 497 67 1282 271 1282 -110 c 0xf4
624 384 m 1
 703 390 718 491 718 648 c 0
 718 811 689 937 619 937 c 0
 542 937 525 788 525 678 c 0
 525 657 531 384 624 384 c 1
517 -223 m 2
 478 -223 441 -222 406 -219 c 1
 406 -238 l 2
 406 -282 413 -330 497 -330 c 0
 917 -330 965 -330 965 -255 c 0
 965 -224 879 -223 782 -223 c 2
 517 -223 l 2
EndSplineSet
Validated: 1
EndChar

StartChar: h
Encoding: 72 104 72
Width: 1666
Flags: HMW
HStem: -27 21G -14 21G<1089 1157> 0 21G<392.5 545 1281.5 1364.5> 841 254<862 1203.5> 1075 20G<1012 1203.5> 1469 20G<358 488> 1482 20G<622 674.5> 1496 20G
VStem: 32 1602<186 1324>
LayerCount: 2
Fore
SplineSet
708 1038 m 2x2980
 707 969 l 1
 796 1061 921 1094 1103 1094 c 4x8980
 1304 1094 1475 982 1475 731 c 2
 1475 562 l 2x2980
 1475 450 1480 303 1558 294 c 1
 1593 288 1634 281 1634 227 c 0x4980
 1634 145 1611 1 1556 -27 c 1
 1520 -19 1422 0 1307 0 c 0
 1256 0 1187 -14 1127 -14 c 0
 1051 -14 987 5 987 90 c 0
 987 191 990 245 990 407 c 0
 990 677 983 841 897 841 c 0
 827 841 744 811 707 718 c 1
 707 587 l 2x9180
 707 467 712 303 780 296 c 1
 826 288 867 281 867 227 c 0x2980
 867 145 844 1 789 -27 c 1
 746 -19 620 0 470 0 c 0
 315 0 185 -19 141 -27 c 1
 86 1 63 145 63 227 c 0
 63 281 104 288 150 296 c 1
 218 303 221 443 221 547 c 2
 221 1021 l 2
 221 1105 220 1211 82 1225 c 0x8980
 38 1229 32 1243 32 1285 c 0
 32 1363 52 1489 96 1516 c 1x2c80
 156 1506 274 1489 442 1489 c 0
 534 1489 599 1502 645 1502 c 0
 704 1502 718 1487 718 1415 c 1x2a80
 717 1399 710 1154 708 1038 c 2x2980
EndSplineSet
Validated: 1
EndChar

StartChar: i
Encoding: 73 105 73
Width: 927
Flags: HMW
HStem: 227 21G 1171 345<438.5 532.5>
VStem: 221 636
LayerCount: 2
Fore
SplineSet
487 1171 m 0
 390 1171 165 1199 165 1340 c 0
 165 1459 269 1516 480 1516 c 0
 705 1516 746 1411 746 1337 c 0
 746 1205 578 1171 487 1171 c 0
731 587 m 0
 731 467 735 303 814 294 c 1
 849 288 890 281 890 227 c 0
 890 145 867 1 812 -27 c 1
 769 -19 643 0 493 0 c 0
 338 0 208 -19 164 -27 c 1
 109 1 86 145 86 227 c 0
 86 281 127 288 162 294 c 1
 241 303 246 443 246 547 c 2
 246 599 l 2
 246 683 243 789 105 803 c 0
 61 807 55 821 55 863 c 0
 55 941 75 1067 119 1094 c 1
 179 1084 296 1067 464 1067 c 0
 556 1067 617 1081 663 1081 c 4
 722 1081 736 1066 736 993 c 0
 736 977 731 703 731 587 c 0
EndSplineSet
Validated: 1
EndChar

StartChar: j
Encoding: 74 106 74
Width: 991
Flags: HMW
HStem: 1171 319
VStem: 359 555 621 7
LayerCount: 2
Fore
SplineSet
628 1171 m 0xa0
 531 1171 306 1199 306 1340 c 0
 306 1459 410 1516 621 1516 c 0
 846 1516 887 1411 887 1337 c 0
 887 1205 719 1171 628 1171 c 0xa0
409 599 m 2
 409 -15 l 2
 409 -136 403 -227 324 -227 c 0
 220 -227 305 -91 132 -91 c 0
 71 -91 21 -130 21 -200 c 0
 21 -448 307 -448 431 -448 c 0
 825 -448 894 -106 894 240 c 2
 894 616 l 2
 894 732 900 977 900 993 c 0
 900 1066 886 1081 827 1081 c 4
 781 1081 716 1067 624 1067 c 0
 456 1067 343 1084 283 1094 c 1
 239 1067 219 941 219 863 c 0
 219 821 225 807 269 803 c 0
 407 789 409 683 409 599 c 2
EndSplineSet
Validated: 8388617
EndChar

StartChar: k
Encoding: 75 107 75
Width: 1622
Flags: HMW
VStem: 6 21
LayerCount: 2
Fore
SplineSet
1469 1095 m 1
 1512 1083 1518 1045 1518 990 c 0
 1518 864 1501 911 1320 792 c 1
 1060 643 l 1
 1330 581 1333 493 1390 369 c 1
 1412 313 1437 289 1491 289 c 0
 1513 289 1583 289 1583 223 c 0
 1583 220 1565 3 1520 -27 c 1
 1516 -11 1410 0 1303 0 c 0
 1203 0 1102 -8 1071 -27 c 1
 989 -14 987 179 962 262 c 0
 894 485 845 485 738 485 c 2
 711 485 l 1
 714 395 729 301 784 296 c 1
 830 288 871 281 871 227 c 0
 871 145 848 1 793 -27 c 1
 750 -19 624 0 474 0 c 0
 319 0 189 -19 145 -27 c 1
 90 1 67 145 67 227 c 0
 67 281 108 288 154 296 c 1
 222 303 226 443 226 547 c 2
 226 1021 l 2
 226 1105 224 1211 86 1225 c 0
 42 1229 36 1243 36 1285 c 0
 36 1363 56 1489 100 1516 c 1
 160 1506 277 1489 445 1489 c 0
 537 1489 602 1502 648 1502 c 0
 707 1502 721 1487 721 1415 c 0
 721 1399 711 1154 711 1038 c 2
 711 735 l 1
 932 884 l 2
 959 902 979 912 979 932 c 0
 979 957 954 985 954 1010 c 0
 954 1044 959 1075 981 1095 c 1
 1021 1085 1149 1067 1267 1067 c 0
 1367 1067 1413 1080 1469 1095 c 1
EndSplineSet
Validated: 1
EndChar

StartChar: l
Encoding: 76 108 76
Width: 846
Flags: HMW
VStem: 183 506
LayerCount: 2
Fore
SplineSet
684 1415 m 0
 684 1325 673 1111 673 1009 c 2
 673 587 l 2
 673 467 678 303 746 296 c 1
 792 288 833 281 833 227 c 0
 833 145 810 1 755 -27 c 1
 712 -19 586 0 436 0 c 0
 281 0 151 -19 107 -27 c 1
 52 1 29 145 29 227 c 0
 29 281 70 288 116 296 c 1
 184 303 188 443 188 547 c 2
 188 1018 l 2
 188 1102 187 1208 69 1221 c 0
 25 1226 19 1237 19 1272 c 0
 19 1353 42 1489 93 1517 c 1
 131 1501 239 1489 379 1489 c 0
 492 1489 556 1503 611 1503 c 0
 663 1503 684 1495 684 1415 c 0
EndSplineSet
Validated: 1
EndChar

StartChar: m
Encoding: 77 109 77
Width: 2258
Flags: HMW
HStem: -27 321 -16 21G<1012.5 1078 1702 1765> 0 294<120.5 539> 820 274 1047 20G<371 461.5> 1060 20G<596.5 648> 1074 20G<83.5 94 1021 1149 1661.5 1826.5>
VStem: 30 2197<186 935.5>
LayerCount: 2
Fore
SplineSet
1228 0 m 0x23
 1177 0 1108 -16 1048 -16 c 0
 977 -16 918 3 918 88 c 0x31
 918 192 921 240 921 407 c 0x83
 921 677 913 820 818 820 c 0
 715 820 686 742 686 655 c 2x23
 686 577 l 2x83
 686 439 687 310 770 294 c 1
 805 294 846 275 846 227 c 0
 846 145 823 1 768 -27 c 1
 727 -19 609 0 469 0 c 0
 314 0 184 -19 140 -27 c 1
 85 1 62 145 62 227 c 0
 62 275 103 294 138 294 c 1x23
 213 308 221 408 221 547 c 2
 221 574 l 2x29
 221 739 199 787 67 805 c 1
 35 812 30 824 30 879 c 0
 30 992 73 1094 94 1094 c 1x25
 231 1073 332 1067 410 1067 c 0
 513 1067 571 1081 622 1081 c 4
 674 1081 695 1074 695 993 c 0
 695 965 693 930 693 930 c 1
 811 1039 948 1094 1094 1094 c 0
 1204 1094 1304 1043 1360 932 c 1
 1485 1052 1587 1094 1736 1094 c 0
 1917 1094 2074 976 2074 710 c 0
 2074 662 2068 614 2068 562 c 0
 2068 450 2071 303 2140 296 c 1x83
 2180 289 2227 286 2227 227 c 0x23
 2227 145 2204 1 2149 -27 c 1
 2113 -19 2015 0 1900 0 c 0x43
 1855 0 1792 -16 1738 -16 c 0
 1666 -16 1608 3 1608 88 c 0
 1608 192 1611 240 1611 407 c 0
 1611 677 1604 820 1491 820 c 0
 1405 820 1386 706 1386 642 c 0
 1386 498 1389 303 1428 296 c 0
 1468 289 1515 286 1515 227 c 0x91
 1515 145 1495 1 1447 -27 c 1
 1414 -19 1328 0 1228 0 c 0x23
EndSplineSet
Validated: 1
EndChar

StartChar: n
Encoding: 78 110 78
Width: 1618
Flags: HMW
HStem: 48 21G 1098 20G
VStem: 62 881<186 542> 94 1415
LayerCount: 2
Fore
SplineSet
1260 0 m 0xd0
 1209 0 1140 -16 1080 -16 c 0
 1004 -16 940 3 940 88 c 0
 940 192 943 240 943 407 c 0
 943 677 933 820 838 820 c 0
 735 820 706 742 706 655 c 2
 706 577 l 2
 706 439 707 310 780 294 c 1
 815 294 856 275 856 227 c 0
 856 145 833 1 778 -27 c 1
 736 -19 614 0 469 0 c 0
 314 0 184 -19 140 -27 c 1
 85 1 62 145 62 227 c 0xe0
 62 275 103 294 138 294 c 1
 213 308 221 408 221 547 c 2
 221 574 l 2
 221 739 199 787 67 805 c 1
 35 812 30 824 30 879 c 0
 30 992 73 1094 94 1094 c 1
 231 1073 332 1067 410 1067 c 0
 523 1067 579 1081 634 1081 c 4
 686 1081 707 1074 707 993 c 0
 707 965 705 930 705 930 c 1
 808 1039 940 1094 1066 1094 c 0
 1262 1094 1434 976 1434 710 c 0
 1434 662 1428 613 1428 562 c 0
 1428 450 1431 303 1500 296 c 1
 1540 289 1587 286 1587 227 c 0
 1587 145 1564 1 1509 -27 c 1
 1473 -19 1375 0 1260 0 c 0xd0
EndSplineSet
Validated: 1
EndChar

StartChar: o
Encoding: 79 111 79
Width: 1398
Flags: HMW
HStem: -27 191<658 750.5 658 900.5> 919 176<653 751.5>
VStem: 60 1278<360.5 703.5>
LayerCount: 2
Fore
SplineSet
700 -27 m 0
 324 -27 60 168 60 530 c 0
 60 876 274 1094 688 1094 c 4
 1077 1094 1338 924 1338 544 c 0
 1338 177 1101 -27 700 -27 c 0
594 529 m 0
 594 296 613 164 703 164 c 0
 798 164 804 339 804 546 c 0
 804 681 803 919 700 919 c 0
 606 919 594 784 594 529 c 0
EndSplineSet
Validated: 1
EndChar

StartChar: p
Encoding: 80 112 80
Width: 1464
Flags: HMW
VStem: 204 484<47 553 47 722> 688 178
LayerCount: 2
Fore
SplineSet
688 91 m 1x80
 688 3 692 -118 760 -125 c 1
 806 -133 847 -140 847 -194 c 0
 847 -276 824 -420 769 -448 c 1
 726 -440 600 -421 450 -421 c 0
 295 -421 165 -440 121 -448 c 1
 66 -420 43 -276 43 -194 c 0
 43 -140 84 -133 130 -125 c 1
 198 -118 204 22 204 126 c 2
 204 553 l 2
 204 891 43 737 43 851 c 0
 43 903 58 1061 117 1095 c 5
 182 1073 324 1067 399 1067 c 0
 503 1067 558 1081 631 1081 c 0
 662 1081 662 1066 662 933 c 1
 714 1061 854 1094 976 1094 c 0
 1302 1094 1422 855 1422 575 c 0
 1422 215 1193 13 908 13 c 0
 806 13 738 41 688 91 c 1x80
680 514 m 0
 680 334 700 193 790 193 c 0
 857 193 891 305 891 538 c 0
 891 738 857 887 787 887 c 0
 683 887 680 719 680 514 c 0
EndSplineSet
Validated: 1
EndChar

StartChar: q
Encoding: 81 113 81
Width: 1431
Flags: HMW
VStem: 36 528 736 508 742 502
LayerCount: 2
Fore
SplineSet
668 193 m 0x80
 748 193 757 384 757 510 c 2
 757 542 l 2
 757 673 756 872 664 872 c 0
 583 872 571 678 571 515 c 0
 571 372 579 193 668 193 c 0x80
1022 -421 m 0
 844 -421 714 -441 650 -451 c 1
 606 -424 586 -298 586 -220 c 0
 586 -179 592 -164 636 -160 c 0
 794 -148 796 -46 796 31 c 1
 712 -8 622 -27 535 -27 c 0
 275 -27 36 193 36 560 c 0
 36 908 307 1094 598 1094 c 0
 744 1094 897 1064 1029 1002 c 1
 1114 1059 1171 1081 1228 1081 c 4
 1273 1081 1341 1067 1341 978 c 0
 1341 918 1248 838 1248 838 c 1
 1243 737 1242 346 1242 48 c 0
 1242 -35 1243 -144 1361 -157 c 0
 1405 -162 1411 -174 1411 -217 c 0
 1411 -295 1391 -421 1347 -448 c 1
 1291 -438 1180 -421 1022 -421 c 0
EndSplineSet
Validated: 1
EndChar

StartChar: r
Encoding: 82 114 82
Width: 1131
Flags: HMW
HStem: 49 21G
VStem: 210 487
LayerCount: 2
Fore
SplineSet
702 537 m 6
 702 437 706 303 785 294 c 5
 820 288 861 281 861 227 c 4
 861 145 838 1 783 -27 c 5
 740 -19 614 0 464 0 c 4
 309 0 179 -19 135 -27 c 5
 80 1 57 145 57 227 c 4
 57 281 98 288 133 294 c 5
 212 303 217 425 217 517 c 6
 217 599 l 6
 217 683 214 789 76 803 c 4
 32 807 26 821 26 863 c 4
 26 941 46 1068 90 1095 c 5
 146 1085 257 1067 415 1067 c 4
 489 1067 540 1081 578 1081 c 4
 637 1081 651 1066 651 993 c 4
 651 988 650 958 648 916 c 5
 720 1022 807 1094 914 1094 c 4
 1046 1094 1105 1010 1105 920 c 4
 1105 815 1025 700 887 700 c 5
 827 814 l 5
 777 814 716 783 702 669 c 5
 702 537 l 6
EndSplineSet
Validated: 1
EndChar

StartChar: s
Encoding: 83 115 83
Width: 1137
Flags: HMW
HStem: -27 211<478 530.5 478 708> 905 190<570 619.5>
VStem: 36 1065<200 879>
LayerCount: 2
Back
SplineSet
573 505.5 m 6
 573 605.5 569 739.5 490 748.5 c 5
 455 754.5 414 761.5 414 815.5 c 4
 414 897.5 437 1041.5 492 1069.5 c 5
 535 1061.5 661 1042.5 811 1042.5 c 4
 966 1042.5 1096 1061.5 1140 1069.5 c 5
 1195 1041.5 1218 897.5 1218 815.5 c 4
 1218 761.5 1177 754.5 1142 748.5 c 5
 1063 739.5 1058 617.5 1058 525.5 c 6
 1058 443.5 l 6
 1058 359.5 1061 253.5 1199 239.5 c 4
 1243 235.5 1249 221.5 1249 179.5 c 4
 1249 101.5 1229 -25.5 1185 -52.5 c 5
 1129.00000353 -42.7290115888 1017.99988018 -16.7361351752 860 -24.5 c 5
 786 -24.5 735 -38.5 697 -38.5 c 4
 638 -38.5 624 -23.32758621 624 49.5 c 4
 624 54.5 625 84.5 627 126.5 c 5
 555 20.09776536 468 -51.5 361 -51.5 c 4
 228.988672985 -51.5 170.059570312 32.4752209132 170.059570312 122.888671875 c 4
 170.059570312 228.317241982 250.186408999 342.5 388 342.5 c 5
 448 228.5 l 4
 497.679487179 228.5 558.576923077 259.5 573 373.5 c 5
 573 505.5 l 6
EndSplineSet
Fore
SplineSet
1101 325 m 0
 1101 75 876 -27 568 -27 c 0
 215 -27 78 84 78 185 c 0
 78 268 171 343 312 343 c 1
 390 199 l 1
 428 189 467 184 505 184 c 0
 567 184 620 212 620 249 c 0
 620 345 368 399 288 437 c 0
 135 510 36 610 36 768 c 0
 36 989 320 1094 588 1094 c 0
 888 1094 1042 972 1042 873 c 0
 1042 805 970 749 825 749 c 1
 760 872 l 1
 746 887 672 905 606 905 c 0
 548 905 497 891 497 846 c 0
 497 805 563 754 666 726 c 0
 858 674 1101 598 1101 325 c 0
EndSplineSet
Validated: 1
EndChar

StartChar: t
Encoding: 84 116 84
Width: 920
Flags: HMW
VStem: 158 485<575 872 417 872>
LayerCount: 2
Fore
SplineSet
770 188 m 0
 801 188 855 219 880 234 c 1
 911 221 917 184 917 141 c 0
 917 123 913 108 905 95 c 1
 828 8 668 -28 542 -28 c 0
 159 -28 158 246 158 575 c 2
 158 844 l 1
 106 844 l 2
 58 844 3 847 3 881 c 0
 3 959 23 1003 29 1020 c 0
 45 1066 66 1067 160 1067 c 0
 205 1067 223 1097 260 1213 c 1
 329 1390 411 1442 483 1442 c 0
 564 1442 622 1398 643 1378 c 1
 643 1118 l 2
 643 1069 643 1067 656 1067 c 2
 833 1067 l 2
 871 1067 876 1019 876 964 c 0
 876 855 831 844 735 844 c 2
 643 844 l 1
 643 528 l 2
 643 306 657 188 770 188 c 0
EndSplineSet
Validated: 1
EndChar

StartChar: u
Encoding: 85 117 85
Width: 1639
Flags: HMW
HStem: -27 21G<426 674> -27 254<426 894> -26 21G -10 21G<1003.5 1059> 0 21G<1193.5 1338.5> 1047 20G<336 461 1095.5 1225.5> 1060 20G<608 662.5 1367 1420.5> 1074 20G
VStem: 40 1560<206.5 902>
LayerCount: 2
Fore
SplineSet
967 599 m 0x0980
 967 683 966 789 828 803 c 0
 784 807 778 821 778 863 c 0
 778 941 798 1067 842 1094 c 1
 900 1084 1014 1067 1177 1067 c 0
 1274 1067 1343 1081 1391 1081 c 4
 1450 1081 1458 1066 1458 993 c 0x2280
 1458 977 1452 742 1452 591 c 0
 1452 433 1453 311 1536 290 c 0x0980
 1553 286 1600 298 1600 215 c 0
 1600 198 1587 -4 1518 -26 c 1x1180
 1457 -13 1426 0 1251 0 c 0
 1136 0 1084 -10 1034 -10 c 0
 973 -10 950 38 950 125 c 1
 872 5 751 -27 597 -27 c 0
 255 -27 210 239 210 599 c 0
 210 683 208 789 90 802 c 0x8180
 46 807 40 821 40 863 c 0
 40 941 60 1067 104 1094 c 1x0c80
 156 1084 262 1067 410 1067 c 0
 512 1067 583 1081 633 1081 c 0
 692 1081 706 1066 706 993 c 0
 706 977 695 742 695 614 c 0
 695 346 696 227 830 227 c 0x4280
 958 227 967 368 967 599 c 0x0980
EndSplineSet
Validated: 1
EndChar

StartChar: v
Encoding: 86 118 86
Width: 1299
Flags: HMW
HStem: -28 21G<543.5 642.5> 809 257 1047 20G<299.5 436.5 1056.5 1116> 1074 20G 1075 20G<1254 1270>
VStem: 2 1283<819 938 819 951.5>
LayerCount: 2
Fore
SplineSet
430 87 m 1x8c
 357 255 258 500 176 679 c 0x94
 83 881 2 750 2 868 c 0
 2 1035 11 1068 43 1094 c 1xac
 78 1089 239 1067 360 1067 c 0
 513 1067 611 1079 685 1095 c 1
 716 1085 727 1030 727 871 c 0
 727 795 635 845 635 775 c 0
 635 767 738 493 745 475 c 0
 757 442 766 418 777 418 c 0
 785 418 793 431 804 463 c 1
 833 529 930 773 930 786 c 0
 930 837 841 809 841 878 c 0x8c
 841 942 842 1081 896 1095 c 1
 958 1080 1022 1067 1091 1067 c 0xac
 1141 1067 1193 1074 1249 1094 c 0
 1251 1095 1253 1095 1255 1095 c 0x8c
 1285 1095 1285 985 1285 891 c 0xcc
 1285 747 1171 873 1120 740 c 0
 1028 498 822 -12 822 -12 c 1
 822 -25 704 -28 581 -28 c 0
 506 -28 471 -17 430 87 c 1x8c
EndSplineSet
Validated: 1
EndChar

StartChar: w
Encoding: 87 119 87
Width: 2031
Flags: HMW
HStem: -27 21G
LayerCount: 2
Fore
SplineSet
380 87 m 1
 316 258 229 507 155 688 c 0
 73 891 2 760 2 878 c 0
 2 1038 10 1070 38 1095 c 5
 74 1090 237 1067 360 1067 c 0
 513 1067 611 1079 685 1095 c 1
 716 1085 727 1030 727 871 c 0
 727 803 655 848 655 785 c 1
 656 777 740 531 745 515 c 0
 752 491 758 482 762 482 c 0
 768 482 778 515 779 515 c 2
 881 793 l 1
 847 836 824 793 824 878 c 0
 824 1038 832 1069 860 1094 c 1
 889 1089 1017 1067 1112 1067 c 0
 1270 1067 1371 1079 1447 1095 c 1
 1478 1085 1489 1030 1489 871 c 0
 1489 803 1417 848 1417 785 c 1
 1418 777 1502 531 1507 515 c 0
 1514 491 1520 482 1524 482 c 0
 1530 482 1539 515 1541 515 c 1
 1542 518 1642 773 1642 786 c 0
 1642 837 1573 809 1573 878 c 0
 1573 942 1574 1081 1628 1095 c 1
 1690 1080 1756 1067 1823 1067 c 0
 1873 1067 1925 1074 1981 1094 c 0
 1982 1095 1985 1095 1987 1095 c 0
 2017 1095 2017 985 2017 891 c 0
 2017 748 1904 872 1852 740 c 0
 1830 682 1766 519 1554 -12 c 1
 1554 -25 1431 -28 1303 -28 c 0
 1228 -28 1192 -17 1152 87 c 0
 1106 206 1051 363 996 508 c 1
 802 -12 l 1
 802 -25 669 -28 531 -28 c 0
 456 -28 421 -17 380 87 c 1
EndSplineSet
Validated: 1
EndChar

StartChar: x
Encoding: 88 120 88
Width: 1513
Flags: HMW
HStem: -28 21G<73 89> -27 21G 0 21G<269.5 354.5 1018.5 1155.5> 1047 20G<462.5 609.5 1222.5 1286.5> 1074 20G 1075 20G<1416 1432>
VStem: 58 1395<129 225>
LayerCount: 2
Fore
SplineSet
790 296 m 1x26
 670 419 l 1
 670 419 543 285 543 281 c 0x26
 543 230 642 258 642 189 c 0
 642 125 641 -14 587 -28 c 1
 498 -13 407 0 302 0 c 0
 237 0 170 -7 94 -27 c 0
 92 -28 90 -28 88 -28 c 0
 58 -28 58 82 58 176 c 0
 58 274 150 230 209 297 c 1
 266 348 385 464 500 569 c 1x8a
 433 629 368 694 341 712 c 1
 152 860 125 774 125 868 c 0x36
 125 1035 134 1068 166 1094 c 1
 206 1089 392 1067 533 1067 c 0
 670 1067 759 1079 825 1095 c 1
 856 1086 867 1036 867 891 c 0
 867 815 795 865 795 795 c 0
 795 794 798 790 802 785 c 2
 908 667 l 1
 908 667 1040 810 1040 816 c 0x26
 1040 867 961 809 961 878 c 0
 961 942 962 1081 1016 1095 c 1x36
 1087 1080 1160 1067 1241 1067 c 0
 1288 1067 1338 1074 1389 1094 c 0
 1390 1095 1393 1095 1395 1095 c 0
 1425 1095 1425 985 1425 891 c 0
 1425 793 1333 837 1274 770 c 1
 1233 729 1151 646 1067 558 c 1
 1146 484 1250 385 1284 356 c 0
 1439 223 1453 293 1453 199 c 0x46
 1453 32 1444 -1 1412 -27 c 1
 1377 -22 1216 0 1095 0 c 0x26
 942 0 844 -12 770 -28 c 1x86
 739 -18 728 37 728 196 c 0
 728 272 790 226 790 296 c 1x26
EndSplineSet
Validated: 1
EndChar

StartChar: y
Encoding: 89 121 89
Width: 1422
Flags: HMW
HStem: 1089 20G
LayerCount: 2
Fore
SplineSet
974 221 m 1
 785 -110 660 -338 434 -338 c 0
 325 -338 141 -269 141 -143 c 0
 141 -98 155 -24 206 -24 c 1
 269 -36 323 -48 371 -48 c 0
 492 -48 496 -48 612 156 c 1
 547 156 521 157 521 157 c 1
 521 157 296 546 194 717 c 0
 100 875 23 774 23 868 c 0
 23 1035 32 1068 64 1094 c 1
 99 1089 260 1067 381 1067 c 0
 524 1067 616 1079 686 1095 c 1
 717 1085 728 1030 728 871 c 0
 728 795 656 845 656 775 c 1
 657 767 779 530 788 512 c 0
 801 487 810 475 819 475 c 0
 828 475 836 487 847 512 c 0
 873 571 961 762 961 776 c 0
 961 826 862 798 862 868 c 0
 862 935 863 1080 927 1095 c 1
 1007 1080 1089 1067 1182 1067 c 0
 1235 1067 1290 1074 1350 1094 c 0
 1351 1095 1354 1095 1356 1095 c 0
 1386 1095 1386 985 1386 891 c 0
 1386 748 1300 840 1243 739 c 0
 1147 569 1060 388 974 221 c 1
EndSplineSet
Validated: 1
EndChar

StartChar: z
Encoding: 90 122 90
Width: 1163
Flags: HMW
HStem: 0 21G<405 540> 889 194
LayerCount: 2
Fore
SplineSet
153 -12 m 0
 149 -13 145 -13 141 -13 c 0
 82 -13 63 51 63 126 c 0
 63 173 80 209 118 265 c 0
 254 466 440 712 539 889 c 1
 477 889 l 2
 368 889 264 744 256 744 c 0
 111 744 90 760 90 767 c 0
 90 880 121 1016 139 1081 c 1
 245 1077 415 1067 599 1067 c 0
 738 1067 889 1071 1027 1082 c 5
 1081 1076 1090 1042 1090 976 c 0
 1090 928 1052 857 983 754 c 2
 720 361 l 2
 666 281 629 223 629 223 c 1
 712 223 l 2
 808 223 872 293 934 436 c 1
 943 436 953 437 963 437 c 0
 1027 437 1108 424 1108 346 c 0
 1108 255 1038 37 1015 -15 c 1
 785 -5 611 0 469 0 c 0
 341 0 243 -5 153 -12 c 0
EndSplineSet
Validated: 1
EndChar

StartChar: braceleft
Encoding: 91 123 91
Width: 966
Flags: HMW
HStem: 47 342
VStem: -141 512
LayerCount: 2
Fore
SplineSet
101 583 m 0
 64 583 44 634 44 685 c 0
 44 735 64 785 101 785 c 0
 223 785 223 844 223 979 c 0
 223 1422 482 1586 698 1586 c 0
 823 1586 927 1540 927 1476 c 0
 927 1383 873 1362 811 1362 c 0
 782 1362 749 1376 728 1376 c 0
 666 1376 646 1329 646 1029 c 0
 646 877 584 760 427 684 c 1
 584 607 646 490 646 339 c 0
 646 39 666 -8 728 -8 c 0
 748 -8 781 5 811 5 c 0
 873 5 927 -15 927 -108 c 0
 927 -172 824 -218 698 -218 c 0
 482 -218 223 -54 223 389 c 0
 223 524 223 583 101 583 c 0
EndSplineSet
Validated: 1
EndChar

StartChar: bar
Encoding: 92 124 92
Width: 542
Flags: HMW
HStem: 0 21 857 597 857 630
VStem: 574 630
LayerCount: 2
Fore
SplineSet
102 709 m 0x90
 102 752 93 1525 93 1568 c 0
 93 1623 152 1636 289 1636 c 0
 387 1636 446 1631 446 1585 c 0
 446 1520 441 1470 441 1089 c 0
 441 228 442 -19 442 -63 c 0
 442 -156 356 -160 269 -160 c 0
 190 -160 107 -158 107 -85 c 0
 107 59 102 395 102 709 c 0x90
EndSplineSet
Validated: 8388609
EndChar

StartChar: braceright
Encoding: 93 125 93
Width: 968
Flags: HMW
HStem: 47 342
VStem: 596 512
LayerCount: 2
Fore
SplineSet
866 583 m 0
 744 583 744 524 744 389 c 0
 744 -54 485 -218 269 -218 c 0
 143 -218 40 -172 40 -108 c 0
 40 -15 94 5 156 5 c 0
 186 5 219 -8 239 -8 c 0
 301 -8 321 39 321 339 c 0
 321 490 383 607 540 684 c 1
 383 760 321 877 321 1029 c 0
 321 1329 301 1376 239 1376 c 0
 218 1376 185 1362 156 1362 c 0
 94 1362 40 1383 40 1476 c 0
 40 1540 144 1586 269 1586 c 0
 485 1586 744 1422 744 979 c 0
 744 844 744 785 866 785 c 0
 903 785 923 735 923 685 c 0
 923 634 903 583 866 583 c 0
EndSplineSet
Validated: 1
EndChar

StartChar: asciitilde
Encoding: 94 126 94
Width: 1024
Flags: HMW
HStem: 629 403<799.5 818.5> 727 295<322.5 362 211.5 379.5>
VStem: 73 220<637 831> 73 878<789.5 831>
LayerCount: 2
Fore
SplineSet
920 1026 m 1x90
 939 966 951 906 951 851 c 0
 951 728 894 629 743 629 c 0x90
 595 629 411 727 348 727 c 0
 297 727 293 680 293 637 c 1
 289 627 246 622 204 622 c 0
 147 622 90 627 88 637 c 0
 79 678 73 722 73 765 c 0
 73 897 127 1022 296 1022 c 0x60
 428 1022 609 927 667 927 c 0
 698 927 726 941 726 1024 c 0
 726 1025 776 1032 823 1032 c 0
 859 1032 895 1030 920 1026 c 1x90
EndSplineSet
Validated: 1
EndChar

StartChar: exclamdown
Encoding: 96 161 95
Width: 657
Flags: HMW
HStem: 1008 441 1051 20G<242.5 418.5>
VStem: 101 543
LayerCount: 2
Fore
SplineSet
340 1516 m 0xa0
 424 1516 579 1482 579 1350 c 0
 579 1276 542 1171 333 1171 c 0
 164 1171 78 1228 78 1347 c 0
 78 1488 261 1516 340 1516 c 0xa0
331 1071 m 0
 506 1071 454 1055 477 895 c 0
 516 615 618 96 618 49 c 0
 618 -8 589 -29 528 -29 c 2
 132 -29 l 2
 71 -29 42 -8 42 49 c 0
 42 96 143 615 183 895 c 0
 205 1055 154 1071 331 1071 c 0
EndSplineSet
Validated: 1
EndChar

StartChar: cent
Encoding: 97 162 96
Width: 1181
Flags: HMW
HStem: 47 342
VStem: 27 512
LayerCount: 2
Back
SplineSet
705 599 m 6
 705 499 709 365 788 356 c 5
 823 350 864 343 864 289 c 4
 864 207 841 63 786 35 c 5
 743 43 617 62 467 62 c 4
 312 62 182 43 138 35 c 5
 83 63 60 207 60 289 c 4
 60 343 101 350 136 356 c 5
 215 365 220 487 220 579 c 6
 220 661 l 6
 220 745 217 851 79 865 c 4
 35 869 29 883 29 925 c 4
 29 1003 49 1130 93 1157 c 5
 149 1147 260 1129 418 1129 c 4
 492 1129 543 1143 581 1143 c 4
 640 1143 654 1128 654 1055 c 4
 654 1050 653 1020 651 978 c 5
 723 1084 810 1156 917 1156 c 4
 1049 1156 1108 1072 1108 982 c 4
 1108 877 1028 762 890 762 c 5
 830 876 l 5
 780 876 719 845 705 731 c 5
 705 599 l 6
EndSplineSet
Fore
SplineSet
1112 480 m 1
 1143 430 l 1
 1143 255 1061 129 870 83 c 1
 870 -261 l 1
 863 -293 879 -304 783 -304 c 0
 759 -304 741 -298 741 -262 c 0
 741 -184 739 -67 738 64 c 1
 720 63 702 63 683 63 c 2
 650 63 l 1
 650 -261 l 1
 643 -293 659 -304 563 -304 c 0
 539 -304 521 -298 521 -262 c 0
 521 -181 519 -59 518 79 c 1
 213 140 61 373 61 609 c 0
 61 868 213 1110 526 1170 c 1
 525 1306 523 1470 521 1483 c 1
 521 1502 545 1516 600 1516 c 0
 634 1516 653 1510 658 1495 c 1
 657 1482 650 1406 650 1350 c 2
 650 1184 l 1
 660 1185 671 1185 682 1185 c 0
 704 1185 725 1184 746 1183 c 1
 745 1315 743 1470 741 1483 c 1
 741 1502 765 1516 820 1516 c 0
 854 1516 873 1510 878 1495 c 1
 877 1482 870 1406 870 1350 c 2
 870 1167 l 1
 1033 1136 1106 1037 1106 945 c 0
 1106 850 1028 762 889 762 c 1
 788 970 l 1
 788 970 765 983 716 983 c 0
 593 983 544 852 544 719 c 0
 544 508 665 397 809 397 c 0
 905 397 1016 424 1112 480 c 1
EndSplineSet
Validated: 1
EndChar

StartChar: sterling
Encoding: 98 163 97
Width: 1517
Flags: HMW
HStem: 17 20G 42 21G 1064 21G 1066 345
VStem: 32 20
LayerCount: 2
Fore
SplineSet
236 841 m 2xc8
 257 841 l 1
 257 964 l 2
 257 1324 470 1516 786 1516 c 0
 900 1516 977 1474 1042 1430 c 1
 1043 1432 1044 1434 1044 1436 c 0
 1059 1490 1061 1501 1180 1501 c 0
 1228 1501 1297 1493 1297 1493 c 1
 1297 1493 1389 1261 1389 1107 c 0
 1389 1051 1258 1024 1183 1024 c 0
 1095 1024 1095 1285 889 1285 c 0
 773 1285 741 1224 741 1137 c 0
 741 1051 814 938 821 842 c 1
 911 842 l 2
 965 842 1041 844 1054 845 c 1
 1080 835 1090 808 1090 760 c 0
 1090 694 1067 665 1035 665 c 1
 1024 669 857 671 822 671 c 1
 822 420 l 2
 822 319 830 204 854 204 c 0
 1189 204 1124 522 1272 590 c 0
 1281 595 1295 597 1311 597 c 0
 1381 597 1484 557 1484 506 c 1
 1469 401 1380 129 1330 14 c 0
 1320 -9 1300 -28 1265 -28 c 0
 1250 -28 994 0 579 0 c 0
 366 0 191 -19 136 -27 c 1
 81 1 58 145 58 227 c 0
 58 281 99 288 134 294 c 1
 244 302 257 412 257 515 c 2
 257 671 l 1
 257 671 119 667 112 663 c 1
 80 663 57 692 57 758 c 0
 57 806 67 833 93 843 c 1
 106 842 182 841 236 841 c 2xc8
EndSplineSet
Validated: 8388609
EndChar

StartChar: yen
Encoding: 100 165 98
Width: 1748
Flags: HMW
HStem: -27 21G 0 21G<771.5 966.5> 428 177<335 481.5> 436 171<1156 1175 1156 1156> 710 177<305 476> 718 171<1149 1308 1149 1308> 1208 294 1483 20G<73 88 876 886 1633 1680.5> 1484 20G
VStem: 46 1649<1223 1349 1223 1373.5>
LayerCount: 2
Fore
SplineSet
475 605 m 0x68c0
 488 605 535 606 589 606 c 1
 589 716 l 1
 466 715 328 713 321 710 c 1
 289 710 266 739 266 805 c 0
 266 853 276 880 302 890 c 1
 315 889 391 887 445 887 c 2
 476 887 l 1
 452 920 l 1
 380 1016 286 1142 163 1176 c 0
 91 1196 46 1174 46 1335 c 2
 46 1349 l 2
 46 1398 58 1503 88 1503 c 1
 260 1481 391 1475 506 1475 c 0x6940
 644 1475 750 1489 876 1503 c 1
 896 1503 928 1327 928 1259 c 0
 928 1208 847 1234 847 1192 c 0
 847 1181 850 1167 865 1144 c 0
 889 1106 980 966 980 966 c 1
 980 966 1103 1149 1122 1178 c 0
 1128 1187 1130 1194 1130 1200 c 0
 1130 1225 1051 1222 1051 1272 c 2
 1051 1287 l 2x68c0
 1051 1347 1053 1485 1096 1504 c 1
 1198 1482 1280 1475 1361 1475 c 0
 1445 1475 1599 1503 1667 1503 c 0
 1694 1503 1695 1401 1695 1329 c 2
 1695 1295 l 2
 1695 1151 1541 1274 1430 1122 c 0
 1359 1024 1302 949 1258 889 c 1
 1308 889 l 2
 1362 889 1438 891 1451 892 c 1
 1477 882 1487 855 1487 807 c 0
 1487 741 1464 712 1432 712 c 1
 1420 717 1205 718 1205 718 c 1
 1149 718 l 1
 1149 607 l 1
 1278 607 l 2
 1332 607 1408 609 1421 610 c 1
 1447 600 1457 573 1457 525 c 0
 1457 459 1434 430 1402 430 c 1
 1391 435 1175 436 1175 436 c 1
 1156 436 l 1
 1166 357 1187 299 1232 294 c 1
 1267 288 1308 281 1308 227 c 0x9640
 1308 145 1285 1 1230 -27 c 1
 1178 -17 1064 0 869 0 c 0x68c0
 674 0 560 -17 508 -27 c 1xa8c0
 453 1 430 145 430 227 c 0
 430 281 471 288 506 294 c 1
 550 299 572 356 581 434 c 1
 473 432 358 430 351 428 c 1
 319 428 296 457 296 523 c 0
 296 571 306 598 332 608 c 1
 345 607 421 605 475 605 c 0x68c0
EndSplineSet
Validated: 1
EndChar

StartChar: section
Encoding: 102 167 99
Width: 1197
Flags: HMW
HStem: -155 211<511 563.5 511 775.5> 1197 190<603 652.5>
VStem: 69 1065<567 667.5>
LayerCount: 2
Fore
SplineSet
452 588 m 1
 626 527 777 471 806 470 c 0
 817 470 827 492 827 520 c 0
 827 560 811 606 763 625 c 0
 588 693 437 761 408 761 c 0
 397 761 387 738 387 711 c 0
 387 663 403 608 452 588 c 1
1061 374 m 1
 1106 313 1131 244 1131 177 c 0
 1131 6 970 -155 581 -155 c 0
 327 -155 70 -41 70 141 c 0
 70 165 76 225 203 225 c 0
 253 225 284 226 301 226 c 0
 394 226 411 188 432 123 c 1
 442 77 487 56 535 56 c 0
 592 56 653 80 653 121 c 0
 653 204 467 260 362 292 c 0
 134 362 69 460 69 620 c 0
 69 715 105 791 164 853 c 1
 107 920 81 988 81 1052 c 0
 81 1237 298 1387 621 1387 c 0
 943 1387 1087 1294 1087 1124 c 0
 1087 1100 1077 1042 954 1042 c 0
 909 1042 881 1041 866 1041 c 0
 773 1041 756 1095 734 1157 c 0
 725 1183 678 1197 627 1197 c 0
 579 1197 530 1178 530 1138 c 0
 530 1097 596 1046 699 1018 c 0
 891 966 1134 890 1134 617 c 0
 1134 517 1107 438 1061 374 c 1
EndSplineSet
Validated: 1
EndChar

StartChar: currency
Encoding: 99 164 100
Width: 1053
Flags: HMW
HStem: 685 0<524 524> 1448 68
LayerCount: 2
Fore
SplineSet
524 685 m 0
 446 685 380 703 328 735 c 1
 255 660 l 1
 255 660 177 578 175 572 c 1
 168 565 159 561 149 561 c 0
 120 561 56 614 56 651 c 0
 56 663 92 694 144 747 c 2
 225 829 l 1
 183 889 163 962 163 1034 c 0
 163 1108 184 1183 228 1244 c 1
 205 1268 l 1
 205 1268 79 1392 69 1396 c 1
 61 1403 58 1412 58 1422 c 0
 58 1451 112 1515 147 1515 c 0
 162 1515 189 1482 244 1427 c 2
 334 1337 l 1
 384 1366 448 1384 524 1384 c 0
 600 1384 665 1366 716 1338 c 1
 806 1427 l 2
 860 1480 887 1515 902 1515 c 0
 937 1515 991 1452 991 1422 c 0
 991 1412 989 1403 980 1396 c 1
 971 1392 845 1268 845 1268 c 1
 823 1246 l 1
 870 1184 893 1109 893 1034 c 0
 893 961 871 887 826 826 c 1
 906 747 l 2
 958 695 994 662 994 651 c 0
 994 614 929 561 901 561 c 0
 891 561 882 565 875 572 c 1
 873 578 795 660 795 660 c 1
 722 734 l 1
 669 703 603 685 524 685 c 0
742 1034 m 0
 742 1189 631 1266 524 1266 c 0
 415 1266 310 1188 310 1034 c 0
 310 879 416 804 524 804 c 0
 634 804 742 882 742 1034 c 0
EndSplineSet
Validated: 1
EndChar

StartChar: quotesingle
Encoding: 7 39 101
Width: 612
Flags: HMW
HStem: 1545 20G 1555 20G<236 378>
VStem: 63 495<1257 1403.5 1256.5 1415> 73 481
LayerCount: 2
Fore
SplineSet
113 978 m 0x90
 113 1022 228 1085 228 1145 c 0
 228 1181 63 1167 63 1347 c 0xa0
 63 1483 163 1575 309 1575 c 0x50
 447 1575 558 1470 558 1337 c 0xa0
 558 1176 380 923 195 923 c 0
 142 923 113 953 113 978 c 0x90
EndSplineSet
Validated: 1
EndChar

StartChar: quotedblleft
Encoding: 311 8220 102
Width: 1183
Flags: HMW
HStem: 1545 20G
VStem: 111 477 624 479
LayerCount: 2
Fore
SplineSet
1067 1520 m 0
 1067 1476 952 1413 952 1353 c 0
 952 1317 1117 1331 1117 1151 c 0
 1117 1015 1017 923 871 923 c 0
 733 923 622 1028 622 1161 c 0
 622 1322 800 1575 985 1575 c 0
 1038 1575 1067 1545 1067 1520 c 0
518 1520 m 0
 518 1476 403 1413 403 1353 c 0
 403 1317 568 1331 568 1151 c 0
 568 1015 468 923 322 923 c 0
 184 923 73 1028 73 1161 c 0
 73 1322 251 1575 436 1575 c 0
 489 1575 518 1545 518 1520 c 0
EndSplineSet
Validated: 1
EndChar

StartChar: guillemotleft
Encoding: 106 171 103
Width: 1440
Flags: HMW
HStem: -1 21G<566 591.5 1202 1227.5> 1049 20G<567.5 590.5 1203.5 1226.5> 1061 8
VStem: 730 13 740 13 1366 13 1376 13
LayerCount: 2
Fore
SplineSet
689 534 m 0xb2
 689 624 1188 1061 1188 1061 c 2xb4
 1193 1065 1199 1069 1208 1069 c 0
 1245 1069 1379 928 1379 865 c 0
 1379 854 1375 845 1366 836 c 2xd4
 1366 836 1126 612 1058 534 c 1
 1128 456 1376 232 1376 232 c 2
 1385 223 1389 214 1389 203 c 0
 1389 140 1247 -1 1208 -1 c 0
 1196 -1 1191 4 1187 7 c 2
 1187 7 689 445 689 534 c 0xb2
53 534 m 0
 54 624 551 1061 552 1061 c 0
 557 1065 563 1069 572 1069 c 0
 609 1069 743 928 743 865 c 0
 743 854 739 845 730 836 c 2xd4
 730 836 490 612 422 534 c 1
 492 456 740 232 740 232 c 2
 749 223 753 214 753 203 c 0xcc
 753 140 611 -1 572 -1 c 0
 560 -1 555 4 551 7 c 2
 551 7 53 445 53 534 c 0
EndSplineSet
Validated: 1
EndChar

StartChar: guilsinglleft
Encoding: 315 8249 104
Width: 848
Flags: HMW
HStem: -1 21G<590 618.5> 1049 20G<590 617.5> 1061 8
VStem: 784 13 794 13
LayerCount: 2
Fore
SplineSet
37 534 m 0xa8
 37 623 575 1061 575 1061 c 2xb0
 579 1064 584 1069 596 1069 c 0
 639 1069 797 907 797 835 c 0
 797 824 793 815 784 806 c 2xd0
 784 806 536 603 466 534 c 1
 538 465 794 262 794 262 c 1
 803 253 807 244 807 233 c 0
 807 161 641 -1 596 -1 c 0
 584 -1 579 4 575 7 c 2
 575 7 37 445 37 534 c 0xa8
EndSplineSet
Validated: 1
EndChar

StartChar: guilsinglright
Encoding: 316 8250 105
Width: 853
Flags: HMW
HStem: -1 21G<236.5 265> 1049 20G<237.5 265> 1061 8
VStem: 48 770<197 578.5>
LayerCount: 2
Fore
SplineSet
818 534 m 0xd0
 818 445 280 7 280 7 c 2
 276 4 271 -1 259 -1 c 0
 214 -1 48 161 48 233 c 0
 48 244 52 253 61 262 c 1
 61 262 317 465 389 534 c 1
 319 603 71 806 71 806 c 2
 62 815 58 824 58 835 c 0
 58 907 216 1069 259 1069 c 0
 271 1069 276 1064 280 1061 c 2xb0
 280 1061 818 623 818 534 c 0xd0
EndSplineSet
Validated: 1
EndChar

StartChar: endash
Encoding: 306 8211 106
Width: 1168
Flags: HMW
HStem: 559 171<293 924>
VStem: 93 983<615 670>
LayerCount: 2
Fore
SplineSet
272 729 m 1
 324 730 890 730 897 730 c 0
 951 730 1027 732 1040 733 c 1
 1066 723 1076 696 1076 648 c 0
 1076 582 1053 553 1021 553 c 1
 1009 558 794 559 794 559 c 1
 293 559 l 1
 293 559 155 555 148 551 c 1
 116 551 93 580 93 646 c 0
 93 694 103 721 129 731 c 1
 142 730 218 729 272 729 c 1
EndSplineSet
Validated: 1
EndChar

StartChar: periodcentered
Encoding: 118 183 107
Width: 612
Flags: HMW
HStem: 658 438<225.5 394>
VStem: 67 478<823 931 823 933>
LayerCount: 2
Fore
SplineSet
67 877 m 0
 67 989 141 1096 310 1096 c 0
 478 1096 545 985 545 877 c 0
 545 769 478 658 310 658 c 0
 141 658 67 765 67 877 c 0
EndSplineSet
Validated: 1
EndChar

StartChar: paragraph
Encoding: 117 182 108
Width: 1581
Flags: HMW
HStem: 42 21G
VStem: -147 630 538 321
LayerCount: 2
Fore
SplineSet
1168 1489 m 0
 1252 1489 1433 1499 1474 1501 c 0
 1485 1501 1532 1425 1532 1262 c 0
 1532 1158 1336 1289 1336 1057 c 2
 1336 652 l 2
 1336 162 1344 122 1368 116 c 1
 1424 106 1495 107 1495 47 c 0
 1495 -35 1472 -179 1417 -207 c 1
 1383 -202 1293 -190 1188 -190 c 0
 1112 -190 1039 -187 1014 -187 c 0
 1001 -187 1005 180 1005 652 c 2
 1005 1197 l 2
 1005 1202 947 1202 911 1202 c 0
 892 1202 858 1202 859 1197 c 1
 859 652 l 2
 859 261 862 26 862 -113 c 0
 862 -150 860 -192 836 -192 c 0
 801 -192 732 -190 655 -190 c 0
 565 -190 486 -202 456 -207 c 1
 401 -179 378 -35 378 47 c 0
 378 107 449 106 505 116 c 1
 536 123 536 166 538 722 c 1
 175 722 41 862 41 1116 c 0
 41 1310 193 1501 607 1501 c 0
 667 1501 728 1489 1168 1489 c 0
EndSplineSet
Validated: 33
EndChar

StartChar: bullet
Encoding: 314 8226 109
Width: 939
Flags: HMW
HStem: -29 228 1283 232
LayerCount: 2
Fore
SplineSet
472 300 m 0
 196 300 52 496 52 690 c 0
 52 879 190 1067 475 1067 c 0
 754 1067 887 882 887 693 c 0
 887 498 744 300 472 300 c 0
EndSplineSet
Validated: 1
EndChar

StartChar: quotesinglbase
Encoding: 310 8218 110
Width: 671
Flags: HMW
HStem: 1545 20G
VStem: 51 477 564 479
LayerCount: 2
Fore
SplineSet
142 -188 m 0
 142 -144 257 -81 257 -21 c 0
 257 15 92 1 92 181 c 0
 92 317 192 409 338 409 c 0
 476 409 587 304 587 171 c 0
 587 10 409 -243 224 -243 c 0
 170 -243 142 -213 142 -188 c 0
EndSplineSet
Validated: 1
EndChar

StartChar: quotedblbase
Encoding: 313 8222 111
Width: 1220
Flags: HMW
HStem: 1545 20G
VStem: 51 477 564 479
LayerCount: 2
Fore
SplineSet
142 -188 m 0
 142 -144 257 -81 257 -21 c 0
 257 15 92 1 92 181 c 0
 92 317 192 409 338 409 c 0
 476 409 587 304 587 171 c 0
 587 10 409 -243 224 -243 c 0
 170 -243 142 -213 142 -188 c 0
691 -188 m 0
 691 -144 806 -81 806 -21 c 0
 806 15 641 1 641 181 c 0
 641 317 741 409 887 409 c 0
 1025 409 1136 304 1136 171 c 0
 1136 10 958 -243 773 -243 c 0
 719 -243 691 -213 691 -188 c 0
EndSplineSet
Validated: 1
EndChar

StartChar: quotedblright
Encoding: 312 8221 112
Width: 1186
Flags: HMW
HStem: 1545 20G
VStem: 110 477 623 479
LayerCount: 2
Fore
SplineSet
122 978 m 0
 122 1022 237 1085 237 1145 c 0
 237 1181 72 1167 72 1347 c 0
 72 1483 172 1575 318 1575 c 0
 456 1575 567 1470 567 1337 c 0
 567 1176 389 923 204 923 c 0
 151 923 122 953 122 978 c 0
671 978 m 0
 671 1022 786 1085 786 1145 c 0
 786 1181 621 1167 621 1347 c 0
 621 1483 721 1575 867 1575 c 0
 1005 1575 1116 1470 1116 1337 c 0
 1116 1176 938 923 753 923 c 0
 700 923 671 953 671 978 c 0
EndSplineSet
Validated: 1
EndChar

StartChar: guillemotright
Encoding: 122 187 113
Width: 1442
Flags: HMW
HStem: -1 21G<218.5 244 854.5 880> 1049 20G<219.5 242.5 855.5 878.5> 1061 8
VStem: 57 1336<171.5 534>
LayerCount: 2
Fore
SplineSet
1393 534 m 0xd0
 1393 445 895 7 895 7 c 2
 891 4 886 -1 874 -1 c 0
 835 -1 693 140 693 203 c 0
 693 214 697 223 706 232 c 2
 706 232 954 456 1024 534 c 1
 956 612 716 836 716 836 c 2
 707 845 703 854 703 865 c 0
 703 928 837 1069 874 1069 c 0
 883 1069 889 1065 894 1061 c 0
 895 1061 1392 624 1393 534 c 0xd0
757 534 m 0
 757 445 259 7 259 7 c 2
 255 4 250 -1 238 -1 c 0
 199 -1 57 140 57 203 c 0
 57 214 61 223 70 232 c 2
 70 232 318 456 388 534 c 1
 320 612 80 836 80 836 c 2
 71 845 67 854 67 865 c 0
 67 928 201 1069 238 1069 c 0
 247 1069 253 1065 258 1061 c 2xb0
 258 1061 757 624 757 534 c 0
EndSplineSet
Validated: 1
EndChar

StartChar: questiondown
Encoding: 126 191 114
Width: 1313
Flags: HMW
HStem: -26 194<455.5 827.5> -19 21G<1057.5 1118> 1104 438<660 828.5>
VStem: 42 1236<254 312.5 254 453.5>
LayerCount: 2
Fore
SplineSet
1278 254 m 1x70
 1276 81 1195 2 1118 -19 c 1x70
 997 -19 971 45 941 45 c 1
 850 16 788 -26 618 -26 c 0
 293 -26 42 80 42 334 c 0
 42 573 479 632 479 739 c 0
 479 789 444 852 444 900 c 0
 444 969 546 981 632 981 c 0
 676 981 716 978 736 978 c 0
 861 978 982 877 982 760 c 0
 982 706 958 680 899 655 c 0
 814 620 640 545 640 382 c 0
 640 268 701 168 790 168 c 0xb0
 865 168 944 219 987 271 c 1
 1017 329 1096 397 1167 397 c 0
 1219 397 1278 371 1278 254 c 1x70
987 1323 m 0
 987 1211 913 1104 744 1104 c 0
 576 1104 509 1215 509 1323 c 0
 509 1431 576 1542 744 1542 c 0
 913 1542 987 1435 987 1323 c 0
EndSplineSet
Validated: 1
EndChar

StartChar: grave
Encoding: 64 96 115
Width: 1334
Flags: HMW
HStem: 1149 476<486.5 947 486.5 796>
VStem: 387 560<1149 1585>
LayerCount: 2
Fore
SplineSet
947 1149 m 1
 796 1149 l 1
 692 1238 529 1401 495 1438 c 0
 436 1501 387 1534 387 1564 c 0
 387 1606 429 1625 544 1625 c 0
 651 1625 690 1605 735 1532 c 0
 782 1456 898 1233 947 1149 c 1
EndSplineSet
Validated: 1
EndChar

StartChar: acute
Encoding: 115 180 116
Width: 671
Flags: HMW
HStem: 1149 476<50.5 527.5 50.5 527.5>
VStem: 50 570<1149 1585>
LayerCount: 2
Fore
SplineSet
50 1149 m 1
 107 1233 252 1453 302 1532 c 0
 346 1602 379 1625 474 1625 c 0
 582 1625 620 1606 620 1564 c 0
 620 1534 566 1501 502 1438 c 0
 464 1401 278 1238 162 1149 c 1
 50 1149 l 1
EndSplineSet
Validated: 1
EndChar

StartChar: circumflex
Encoding: 293 710 117
Width: 1057
Flags: HMW
HStem: 1149 476<169.5 602 452 884.5>
VStem: 83 888<1189 1225>
LayerCount: 2
Fore
SplineSet
452 1625 m 1
 602 1625 l 1
 699 1536 852 1374 883 1336 c 0
 933 1275 971 1240 971 1210 c 0
 971 1168 935 1149 834 1149 c 0
 750 1149 725 1174 678 1222 c 1
 527 1413 l 1
 376 1222 l 1
 329 1174 304 1149 220 1149 c 0
 119 1149 83 1168 83 1210 c 0
 83 1240 121 1275 171 1336 c 0
 202 1374 355 1536 452 1625 c 1
EndSplineSet
Validated: 1
EndChar

StartChar: tilde
Encoding: 299 732 118
Width: 1067
Flags: HMW
HStem: 1163 400<232.5 266> 1170 403<808 839.5>
VStem: 94 878<1330.5 1372>
LayerCount: 2
Fore
SplineSet
941 1535 m 1x60
 960 1486 972 1437 972 1392 c 0
 972 1269 915 1170 764 1170 c 0x60
 621 1170 439 1292 379 1292 c 0
 339 1292 333 1268 333 1242 c 0
 333 1224 334 1178 334 1178 c 1
 331 1168 283 1163 235 1163 c 0
 173 1163 111 1168 109 1178 c 0
 100 1219 94 1263 94 1306 c 0
 94 1422 148 1531 317 1531 c 0xa0
 445 1531 626 1420 681 1420 c 0
 707 1420 730 1434 730 1464 c 2
 730 1533 l 2
 730 1534 788 1541 844 1541 c 0
 880 1541 916 1539 941 1535 c 1x60
EndSplineSet
Validated: 1
EndChar

StartChar: macron
Encoding: 110 175 119
Width: 915
Flags: HMW
HStem: 699 21G 701 345
LayerCount: 2
Fore
SplineSet
120 1207 m 0x00
 88 1207 82 1274 82 1339 c 0
 82 1424 93 1489 128 1489 c 0
 253 1489 390 1486 549 1486 c 2
 785 1486 l 2
 818 1486 833 1459 833 1351 c 0
 833 1286 826 1206 786 1206 c 0
 653 1206 491 1205 357 1205 c 0
 276 1205 196 1207 120 1207 c 0x00
EndSplineSet
Validated: 8388609
EndChar

StartChar: breve
Encoding: 295 728 120
Width: 974
Flags: HMW
HStem: 1184 190<440.5 525.5 440.5 590> 1184 331<376 377 83 590>
VStem: 83 806<1515 1515>
LayerCount: 2
Fore
SplineSet
483 1184 m 0x60
 269 1184 103 1300 83 1515 c 1x60
 377 1515 l 1
 379 1423 398 1374 483 1374 c 0xa0
 568 1374 593 1423 595 1515 c 1
 889 1515 l 1
 869 1300 697 1184 483 1184 c 0x60
EndSplineSet
Validated: 1
EndChar

StartChar: dotaccent
Encoding: 296 729 121
Width: 657
Flags: HMW
HStem: 1199 438<246.5 415>
VStem: 88 478<1364 1472 1364 1474>
LayerCount: 2
Fore
SplineSet
88 1418 m 0
 88 1530 162 1637 331 1637 c 0
 499 1637 566 1526 566 1418 c 0
 566 1310 499 1199 331 1199 c 0
 162 1199 88 1306 88 1418 c 0
EndSplineSet
Validated: 1
EndChar

StartChar: dieresis
Encoding: 103 168 122
Width: 1066
Flags: HMW
HStem: 1148 367<208.5 350.5 721.5 863.5>
VStem: 75 916<1286.5 1377.5 1286.5 1379>
LayerCount: 2
Fore
SplineSet
75 1332 m 0
 75 1426 137 1515 280 1515 c 0
 421 1515 478 1423 478 1332 c 0
 478 1241 421 1148 280 1148 c 0
 137 1148 75 1238 75 1332 c 0
588 1332 m 0
 588 1426 650 1515 793 1515 c 0
 934 1515 991 1423 991 1332 c 0
 991 1241 934 1148 793 1148 c 0
 650 1148 588 1238 588 1332 c 0
EndSplineSet
Validated: 1
EndChar

StartChar: ring
Encoding: 297 730 123
Width: 679
Flags: HMW
HStem: 1186 225 1448 68
LayerCount: 2
Fore
SplineSet
340 1186 m 0
 209 1186 88 1267 88 1412 c 0
 88 1552 195 1636 342 1636 c 0
 490 1636 588 1541 588 1415 c 0
 588 1282 478 1186 340 1186 c 0
191 1411 m 0
 191 1306 263 1254 336 1254 c 0
 409 1254 482 1307 482 1412 c 0
 482 1515 409 1566 337 1566 c 0
 264 1566 191 1514 191 1411 c 0
EndSplineSet
Validated: 1
EndChar

StartChar: cedilla
Encoding: 119 184 124
Width: 542
Flags: HMW
HStem: -493 170<178.5 223.5 174.5 293> -164 175<164.5 210.5>
VStem: 120 104<-65 11 -65 11 -65 11> 288 188<-268.5 -242.5 -341 -229>
LayerCount: 2
Fore
SplineSet
66 -480 m 1
 98 -308 l 1
 124 -316 158 -323 190 -323 c 0
 256 -323 288 -287 288 -250 c 0
 288 -208 248 -164 172 -164 c 0
 156 -164 139 -166 120 -170 c 1
 120 11 l 1
 224 11 l 1
 224 -65 l 1
 419 -71 476 -198 476 -287 c 0
 476 -395 387 -493 200 -493 c 0
 158 -493 113 -489 66 -480 c 1
EndSplineSet
Validated: 1
EndChar

StartChar: hungarumlaut
Encoding: 300 733 125
Width: 1179
Flags: HMW
HStem: 1149 476<77 554 77 554 534 554 452.5 645 534 534>
VStem: 77 1027<1149 1585>
LayerCount: 2
Fore
SplineSet
645 1149 m 1
 534 1149 l 1
 591 1233 736 1453 786 1532 c 0
 830 1602 862 1625 957 1625 c 0
 1065 1625 1104 1606 1104 1564 c 0
 1104 1534 1050 1501 986 1438 c 0
 948 1401 761 1238 645 1149 c 1
188 1149 m 1
 77 1149 l 1
 134 1233 279 1453 329 1532 c 0
 373 1602 405 1625 500 1625 c 0
 608 1625 647 1606 647 1564 c 0
 647 1534 593 1501 529 1438 c 0
 491 1401 304 1238 188 1149 c 1
EndSplineSet
Validated: 1
EndChar

StartChar: ogonek
Encoding: 298 731 126
Width: 635
Flags: HMW
HStem: -420 431 1350 140
LayerCount: 2
Fore
SplineSet
476 -239 m 1
 540 -402 l 1
 461 -433 385 -449 320 -449 c 0
 187 -449 94 -385 94 -254 c 0
 94 -136 201 14 407 100 c 1
 407 0 l 1
 326 -42 279 -129 279 -191 c 0
 279 -254 313 -274 356 -274 c 0
 396 -274 444 -256 476 -239 c 1
EndSplineSet
Validated: 1
EndChar

StartChar: caron
Encoding: 294 711 127
Width: 1040
Flags: HMW
HStem: 1149 476<162.5 595 162.5 445>
VStem: 76 888<1549 1585>
LayerCount: 2
Fore
SplineSet
595 1149 m 1
 445 1149 l 1
 348 1238 195 1400 164 1438 c 0
 114 1499 76 1534 76 1564 c 0
 76 1606 112 1625 213 1625 c 0
 297 1625 322 1600 369 1552 c 1
 520 1361 l 1
 671 1552 l 1
 718 1600 743 1625 827 1625 c 0
 928 1625 964 1606 964 1564 c 0
 964 1534 926 1499 876 1438 c 0
 845 1400 692 1238 595 1149 c 1
EndSplineSet
Validated: 1
EndChar

StartChar: emdash
Encoding: 307 8212 128
Width: 1714
Flags: HMW
HStem: 559 171<293 1470>
VStem: 93 1529<615 670>
LayerCount: 2
Fore
SplineSet
272 729 m 1
 324 730 1436 730 1443 730 c 0
 1497 730 1573 732 1586 733 c 1
 1612 723 1622 696 1622 648 c 0
 1622 582 1599 553 1567 553 c 1
 1555 558 1340 559 1340 559 c 1
 293 559 l 1
 293 559 155 555 148 551 c 1
 116 551 93 580 93 646 c 0
 93 694 103 721 129 731 c 1
 142 730 218 729 272 729 c 1
EndSplineSet
Validated: 1
EndChar

StartChar: AE
Encoding: 133 198 129
Width: 2401
Flags: HMW
HStem: 604 0<1499.68 1499.68>
VStem: 2025 600 2784 255
LayerCount: 2
Fore
SplineSet
1126 705 m 1
 1120 807 1114 904 1108 1003 c 1
 1099 1082 1095 1125 1091 1125 c 0
 1077 1125 1060 1098 1027 1042 c 1
 807 705 l 1
 1126 705 l 1
1285 1487 m 1
 1347 1488 1410 1489 1473 1489 c 0
 1674 1489 1876 1493 2062 1503 c 1
 2119 1430 2217 1241 2217 1137 c 0
 2217 1056 2104 1033 2051 1033 c 0
 2024 1033 1872 1276 1682 1276 c 0
 1646 1276 1605 1272 1605 1155 c 0
 1605 1124 1607 1086 1614 1037 c 2
 1644 819 l 1
 1713 908 1792 968 1895 968 c 0
 2027 968 2098 872 2098 782 c 0
 2098 672 2021 593 1938 593 c 1
 1888 646 1812 690 1743 690 c 0
 1715 690 1688 676 1667 641 c 1
 1703 378 l 1
 1703 288 1713 194 1770 194 c 2
 1858 194 l 1
 1990 224 2061 383 2132 582 c 1
 2140 585 2150 586 2161 586 c 0
 2227 586 2341 550 2367 507 c 1
 2375 499 2377 487 2377 473 c 0
 2377 404 2359 233 2344 127 c 1
 2337 93 2318 20 2300 -11 c 1
 2088 -4 1928 -2 1794 -2 c 0
 1516 -2 1352 -12 1066 -13 c 1
 1000 15 973 165 973 247 c 0
 973 301 1013 307 1054 312 c 1
 1110 321 1105 433 1117 535 c 1
 976 535 835 535 694 535 c 1
 658 482 622 437 622 394 c 0
 622 262 746 316 746 251 c 0
 746 131 703 21 578 -13 c 1
 541 -8 436 0 313 0 c 0
 186 0 79 -8 40 -13 c 1
 40 196 l 2
 40 365 264 236 353 422 c 1
 780 1063 l 1
 813 1105 831 1134 831 1155 c 0
 831 1239 778 1165 778 1270 c 0
 778 1413 856 1491 912 1503 c 1
 1008 1494 1149 1487 1285 1487 c 1
EndSplineSet
Validated: 1
EndChar

StartChar: ordfeminine
Encoding: 105 170 130
Width: 907
Flags: HMW
HStem: 813 150<185.5 399> 1170 84<378 380.5 271.5 422.5> 1386 130<389.5 409>
VStem: 49 283<1052.5 1107 1052.5 1124> 49 809<969.5 990.5 958.5 1124> 448 323<1122 1149.5 1245 1279.5 1122 1319 1122 1344>
LayerCount: 2
Fore
SplineSet
470 908 m 1xe8
 419 843 337 813 264 813 c 0
 107 813 49 915 49 1024 c 0
 49 1224 187 1254 356 1254 c 0
 405 1254 448 1245 448 1245 c 1
 448 1319 l 2
 448 1369 429 1386 389 1386 c 0
 282 1386 174 1295 174 1295 c 1
 134 1295 114 1321 114 1368 c 0
 114 1507 319 1516 460 1516 c 0
 727 1516 771 1398 771 1161 c 0
 771 1083 771 1020 818 1011 c 0
 829 1009 858 1017 858 964 c 0
 858 953 850 827 807 813 c 1xf4
 771 821 753 829 652 829 c 0
 575 829 556 823 522 823 c 0
 501 823 486 858 470 908 c 1xe8
441 1000 m 1xf4
 448 1030 448 1094 448 1136 c 0
 448 1163 446 1170 399 1170 c 0
 357 1170 332 1137 332 1077 c 0
 332 1028 350 963 389 963 c 0
 409 963 436 984 441 1000 c 1xf4
EndSplineSet
Validated: 1
EndChar

StartChar: Lslash
Encoding: 244 321 131
Width: 1508
Flags: HMW
HStem: 17 20G 42 21G 699 21G 701 345
VStem: 24 20
LayerCount: 2
Fore
SplineSet
814 974 m 2xc8
 814 420 l 2
 814 319 822 204 846 204 c 0
 1131 204 1116 522 1264 590 c 0
 1273 595 1287 597 1303 597 c 0
 1373 597 1476 557 1476 506 c 1
 1457 403 1347 145 1292 29 c 0
 1281 5 1261 -13 1227 -13 c 0
 1212 -13 968 0 571 0 c 0
 368 0 178 -5 125 -13 c 1
 84 15 67 165 67 247 c 0
 67 301 111 307 156 312 c 0
 239 321 249 432 249 535 c 2
 249 974 l 2
 249 1087 242 1177 159 1186 c 0
 114 1191 70 1198 70 1252 c 0
 70 1331 87 1476 128 1503 c 1
 175 1495 356 1489 541 1489 c 0
 697 1489 855 1493 935 1503 c 1
 976 1476 993 1331 993 1252 c 0
 993 1198 949 1191 904 1186 c 0
 821 1177 814 1087 814 974 c 2xc8
150 580 m 5
 91 580 82 637 82 692 c 4
 82 751 128 774 241 793 c 5
 407 823 758 888 938 924 c 4
 1027 942 1070 916 1070 885 c 4
 1070 809 1052 746 930 724 c 4
 798 700 382 628 150 580 c 5
EndSplineSet
Validated: 8388645
EndChar

StartChar: Oslash
Encoding: 151 216 132
Width: 1853
Flags: HMW
HStem: -16 217 1297 207
LayerCount: 2
Fore
SplineSet
931 220 m 0
 1082 220 1083 548 1083 753 c 2
 1083 800 l 1
 990 648 895 492 809 353 c 1
 832 276 870 220 931 220 c 0
773 613 m 1
 868 764 969 924 1062 1071 c 1
 1040 1188 997 1279 911 1279 c 0
 804 1279 771 1026 771 733 c 0
 771 703 771 661 773 613 c 1
1447 1396 m 1
 1678 1265 1792 1038 1792 773 c 0
 1792 210 1400 -27 918 -27 c 0
 801 -27 693 -13 596 13 c 1
 560 -43 533 -88 514 -116 c 1
 494 -151 464 -163 423 -163 c 0
 350 -163 325 -139 325 -94 c 0
 325 -73 358 -50 384 -6 c 0
 394 11 411 38 433 73 c 1
 184 195 38 427 38 748 c 0
 38 1228 373 1516 925 1516 c 0
 1070 1516 1197 1496 1305 1459 c 1
 1353 1536 1387 1592 1402 1618 c 1
 1410 1640 1424 1644 1447 1644 c 0
 1454 1644 1558 1653 1558 1605 c 0
 1558 1590 1554 1572 1543 1553 c 0
 1520 1515 1487 1461 1447 1396 c 1
EndSplineSet
Validated: 33
EndChar

StartChar: OE
Encoding: 258 338 133
Width: 2401
Flags: HMW
HStem: -16 217 1297 207
VStem: 1088 600 1847 255
LayerCount: 2
Fore
SplineSet
925 -27 m 0
 391 -27 45 254 45 748 c 0
 45 1228 380 1516 932 1516 c 1
 1132 1505 1319 1489 1527 1489 c 0
 1750 1489 1982 1489 2188 1516 c 1
 2227 1441 2294 1244 2294 1137 c 0
 2294 1056 2172 1033 2114 1033 c 0
 2089 1033 1951 1276 1778 1276 c 0
 1718 1276 1688 1272 1688 1037 c 2
 1688 819 l 1
 1760 908 1843 968 1950 968 c 0
 2066 968 2128 872 2128 782 c 0
 2128 672 2038 593 1942 593 c 1
 1895 646 1824 690 1760 690 c 0
 1730 690 1701 676 1678 641 c 1
 1678 378 l 2
 1678 288 1685 194 1721 194 c 2
 1809 194 l 1
 1966 224 2050 383 2135 582 c 1
 2143 585 2153 586 2164 586 c 0
 2227 586 2335 550 2360 507 c 0
 2364 499 2365 487 2365 473 c 0
 2365 404 2320 234 2286 127 c 0
 2272 84 2228 -27 2198 -27 c 1
 2016 0 1816 0 1617 0 c 0
 1378 0 1148 -27 925 -27 c 0
968 220 m 0
 1023 220 1090 234 1090 234 c 1
 1090 1263 l 1
 1090 1263 1026 1279 968 1279 c 0
 821 1279 778 1071 778 733 c 0
 778 543 779 220 968 220 c 0
EndSplineSet
Validated: 1
EndChar

StartChar: ordmasculine
Encoding: 121 186 134
Width: 929
Flags: HMW
HStem: 812 120<435.5 493.5 435.5 580> 1405 110<432.5 494>
VStem: 48 822<1055 1269.5> 527 343<1106 1213.5>
LayerCount: 2
Fore
SplineSet
462 812 m 0xe0
 239 812 48 934 48 1161 c 0
 48 1378 206 1515 454 1515 c 0
 683 1515 870 1409 870 1170 c 0xd0
 870 940 698 812 462 812 c 0xe0
395 1160 m 0
 395 1014 407 932 464 932 c 0
 523 932 527 1041 527 1171 c 0
 527 1256 526 1405 462 1405 c 0xd0
 403 1405 395 1320 395 1160 c 0
EndSplineSet
Validated: 1
EndChar

StartChar: ae
Encoding: 165 230 135
Width: 1902
Flags: HMW
HStem: -27 239<286.5 631.5> -27 329<1252 1518> 529 168<1238 1419.5> 542 134<594.5 602.5 423.5 675.5> 888 207<604 650.5> 920 175<1290 1382.5>
VStem: 69 1773
LayerCount: 2
Fore
SplineSet
1751 98 m 0x6a
 1645 -3 1475 -27 1327 -27 c 0
 1177 -27 1042 36 947 152 c 1
 805 29 607 -27 412 -27 c 0
 161 -27 69 135 69 310 c 0
 69 629 289 676 558 676 c 0
 647 676 725 663 725 663 c 1x5a
 725 781 l 2
 725 861 690 888 611 888 c 0
 440 888 268 742 268 742 c 1
 205 742 172 784 172 858 c 0
 172 1080 494 1095 714 1095 c 0
 847 1095 966 1046 1018 968 c 1
 1091 1049 1219 1095 1340 1095 c 0
 1628 1095 1822 908 1842 693 c 1
 1821 555 1616 536 1469 532 c 0
 1376 530 1283 529 1238 529 c 1
 1250 365 1349 302 1457 302 c 0
 1579 302 1710 345 1801 408 c 1
 1824 398 1835 379 1835 349 c 0
 1835 252 1788 132 1751 98 c 0x6a
715 251 m 1x9a
 725 304 725 415 725 489 c 0
 725 531 723 542 628 542 c 0
 561 542 521 490 521 394 c 0
 521 316 549 212 612 212 c 0
 651 212 705 233 715 251 c 1x9a
1220 700 m 1x66
 1276 700 1331 697 1392 697 c 0
 1447 697 1461 719 1461 769 c 0
 1461 866 1421 920 1344 920 c 0
 1236 920 1220 840 1220 700 c 1x66
EndSplineSet
Validated: 1
EndChar

StartChar: dotlessi
Encoding: 230 305 136
Width: 927
Flags: HMW
HStem: 227 21G 1171 345
VStem: 221 636
LayerCount: 2
Fore
SplineSet
730 587 m 0
 730 467 735 303 814 294 c 1
 849 288 890 281 890 227 c 0
 890 145 867 1 812 -27 c 1
 769 -19 643 0 493 0 c 0
 338 0 208 -19 164 -27 c 1
 109 1 86 145 86 227 c 0
 86 281 127 288 162 294 c 1
 241 303 246 443 246 547 c 2
 246 599 l 2
 246 683 243 789 105 803 c 0
 61 807 55 821 55 863 c 0
 55 941 75 1067 119 1094 c 1
 179 1084 296 1067 464 1067 c 0
 556 1067 621 1080 667 1080 c 0
 726 1080 740 1065 740 993 c 0
 740 977 730 703 730 587 c 0
EndSplineSet
Validated: 1
EndChar

StartChar: lslash
Encoding: 245 322 137
Width: 964
Flags: HMW
HStem: 699 21G 701 345
VStem: 238 506
LayerCount: 2
Fore
SplineSet
150 580 m 1x20
 91 580 82 637 82 692 c 0
 82 751 128 774 241 793 c 1
 367 816 633 867 770 895 c 0
 859 913 902 887 902 856 c 0
 902 780 884 717 762 695 c 0
 658 676 332 618 150 580 c 1x20
739 1415 m 0
 739 1325 728 1111 728 1009 c 2
 728 587 l 2
 728 467 733 303 801 296 c 1
 847 288 888 281 888 227 c 0
 888 145 865 1 810 -27 c 1
 767 -19 641 0 491 0 c 0
 336 0 206 -19 162 -27 c 1
 107 1 84 145 84 227 c 0
 84 281 125 288 171 296 c 1
 239 303 243 443 243 547 c 2
 243 1018 l 2
 243 1102 242 1208 124 1221 c 0
 80 1226 74 1237 74 1272 c 0
 74 1353 97 1489 148 1517 c 1
 186 1501 294 1489 434 1489 c 0
 547 1489 611 1503 666 1503 c 0
 718 1503 739 1495 739 1415 c 0
EndSplineSet
Validated: 8388645
EndChar

StartChar: oslash
Encoding: 183 248 138
Width: 1373
Flags: HMW
HStem: -27 191<648 740.5 648 890.5> 919 176<643 741.5>
VStem: 50 1278<360.5 703.5>
LayerCount: 2
Fore
SplineSet
576 497 m 1
 641 599 708 705 769 803 c 1
 755 870 729 919 682 919 c 0
 588 919 576 784 576 529 c 2
 576 497 l 1
299 62 m 1
 139 152 42 310 42 530 c 0
 42 876 256 1094 670 1094 c 0
 766 1094 854 1084 932 1063 c 1
 966 1117 991 1159 1005 1184 c 1
 1013 1206 1027 1210 1050 1210 c 0
 1057 1210 1161 1219 1161 1171 c 0
 1161 1156 1157 1138 1146 1119 c 0
 1126 1086 1102 1048 1076 1005 c 1
 1229 919 1320 768 1320 544 c 0
 1320 177 1083 -27 682 -27 c 0
 602 -27 527 -18 459 -1 c 1
 431 -46 407 -83 389 -112 c 0
 367 -146 339 -159 298 -159 c 0
 232 -159 210 -135 210 -90 c 0
 210 -69 233 -44 259 -2 c 0
 268 12 281 34 299 62 c 1
605 234 m 1
 622 188 647 164 685 164 c 0
 777 164 786 329 786 529 c 1
 724 428 662 327 605 234 c 1
EndSplineSet
Validated: 33
EndChar

StartChar: oe
Encoding: 259 339 139
Width: 2012
Flags: HMW
HStem: -27 191<669 754> -27 329<1508 1511> 529 168<1328 1519.5> 919 176<664 762.5>
VStem: 50 1902
LayerCount: 2
Fore
SplineSet
1861 98 m 0xb8
 1755 -3 1585 -27 1437 -27 c 0
 1294 -27 1162 16 1057 99 c 1
 955 15 827 -27 681 -27 c 0xb8
 340 -27 50 168 50 530 c 0
 50 877 303 1095 699 1095 c 0
 831 1095 954 1057 1050 978 c 1
 1152 1056 1282 1095 1430 1095 c 0
 1730 1095 1932 908 1952 693 c 1
 1931 555 1726 535 1579 532 c 0
 1478 529 1377 529 1328 529 c 1
 1342 365 1449 302 1567 302 c 0x78
 1689 302 1820 345 1911 408 c 1
 1934 398 1945 379 1945 349 c 0
 1945 252 1898 132 1861 98 c 0xb8
605 529 m 0
 605 296 624 164 714 164 c 0
 809 164 815 339 815 546 c 0
 815 681 814 919 711 919 c 0
 617 919 605 784 605 529 c 0
1310 700 m 1
 1369 700 1427 697 1492 697 c 0
 1547 697 1561 719 1561 769 c 0
 1561 866 1520 920 1444 920 c 0
 1327 920 1310 840 1310 700 c 1
EndSplineSet
Validated: 1
EndChar

StartChar: germandbls
Encoding: 158 223 140
Width: 1677
Flags: HMW
VStem: 81 892 202 567 769 174<905 1110 912 1110>
LayerCount: 2
Fore
SplineSet
819 1516 m 0x80
 1143 1516 1460 1443 1460 1138 c 0
 1460 953 1339 857 1174 807 c 1
 1447 754 1637 638 1637 407 c 0
 1637 87 1345 -27 1035 -27 c 0
 988 -27 943 -24 900 -20 c 1
 900 219 l 1
 1046 219 1118 304 1118 399 c 0
 1118 520 1001 657 769 657 c 1
 769 628 l 2x40
 769 494 768 360 783 251 c 0
 786 224 789 198 789 173 c 0
 789 70 761 -12 721 -12 c 0
 683 -12 609 0 437 0 c 0
 383 0 209 -6 83 -12 c 1
 63 14 55 151 55 227 c 0
 55 280 96 289 131 294 c 0
 196 303 203 436 203 565 c 2
 203 1080 l 2
 203 1432 506 1516 819 1516 c 0x80
799 889 m 0
 892 889 943 934 943 1075 c 0x20
 943 1145 917 1279 848 1279 c 0
 777 1279 768 1156 768 1040 c 0
 768 1005 769 969 769 941 c 2
 769 912 l 2
 769 898 773 889 799 889 c 0
EndSplineSet
Validated: 33
EndChar

StartChar: onesuperior
Encoding: 120 185 141
Width: 719
Flags: HMW
HStem: 456 16
VStem: 181 384
LayerCount: 2
Fore
SplineSet
191 824 m 2
 191 1208 l 2
 191 1292 53 1220 53 1314 c 0
 53 1369 80 1483 112 1505 c 1
 206 1499 279 1496 332 1496 c 0
 422 1496 455 1510 520 1516 c 1
 547 1516 566 1503 566 1462 c 2
 566 838 l 2
 566 754 569 642 622 636 c 1
 645 631 672 626 672 587 c 0
 672 528 657 425 620 405 c 1
 592 410 508 424 409 424 c 0
 279 424 172 410 137 405 c 1
 101 425 86 528 86 587 c 0
 86 626 113 631 136 636 c 1
 185 641 191 735 191 824 c 2
EndSplineSet
Validated: 1
EndChar

StartChar: logicalnot
Encoding: 107 172 142
Width: 1152
Flags: HMW
HStem: 722 170<273 278 225 523.5>
VStem: 886 170<719 719 719 721 721 721>
LayerCount: 2
Fore
SplineSet
1056 719 m 1
 1060 499 1056 462 1061 404 c 1
 1051 378 1024 368 976 368 c 0
 910 368 881 391 881 423 c 1
 884 436 886 600 886 650 c 2
 886 721 l 1
 886 721 774 722 273 722 c 1
 273 722 135 718 128 714 c 1
 96 714 73 743 73 809 c 0
 73 857 83 884 109 894 c 1
 122 893 198 892 252 892 c 0
 304 892 968 893 975 893 c 0
 1029 893 1056 893 1056 835 c 2
 1056 719 l 1
EndSplineSet
Validated: 1
EndChar

StartChar: mu
Encoding: 116 181 143
AltUni2: 0003bc.ffffffff.0
Width: 1722
Flags: HMW
HStem: -415 21G -26 21G -10 21G<1055.5 1111> 0 21G<1245.5 1390.5> 1047 20G<383 513 1147.5 1275> 1060 20G<660 714.5 1409 1461.5> 1074 20G
VStem: 73 1579<206.5 902>
LayerCount: 2
Fore
SplineSet
242 -265 m 1x93
 243 599 l 1
 242 683 241 789 123 802 c 0
 79 807 73 821 73 863 c 0x95
 73 941 93 1067 137 1094 c 1
 193 1084 304 1067 462 1067 c 0
 564 1067 635 1080 685 1080 c 0
 744 1080 758 1065 758 993 c 0
 758 977 747 742 747 614 c 0
 747 346 748 227 882 227 c 0x93
 1010 227 1019 368 1019 599 c 0
 1019 683 1018 789 880 803 c 0x99
 836 807 830 821 830 863 c 0
 830 941 850 1067 894 1094 c 1
 952 1084 1066 1067 1229 1067 c 0
 1321 1067 1386 1080 1432 1080 c 0
 1491 1080 1505 1065 1505 993 c 0
 1505 977 1493 742 1493 602 c 0
 1493 439 1493 311 1588 290 c 0xc5
 1605 286 1652 298 1652 215 c 0
 1652 198 1639 -4 1570 -26 c 1x93
 1509 -13 1478 0 1303 0 c 0
 1188 0 1136 -10 1086 -10 c 0xa3
 1025 -10 1002 38 1002 125 c 1
 929 44 816 11 685 0 c 1
 689 -87 709 -147 778 -160 c 0
 795 -163 842 -154 842 -225 c 0
 842 -237 829 -398 760 -415 c 1
 703 -402 674 -390 513 -390 c 0
 413 -390 370 -400 326 -400 c 0
 265 -400 243 -352 242 -265 c 1x93
EndSplineSet
Validated: 1
EndChar

StartChar: trademark
Encoding: 319 8482 144
Width: 2185
Flags: HMW
HStem: 33 21G 1494 20G
VStem: 402 566 1764 268
LayerCount: 2
Fore
SplineSet
1714 1018 m 2
 1714 1099 l 2
 1714 1126 1712 1156 1707 1158 c 1
 1702 1158 1698 1153 1696 1150 c 0
 1645 1036 1594 913 1543 776 c 2
 1522 719 l 1
 1507 713 1475 703 1460 701 c 1
 1449 702 1438 709 1428 723 c 1
 1365 843 1280 1059 1225 1148 c 0
 1221 1153 1216 1156 1214 1156 c 0
 1205 1156 1205 1091 1205 1045 c 2
 1205 1004 l 2
 1205 921 1211 828 1270 823 c 0
 1296 821 1324 816 1324 793 c 0
 1324 756 1314 693 1290 681 c 1
 1272 685 1215 693 1151 693 c 0
 1068 693 997 685 975 681 c 1
 951 693 941 756 941 793 c 0
 941 816 969 821 995 823 c 0
 1057 828 1068 897 1068 975 c 0
 1068 1020 1067 1066 1067 1254 c 0
 1067 1370 945 1302 945 1371 c 0
 945 1401 955 1489 987 1508 c 1
 1049 1499 1168 1494 1205 1494 c 0
 1286 1494 1361 1502 1400 1508 c 1
 1425 1502 1430 1489 1430 1471 c 0
 1430 1459 1428 1445 1428 1431 c 0
 1428 1419 1430 1406 1435 1393 c 0
 1471 1298 1513 1206 1554 1119 c 1
 1565 1147 1625 1311 1644 1420 c 0
 1648 1445 1640 1495 1660 1508 c 1
 1725 1501 1800 1493 1886 1493 c 0
 1944 1493 2042 1503 2074 1508 c 1
 2092 1508 2115 1436 2115 1379 c 0
 2115 1275 2017 1409 2017 1206 c 2
 2017 1002 l 2
 2017 940 2020 856 2063 851 c 1
 2080 851 2104 842 2104 815 c 0
 2104 771 2091 693 2062 678 c 1
 2039 683 1970 693 1890 693 c 0
 1785 693 1698 683 1669 678 c 1
 1640 693 1628 771 1628 815 c 0
 1628 841 1645 845 1663 849 c 1
 1708 849 1714 934 1714 1018 c 2
56 1287 m 0
 56 1352 81 1463 87 1501 c 1
 160 1496 322 1493 485 1493 c 0
 641 1493 800 1496 870 1501 c 1
 870 1495 l 1
 878 1461 900 1348 900 1287 c 0
 900 1282 900 1275 898 1270 c 1
 888 1257 811 1238 774 1238 c 0
 770 1238 766 1238 764 1239 c 1
 739 1299 697 1400 655 1400 c 0
 636 1400 634 1378 634 1361 c 2
 634 1018 l 2
 634 939 639 855 679 851 c 1
 696 851 720 842 720 815 c 0
 720 771 708 693 678 678 c 1
 650 683 588 693 485 693 c 0
 379 693 318 683 289 678 c 1
 260 693 248 771 248 815 c 0
 248 842 266 846 285 850 c 1
 329 850 334 938 334 1018 c 2
 334 1361 l 2
 334 1378 331 1400 311 1400 c 0
 266 1400 222 1298 193 1239 c 1
 190 1238 187 1238 184 1238 c 0
 146 1238 68 1257 59 1270 c 1
 58 1275 56 1282 56 1287 c 0
EndSplineSet
Validated: 1
EndChar

StartChar: Eth
Encoding: 143 208 145
Width: 1766
Flags: HMW
HStem: -14 21G 1064 21G 1066 345
VStem: 274 582
LayerCount: 2
Fore
SplineSet
246 856 m 0x90
 320 857 776 858 783 858 c 0
 837 858 913 860 926 861 c 1
 952 851 962 824 962 776 c 0
 962 710 939 681 907 681 c 1
 895 686 680 687 680 687 c 1
 577 687 l 1
 577 687 135 684 122 679 c 1
 90 679 67 708 67 774 c 0
 67 822 77 849 103 859 c 1
 116 858 192 856 246 856 c 0x90
EndSplineSet
Refer: 36 68 S 1 0 0 1 0 0 2
Validated: 8388613
EndChar

StartChar: onehalf
Encoding: 124 189 146
Width: 2672
Flags: HMW
HStem: 2 837 443 396 456 16 795 20G
VStem: 175 384
LayerCount: 2
Fore
SplineSet
185 824 m 2x28
 185 1208 l 2
 185 1292 47 1220 47 1314 c 0
 47 1369 74 1483 106 1505 c 1
 200 1499 273 1496 326 1496 c 0
 416 1496 449 1510 514 1516 c 1
 541 1516 560 1503 560 1462 c 2
 560 838 l 2
 560 754 563 642 616 636 c 1
 639 631 666 626 666 587 c 0
 666 528 651 425 614 405 c 1
 586 410 502 424 403 424 c 0
 273 424 166 410 131 405 c 1
 95 425 80 528 80 587 c 0
 80 626 107 631 130 636 c 1
 179 641 185 735 185 824 c 2x28
724 153 m 0
 850 460 1194 1233 1303 1510 c 0
 1325 1567 1375 1587 1449 1587 c 0
 1606 1587 1662 1559 1662 1506 c 0
 1662 1478 1643 1445 1625 1400 c 0
 1478 1025 1287 559 1111 139 c 0
 1076 57 1054 3 935 3 c 0
 857 3 717 26 717 117 c 0
 717 128 719 140 724 153 c 0
1685 1057 m 1x10
 1781 1081 1964 1099 2157 1099 c 0
 2359 1099 2594 1038 2594 849 c 0
 2594 584 2306 430 2145 288 c 1
 2180 288 l 2
 2248 288 2380 291 2440 418 c 1
 2486 439 2512 443 2537 443 c 0x40
 2564 443 2636 428 2636 374 c 0
 2636 295 2556 98 2527 45 c 1
 2475 7 2198 1 1960 1 c 0
 1844 1 1737 2 1669 2 c 1
 1638 13 1594 75 1590 127 c 1
 1593 181 1743 334 1848 441 c 0
 1967 562 2103 720 2103 839 c 0x80
 2103 910 2078 937 2041 937 c 0
 1939 937 1747 736 1740 722 c 1
 1687 722 1581 759 1581 795 c 0
 1581 918 1638 1025 1685 1057 c 1x10
EndSplineSet
Validated: 1
EndChar

StartChar: plusminus
Encoding: 112 177 147
Width: 962
Flags: HMW
HStem: 0 59 828 615 828 647
VStem: 773 647
LayerCount: 2
Fore
SplineSet
730 831 m 0x90
 784 831 860 833 873 834 c 1
 899 824 909 797 909 749 c 0
 909 676 886 644 854 644 c 1
 841 649 587 650 587 650 c 1
 574 650 l 1
 575 576 575 524 575 416 c 0
 575 389 575 379 578 347 c 1
 567 321 540 310 493 310 c 0
 420 310 388 333 388 365 c 1
 393 379 394 632 394 632 c 1
 394 648 l 1
 376 648 l 1
 376 648 122 647 109 642 c 1
 77 642 54 674 54 747 c 0
 54 795 64 822 90 832 c 1
 103 831 179 829 233 829 c 2
 392 829 l 1
 392 843 l 1
 392 843 391 1097 386 1110 c 1
 386 1142 418 1166 491 1166 c 0
 538 1166 565 1155 576 1129 c 1
 575 1116 573 1040 573 986 c 2
 573 830 l 1
 657 831 723 831 730 831 c 0x90
273 170 m 0
 604 175 800 172 833 175 c 1
 859 165 869 138 869 90 c 0
 869 24 846 -5 814 -5 c 1
 803 0 587 1 587 1 c 1
 574 1 l 1
 574 1 162 -2 149 -7 c 1
 117 -7 94 22 94 88 c 0
 94 136 104 163 130 173 c 1
 143 172 219 170 273 170 c 0
EndSplineSet
Validated: 8388609
EndChar

StartChar: Thorn
Encoding: 157 222 148
Width: 1652
Flags: HMW
HStem: 42 21G
VStem: 224 565<434 1016 434 1061.5> 1024 630
LayerCount: 2
Fore
SplineSet
224 502 m 2
 224 1016 l 2
 224 1107 205 1188 153 1193 c 1
 113 1200 66 1203 66 1262 c 0
 66 1344 89 1488 144 1516 c 1
 187 1508 313 1489 463 1489 c 0
 568 1489 660 1508 694 1516 c 1
 743 1490 770 1368 776 1281 c 1
 1127 1281 1604 1243 1604 883 c 0
 1604 567 1289 463 950 463 c 0
 893 463 835 472 789 472 c 1
 789 396 794 303 862 296 c 1
 902 289 949 286 949 227 c 0
 949 145 926 1 871 -27 c 1
 828 -19 702 0 552 0 c 0
 357 0 195 -19 143 -27 c 1
 88 1 65 145 65 227 c 0
 65 286 112 289 152 296 c 1
 215 302 224 404 224 502 c 2
777 652 m 1
 795 647 826 641 856 641 c 0
 922 641 978 691 978 882 c 0
 978 1002 958 1118 857 1118 c 0
 837 1118 801 1115 777 1111 c 1
 777 652 l 1
EndSplineSet
Validated: 1
EndChar

StartChar: onequarter
Encoding: 123 188 149
Width: 2723
Flags: HMW
HStem: 46 15 369 258 456 16
VStem: 175 384 1977 433
LayerCount: 2
Fore
SplineSet
185 824 m 2x30
 185 1208 l 2
 185 1292 47 1220 47 1314 c 0
 47 1369 74 1483 106 1505 c 1
 200 1499 273 1496 326 1496 c 0
 416 1496 449 1510 514 1516 c 1
 541 1516 560 1503 560 1462 c 2
 560 838 l 2
 560 754 563 642 616 636 c 1
 639 631 666 626 666 587 c 0
 666 528 651 425 614 405 c 1
 586 410 502 424 403 424 c 0
 273 424 166 410 131 405 c 1
 95 425 80 528 80 587 c 0
 80 626 107 631 130 636 c 1
 179 641 185 735 185 824 c 2x30
770 153 m 0
 896 460 1240 1233 1349 1510 c 0
 1371 1567 1421 1587 1495 1587 c 0
 1652 1587 1708 1559 1708 1506 c 0
 1708 1478 1689 1445 1671 1400 c 0
 1524 1025 1333 559 1157 139 c 0
 1122 57 1100 3 981 3 c 0
 903 3 763 26 763 117 c 0
 763 128 765 140 770 153 c 0
1992 623 m 1xc8
 1993 659 1993 721 1993 782 c 2
 1993 794 l 2
 1993 840 1993 885 1995 911 c 1
 1982 903 1958 869 1924 830 c 0
 1869 768 1834 713 1805 659 c 0
 1800 649 1797 641 1797 637 c 0
 1797 622 1844 621 1908 621 c 0
 1935 621 1966 621 1992 623 c 1xc8
2001 378 m 1
 1958 378 1872 376 1829 376 c 2
 1809 376 l 2
 1714 376 1613 376 1567 402 c 1
 1522 445 1504 554 1504 573 c 0
 1504 583 1506 594 1512 607 c 1
 1613 784 1769 917 1911 1064 c 1
 1950 1095 2024 1095 2104 1095 c 2
 2336 1095 l 2
 2387 1095 2423 1082 2423 1043 c 1
 2416 939 2410 826 2410 707 c 2
 2410 640 l 2
 2410 633 2411 626 2423 626 c 2
 2470 626 l 2
 2520 626 2575 633 2620 633 c 0
 2663 633 2676 608 2681 564 c 1
 2680 501 2670 447 2619 411 c 1
 2552 389 2518 388 2423 385 c 1
 2409 385 l 1
 2409 321 2413 239 2470 231 c 0
 2495 228 2525 223 2525 184 c 0
 2525 125 2508 21 2468 0 c 1
 2437 6 2346 20 2238 20 c 0
 2097 20 1980 6 1943 0 c 1
 1903 21 1886 125 1886 184 c 0
 1886 223 1916 228 1941 231 c 0
 1995 238 2001 310 2001 378 c 1
EndSplineSet
Validated: 1
EndChar

StartChar: divide
Encoding: 182 247 150
Width: 1060
Flags: HMW
HStem: 65 346<462.5 595.5> 527 171<237 868> 805 346<462.5 595.5>
VStem: 37 983<583 638>
LayerCount: 2
Fore
SplineSet
216 697 m 1
 268 698 834 698 841 698 c 0
 895 698 971 700 984 701 c 1
 1010 691 1020 664 1020 616 c 0
 1020 550 997 521 965 521 c 1
 953 526 738 527 738 527 c 1
 237 527 l 1
 237 527 99 523 92 519 c 1
 60 519 37 548 37 614 c 0
 37 662 47 689 73 699 c 1
 86 698 162 697 216 697 c 1
337 238 m 0
 337 326 396 411 529 411 c 0
 662 411 715 323 715 238 c 0
 715 153 662 65 529 65 c 0
 396 65 337 149 337 238 c 0
337 978 m 0
 337 1067 396 1151 529 1151 c 0
 662 1151 715 1063 715 978 c 0
 715 893 662 805 529 805 c 0
 396 805 337 890 337 978 c 0
EndSplineSet
Validated: 1
EndChar

StartChar: brokenbar
Encoding: 101 166 151
Width: 525
Flags: HMW
HStem: 0 21 857 597 857 630
VStem: 565 630
LayerCount: 2
Fore
SplineSet
432 586 m 0x90
 432 371 433 159 433 -63 c 0
 433 -156 347 -160 260 -160 c 0
 181 -160 98 -158 98 -85 c 0
 98 10 92 317 92 551 c 0
 92 625 121 637 275 637 c 0
 373 637 432 632 432 586 c 0x90
432 1585 m 0
 432 1043 433 987 433 987 c 2
 433 894 347 890 260 890 c 0
 181 890 98 892 98 965 c 0
 98 1033 93 1100 93 1205 c 0
 93 1248 92 1525 92 1568 c 0
 92 1623 138 1636 275 1636 c 0
 373 1636 432 1631 432 1585 c 0
EndSplineSet
Validated: 8388609
EndChar

StartChar: degree
Encoding: 111 176 152
Width: 759
Flags: HMW
HStem: 916 0<372 372> 1448 68
LayerCount: 2
Fore
SplineSet
372 916 m 0
 158 916 51 1065 51 1214 c 0
 51 1363 158 1513 372 1513 c 0
 587 1513 696 1363 696 1214 c 0
 696 1065 588 916 372 916 c 0
565 1214 m 0
 565 1347 467 1412 372 1412 c 0
 275 1412 182 1345 182 1214 c 0
 182 1082 276 1017 372 1017 c 0
 468 1017 565 1083 565 1214 c 0
EndSplineSet
Validated: 1
EndChar

StartChar: thorn
Encoding: 189 254 153
Width: 1474
Flags: HMW
HStem: -414 21G 0 197<800 843.5 757 976> 876 219<759 1076> 1075 20G<910.5 1076> 1469 20G<360 490> 1482 20G<624 676.5> 1496 20G
VStem: 35 64
LayerCount: 2
Fore
SplineSet
799 876 m 0xe5
 719 876 710 685 710 559 c 2
 710 527 l 2
 710 396 711 197 803 197 c 0
 884 197 896 391 896 554 c 0
 896 697 888 876 799 876 c 0xe5
711 7 m 1
 714 -127 720 -300 720 -313 c 0
 720 -385 706 -400 647 -400 c 0
 601 -400 536 -387 444 -387 c 0
 276 -387 159 -404 99 -414 c 1
 55 -387 35 -261 35 -183 c 0
 35 -141 41 -127 85 -123 c 0
 223 -109 225 -3 225 81 c 0
 225 224 221 385 221 529 c 0
 221 682 225 864 225 1021 c 0
 225 1105 223 1211 85 1225 c 0xd3
 41 1229 35 1243 35 1285 c 0
 35 1363 55 1489 99 1516 c 1xd9
 159 1506 276 1489 444 1489 c 0
 536 1489 601 1502 647 1502 c 0
 706 1502 720 1487 720 1415 c 0
 720 1399 710 1154 710 1038 c 1
 788 1077 870 1095 951 1095 c 0
 1201 1095 1430 916 1430 609 c 0
 1430 218 1134 0 818 0 c 0
 782 0 747 2 711 7 c 1
EndSplineSet
Validated: 1
EndChar

StartChar: threequarters
Encoding: 125 190 154
Width: 3067
Flags: HMW
HStem: 45 15 368 258 915 189 1230 144 1346 28
VStem: 2321 433
LayerCount: 2
Fore
SplineSet
208 421 m 1x28
 145 452 49 558 49 634 c 0
 49 687 139 747 198 747 c 0
 217 747 293 641 470 641 c 0
 556 641 658 663 658 774 c 0
 658 888 571 918 466 918 c 0
 421 918 376 915 337 914 c 1
 316 916 304 936 304 1010 c 0
 304 1058 316 1092 344 1104 c 1
 358 1103 372 1102 386 1102 c 0
 558 1103 623 1158 623 1230 c 0x30
 623 1298 575 1348 515 1348 c 0
 355 1348 305 1158 252 1158 c 0
 159 1158 92 1208 92 1232 c 0
 92 1375 192 1498 284 1507 c 0
 361 1515 531 1515 615 1515 c 0
 885 1515 987 1394 987 1273 c 0
 987 1182 922 1091 826 1064 c 1
 991 1051 1116 901 1116 772 c 0
 1116 515 872 392 573 392 c 0
 453 392 329 403 208 421 c 1x28
1128 153 m 0
 1254 460 1598 1233 1707 1510 c 0
 1729 1567 1779 1587 1853 1587 c 0
 2010 1587 2066 1559 2066 1506 c 0
 2066 1478 2047 1445 2029 1400 c 0
 1882 1025 1691 559 1515 139 c 0
 1480 57 1458 3 1339 3 c 0
 1261 3 1121 26 1121 117 c 0
 1121 128 1123 140 1128 153 c 0
2336 622 m 1xc4
 2337 658 2337 720 2337 781 c 2
 2337 793 l 2
 2337 839 2337 884 2339 910 c 1
 2326 902 2302 868 2268 829 c 0
 2213 767 2178 712 2149 658 c 0
 2144 648 2141 640 2141 636 c 0
 2141 621 2188 620 2252 620 c 0
 2279 620 2310 620 2336 622 c 1xc4
2345 377 m 1
 2302 377 2216 375 2173 375 c 2
 2153 375 l 2
 2058 375 1957 375 1911 401 c 1
 1866 444 1848 553 1848 572 c 0
 1848 582 1850 593 1856 606 c 1
 1957 783 2113 916 2255 1063 c 1
 2294 1094 2368 1094 2448 1094 c 2
 2680 1094 l 2
 2731 1094 2767 1081 2767 1042 c 1
 2760 938 2754 825 2754 706 c 2
 2754 639 l 2
 2754 632 2755 625 2767 625 c 2
 2814 625 l 2
 2864 625 2919 632 2964 632 c 0
 3007 632 3020 607 3025 563 c 1
 3024 500 3014 446 2963 410 c 1
 2896 388 2862 387 2767 384 c 1
 2753 384 l 1
 2753 320 2757 238 2814 230 c 0
 2839 227 2869 222 2869 183 c 0
 2869 124 2852 20 2812 -1 c 1
 2781 5 2690 19 2582 19 c 0
 2441 19 2324 5 2287 -1 c 1
 2247 20 2230 124 2230 183 c 0
 2230 222 2260 227 2285 230 c 0
 2339 237 2345 309 2345 377 c 1
EndSplineSet
Validated: 1
EndChar

StartChar: twosuperior
Encoding: 113 178 155
Width: 1173
Flags: HMW
HStem: 418 837 859 396 1211 20G
LayerCount: 2
Fore
SplineSet
163 1473 m 1x20
 259 1497 442 1515 635 1515 c 0
 837 1515 1072 1454 1072 1265 c 0
 1072 1000 784 846 623 704 c 1
 658 704 l 2
 726 704 858 707 918 834 c 1
 964 855 990 859 1015 859 c 0x40
 1042 859 1114 844 1114 790 c 0
 1114 711 1034 514 1005 461 c 1
 953 423 676 417 438 417 c 0
 322 417 215 418 147 418 c 1
 116 429 72 491 68 543 c 1
 71 597 221 750 326 857 c 0
 445 978 581 1136 581 1255 c 0x80
 581 1326 556 1353 519 1353 c 0
 417 1353 225 1152 218 1138 c 1
 165 1138 59 1175 59 1211 c 0
 59 1334 116 1441 163 1473 c 1x20
EndSplineSet
Validated: 1
EndChar

StartChar: registered
Encoding: 109 174 156
Width: 1716
Flags: HMW
HStem: -29 228 398 11 1283 232
VStem: 840 423 933 319
LayerCount: 2
Fore
SplineSet
866 -27 m 0xe0
 446 -27 63 252 63 748 c 0
 63 1228 405 1516 873 1516 c 0
 1343 1516 1655 1190 1655 758 c 0
 1655 302 1303 -27 866 -27 c 0xe0
867 111 m 0
 1212 111 1491 382 1491 758 c 0
 1491 1115 1245 1382 873 1382 c 0
 503 1382 232 1145 232 750 c 0
 232 342 535 111 867 111 c 0
800 356 m 1
 499 356 l 1
 499 1169 l 1
 499 1169 737 1178 865 1178 c 0
 996 1178 1234 1174 1234 973 c 0
 1234 870 1176 809 1060 784 c 1
 1315 739 1254 610 1260 356 c 1
 959 356 l 1
 959 531 l 2
 959 697 947 732 853 732 c 2
 800 732 l 1
 800 356 l 1
797 1065 m 1
 797 826 l 1
 797 826 833 824 857 824 c 0
 903 824 944 848 944 959 c 0
 944 1015 930 1068 869 1068 c 0
 803 1068 797 1065 797 1065 c 1
EndSplineSet
Validated: 8388641
EndChar

StartChar: eth
Encoding: 175 240 157
Width: 1707
Flags: HMW
HStem: 902 460 -181 20G<634.5 849>
LayerCount: 2
Fore
SplineSet
808 697 m 0x00
 712 697 633 628 633 471 c 0
 633 349 647 180 816 180 c 0
 897 180 978 244 978 426 c 0
 978 557 977 697 808 697 c 0x00
718 1002 m 1
 659 1002 650 1059 650 1114 c 0
 650 1173 695 1196 808 1215 c 0
 830 1219 857 1224 885 1229 c 1
 850 1278 803 1308 740 1308 c 0
 492 1308 435 1029 379 1029 c 0
 294 1029 120 1080 120 1130 c 0
 120 1300 245 1476 354 1491 c 1
 384 1499 476 1519 740 1519 c 0
 1012 1519 1223 1445 1373 1320 c 1
 1423 1330 1468 1338 1506 1346 c 0
 1595 1364 1638 1338 1638 1307 c 0
 1638 1236 1622 1177 1522 1151 c 1
 1609 1015 1652 851 1652 672 c 0
 1652 277 1398 -16 849 -24 c 1
 420 -24 33 124 33 517 c 0
 33 817 353 932 610 932 c 0
 734 932 862 905 969 840 c 1
 969 868 l 2
 969 928 965 990 954 1048 c 1
 867 1032 785 1016 718 1002 c 1
EndSplineSet
Validated: 33
EndChar

StartChar: multiply
Encoding: 150 215 158
Width: 1068
Flags: HMW
HStem: 0 96 800 632 800 663
VStem: 677 663
LayerCount: 2
Fore
SplineSet
531 783 m 1x90
 724 978 l 2
 743 997 799 1066 835 1068 c 1
 899 1068 1001 928 1001 895 c 0
 1001 875 993 860 977 844 c 1
 959 836 720 599 719 598 c 1
 941 378 l 1
 968 356 1008 322 1008 291 c 0
 1008 227 868 126 835 126 c 0
 816 126 802 132 785 147 c 1
 779 162 574 380 535 410 c 1
 530 405 528 402 528 402 c 1
 528 402 291 164 283 146 c 1
 267 132 254 123 234 123 c 0
 205 123 59 223 59 288 c 0
 59 311 128 384 204 457 c 0
 334 582 344 592 344 594 c 1
 306 632 103 836 88 842 c 1
 72 857 63 876 63 893 c 0
 63 920 164 1067 229 1067 c 0
 263 1067 336 981 395 921 c 2
 531 783 l 1x90
EndSplineSet
Validated: 8388609
EndChar

StartChar: threesuperior
Encoding: 114 179 159
Width: 1175
Flags: HMW
HStem: 915 189 1230 144 1346 28
LayerCount: 2
Fore
SplineSet
212 421 m 1xa0
 149 452 53 558 53 634 c 0
 53 687 143 747 202 747 c 0
 221 747 297 641 474 641 c 0
 560 641 662 663 662 774 c 0
 662 888 575 918 470 918 c 0
 425 918 380 915 341 914 c 1
 320 916 308 936 308 1010 c 0
 308 1058 320 1092 348 1104 c 1
 362 1103 376 1102 390 1102 c 0
 562 1103 627 1158 627 1230 c 0xc0
 627 1298 579 1348 519 1348 c 0
 359 1348 309 1158 256 1158 c 0
 163 1158 96 1208 96 1232 c 0
 96 1375 196 1498 288 1507 c 0
 365 1515 535 1515 619 1515 c 0
 889 1515 991 1394 991 1273 c 0
 991 1182 926 1091 830 1064 c 1
 995 1051 1120 901 1120 772 c 0
 1120 515 876 392 577 392 c 0
 457 392 333 403 212 421 c 1xa0
EndSplineSet
Validated: 1
EndChar

StartChar: copyright
Encoding: 104 169 160
Width: 1716
Flags: HMW
HStem: -29 228 398 11 1283 232
VStem: 840 423 933 319
LayerCount: 2
Fore
SplineSet
866 -27 m 0xe0
 446 -27 63 252 63 748 c 0
 63 1228 405 1516 873 1516 c 0
 1343 1516 1655 1190 1655 758 c 0
 1655 302 1303 -27 866 -27 c 0xe0
867 111 m 0
 1212 111 1491 382 1491 758 c 0
 1491 1115 1245 1382 873 1382 c 0
 503 1382 232 1145 232 750 c 0
 232 342 535 111 867 111 c 0
899 322 m 0
 580 322 431 543 431 761 c 0
 431 973 567 1182 822 1182 c 0
 901 1182 953 1172 1028 1130 c 1
 1027 1137 1026 1142 1026 1147 c 0
 1026 1170 1036 1175 1093 1175 c 0
 1181 1175 1201 1165 1220 1035 c 0
 1226 997 1228 975 1228 960 c 0
 1228 908 1216 906 1168 902 c 0
 1113 897 1111 897 1107 897 c 0
 1087 897 1078 910 1067 927 c 0
 1027 992 970 1025 918 1025 c 0
 843 1025 777 960 777 831 c 0
 777 659 886 552 1015 552 c 0
 1080 552 1151 570 1216 607 c 1
 1230 581 1237 555 1237 528 c 0
 1237 423 1119 322 899 322 c 0
EndSplineSet
Validated: 8388609
EndChar

StartChar: foursuperior
Encoding: 317 8308 219
Width: 1249
Flags: HMW
HStem: 441 15 764 258
VStem: 509 433
LayerCount: 2
Fore
SplineSet
524 1018 m 1
 525 1054 525 1116 525 1177 c 2
 525 1189 l 2
 525 1235 525 1280 527 1306 c 1
 514 1298 490 1264 456 1225 c 0
 401 1163 366 1108 337 1054 c 0
 332 1044 329 1036 329 1032 c 0
 329 1017 376 1016 440 1016 c 0
 467 1016 498 1016 524 1018 c 1
533 773 m 1
 490 773 404 771 361 771 c 2
 341 771 l 2
 246 771 145 771 99 797 c 1
 54 840 36 949 36 968 c 0
 36 978 38 989 44 1002 c 1
 145 1179 301 1312 443 1459 c 1
 482 1490 556 1490 636 1490 c 2
 868 1490 l 2
 919 1490 955 1477 955 1438 c 1
 948 1334 942 1221 942 1102 c 2
 942 1035 l 2
 942 1028 943 1021 955 1021 c 2
 1002 1021 l 2
 1052 1021 1107 1028 1152 1028 c 0
 1195 1028 1208 1003 1213 959 c 1
 1212 896 1202 842 1151 806 c 1
 1084 784 1050 783 955 780 c 1
 941 780 l 1
 941 716 945 634 1002 626 c 0
 1027 623 1057 618 1057 579 c 0
 1057 520 1040 416 1000 395 c 1
 969 401 878 415 770 415 c 0
 629 415 512 401 475 395 c 1
 435 416 418 520 418 579 c 0
 418 618 448 623 473 626 c 0
 527 633 533 705 533 773 c 1
EndSplineSet
Validated: 1
EndChar

StartChar: kgreenlandic
Encoding: 237 312 220
Width: 1650
Flags: HMW
VStem: 17 21
LayerCount: 2
Fore
SplineSet
943 884 m 1
 971 902 990 924 990 942 c 0
 990 964 965 988 965 1010 c 0
 965 1044 970 1075 992 1095 c 1
 1032 1085 1160 1067 1278 1067 c 0
 1378 1067 1424 1080 1480 1095 c 1
 1523 1083 1529 1045 1529 990 c 0
 1529 865 1512 910 1331 792 c 2
 1071 623 l 1
 1341 565 1344 483 1401 369 c 1
 1423 313 1448 289 1502 289 c 0
 1524 289 1594 289 1594 223 c 0
 1594 220 1576 3 1531 -27 c 1
 1527 -11 1421 0 1314 0 c 0
 1214 0 1113 -8 1082 -27 c 1
 1000 -14 998 179 971 261 c 0
 905 465 856 465 749 465 c 2
 723 465 l 1
 726 385 740 301 795 296 c 1
 841 288 882 281 882 227 c 0
 882 145 859 1 804 -27 c 1
 761 -19 635 0 485 0 c 0
 330 0 200 -19 156 -27 c 1
 101 1 78 145 78 227 c 0
 78 281 119 288 165 296 c 1
 233 303 237 443 237 547 c 2
 237 600 l 2
 237 684 235 790 97 804 c 0
 53 808 47 822 47 864 c 0
 47 942 67 1068 111 1095 c 1
 171 1085 288 1067 456 1067 c 0
 548 1067 613 1081 659 1081 c 0
 718 1081 732 1066 732 994 c 0
 732 979 722 801 722 715 c 1
 943 884 l 1
EndSplineSet
Validated: 1
EndChar

StartChar: uni030F
Encoding: 302 783 227
Width: 1179
Flags: HMW
HStem: 1149 476<625 645 168 534>
VStem: 75 1027<1149 1585>
LayerCount: 2
Fore
SplineSet
1102 1149 m 1
 991 1149 l 1
 875 1238 688 1401 650 1438 c 0
 586 1501 532 1534 532 1564 c 0
 532 1606 571 1625 679 1625 c 0
 774 1625 806 1602 850 1532 c 0
 900 1453 1045 1233 1102 1149 c 1
645 1149 m 1
 534 1149 l 1
 418 1238 231 1401 193 1438 c 0
 129 1501 75 1534 75 1564 c 0
 75 1606 114 1625 222 1625 c 0
 317 1625 349 1602 393 1532 c 0
 443 1453 588 1233 645 1149 c 1
EndSplineSet
Validated: 1
EndChar

StartChar: uni0326
Encoding: 304 806 230
Width: 705
Flags: HMW
HStem: -110 20G<277 419>
VStem: 104 495<-408 -261.5 -408.5 -250>
LayerCount: 2
Fore
SplineSet
154 -687 m 0
 154 -643 269 -580 269 -520 c 0
 269 -484 104 -498 104 -318 c 0
 104 -182 204 -90 350 -90 c 0
 488 -90 599 -195 599 -328 c 0
 599 -489 421 -742 236 -742 c 0
 183 -742 154 -712 154 -687 c 0
EndSplineSet
Validated: 1
EndChar

StartChar: dotlessj
Encoding: 292 567 234
Width: 989
Flags: HMW
HStem: 1171 319
VStem: 356 555 656 7
LayerCount: 2
Fore
SplineSet
406 -15 m 2x80
 406 599 l 2
 406 683 404 789 266 803 c 0
 222 807 216 821 216 863 c 0
 216 941 236 1067 280 1094 c 1
 340 1084 457 1067 625 1067 c 0
 717 1067 782 1080 828 1080 c 0
 887 1080 901 1065 901 993 c 0
 901 977 891 732 891 616 c 2
 891 240 l 2
 891 -106 822 -448 428 -448 c 0
 304 -448 18 -448 18 -200 c 0
 18 -130 68 -91 129 -91 c 0
 302 -91 217 -227 321 -227 c 0
 400 -227 406 -136 406 -15 c 2x80
EndSplineSet
Validated: 8388609
EndChar

StartChar: commaaccent
Encoding: 320 -1 257
Width: 705
Flags: HMW
HStem: -108 20G<277 419>
VStem: 104 495<-406 -259.5 -406.5 -248>
LayerCount: 2
Fore
SplineSet
154 -685 m 0
 154 -641 269 -578 269 -518 c 0
 269 -482 104 -496 104 -316 c 0
 104 -180 204 -88 350 -88 c 0
 488 -88 599 -193 599 -326 c 0
 599 -487 421 -740 236 -740 c 0
 183 -740 154 -710 154 -685 c 0
EndSplineSet
Validated: 1
EndChar

StartChar: gcedilla
Encoding: 218 291 260
Width: 1305
Flags: HMW
HStem: 221 20G<579 765.5>
VStem: 391 495<1527 1673.5 1526.5 1685>
LayerCount: 2
Fore
SplineSet
441 1248 m 0
 441 1292 556 1355 556 1415 c 0
 556 1451 391 1437 391 1617 c 0
 391 1753 491 1845 637 1845 c 0
 775 1845 886 1740 886 1607 c 0
 886 1446 708 1193 523 1193 c 0
 470 1193 441 1223 441 1248 c 0
EndSplineSet
Refer: 71 103 N 1 0 0 1 0 0 2
Validated: 1
EndChar

StartChar: Hbar
Encoding: 219 294 266
Width: 2072
Flags: HMW
HStem: 692 226 1064 21G 1066 345 1478 20G
VStem: 250 590 1228 603
LayerCount: 2
Fore
SplineSet
1368 1003 m 2x9c
 702 1003 l 2
 670 1003 664 1032 664 1057 c 0
 664 1095 675 1124 710 1124 c 2
 1367 1124 l 2
 1400 1124 1415 1113 1415 1069 c 0
 1415 1040 1408 1003 1368 1003 c 2x9c
1947 1503 m 1
 1988 1476 2005 1331 2005 1252 c 0
 2005 1198 1961 1191 1916 1186 c 0
 1833 1177 1826 1087 1826 974 c 2
 1826 535 l 2
 1826 432 1836 321 1919 312 c 0
 1964 307 2008 301 2008 247 c 0
 2008 165 1991 15 1950 -13 c 1
 1906 -5 1744 0 1589 0 c 0
 1394 0 1232 -8 1180 -13 c 1
 1125 14 1102 148 1102 227 c 0
 1102 281 1143 288 1178 294 c 1
 1252 302 1261 447 1261 615 c 0
 1261 651 1261 657 1229 657 c 0
 1188 657 1128 655 1037 655 c 0
 947 655 887 657 846 657 c 0
 815 657 815 650 815 615 c 0
 815 483 820 303 899 294 c 1
 934 288 975 281 975 227 c 0
 975 148 952 14 897 -13 c 1
 854 -8 728 0 578 0 c 0
 378 0 178 -5 125 -13 c 1
 84 15 67 165 67 247 c 0
 67 301 111 307 156 312 c 0
 239 321 249 432 249 535 c 2
 249 974 l 2
 249 1087 242 1177 159 1186 c 0
 114 1191 70 1198 70 1252 c 0
 70 1331 87 1476 128 1503 c 1
 181 1495 381 1489 581 1489 c 0
 731 1489 857 1498 900 1503 c 1
 955 1476 978 1338 978 1259 c 0
 978 1205 937 1198 891 1190 c 1
 823 1183 815 1036 815 922 c 0
 815 899 817 882 855 882 c 0
 894 882 951 883 1034 883 c 0
 1129 883 1191 881 1233 881 c 0
 1261 881 1261 885 1261 911 c 0
 1261 1073 1256 1184 1192 1190 c 1
 1146 1198 1105 1205 1105 1259 c 0
 1105 1338 1128 1476 1183 1503 c 1
 1235 1498 1397 1489 1592 1489 c 0
 1747 1489 1903 1495 1947 1503 c 1
EndSplineSet
Validated: 8388613
EndChar

StartChar: hbar
Encoding: 220 295 275
Width: 1699
Flags: HMW
HStem: -27 21G -14 21G<1100 1168> 0 21G<403.5 556 1292.5 1375.5> 841 254<873 1214.5> 1068 121<105 786 129 786 786 787> 1068 421<105 499 369 499 369 787> 1068 434<633 685.5 633 787> 1075 20G<1023 1214.5> 1496 20G
VStem: 43 1602<186 1324>
LayerCount: 2
Fore
SplineSet
787 1082 m 2x28c0
 121 1082 l 2
 89 1082 83 1103 83 1122 c 0
 83 1152 94 1175 129 1175 c 2
 786 1175 l 2
 819 1175 834 1167 834 1134 c 0
 834 1111 827 1082 787 1082 c 2x28c0
1318 0 m 0
EndSplineSet
Refer: 72 104 N 1 0 0 1 0 0 2
Validated: 8388613
EndChar

StartChar: uni0311
Encoding: 303 785 276
Width: 982
Flags: HMW
HStem: 1184 331<380 381 87 594 380 893 380 599> 1325 190<444.5 529.5>
VStem: 87 806<1184 1184>
LayerCount: 2
Fore
SplineSet
487 1515 m 0xa0
 701 1515 873 1399 893 1184 c 1xa0
 599 1184 l 1
 597 1276 572 1325 487 1325 c 0x60
 402 1325 383 1276 381 1184 c 1
 87 1184 l 1
 107 1399 273 1515 487 1515 c 0xa0
EndSplineSet
Validated: 1
EndChar

StartChar: Dzcaron
Encoding: 291 453 277
Width: 2877
Flags: HMW
HStem: -14 21G 0 21G<628.5 726 2120 2255> 889 194
VStem: 262 582
LayerCount: 2
Fore
SplineSet
896 222 m 0x90
 1033 222 1063 484 1063 740 c 0
 1063 919 1034 1252 866 1252 c 0
 850 1252 834 1252 819 1249 c 1
 815 1230 814 1034 814 790 c 2
 814 623 l 2
 814 336 829 224 829 224 c 1
 829 224 850 222 896 222 c 0x90
125 -13 m 1
 84 13 67 163 67 245 c 0
 67 299 111 305 156 310 c 0
 239 319 249 430 249 533 c 2
 249 972 l 2
 249 1085 242 1175 159 1184 c 0
 114 1189 70 1196 70 1250 c 0
 70 1329 87 1476 128 1503 c 1
 186 1501 480 1489 596 1489 c 0
 718 1490 835 1503 957 1503 c 0
 1316 1503 1696 1345 1696 729 c 0
 1696 258 1513 -13 994 -13 c 0
 882 -13 783 0 669 0 c 0
 588 0 225 -10 125 -13 c 1
1868 -12 m 0x60
 1864 -13 1860 -13 1856 -13 c 0
 1797 -13 1778 51 1778 126 c 0
 1778 173 1795 209 1833 265 c 0
 1969 466 2155 712 2254 889 c 1
 2192 889 l 2
 2083 889 1979 744 1971 744 c 0
 1826 744 1805 760 1805 767 c 0
 1805 881 1837 1018 1855 1083 c 1
 1961 1079 2130 1067 2314 1067 c 0
 2453 1067 2604 1071 2742 1083 c 1
 2796 1077 2805 1043 2805 976 c 0
 2805 928 2767 857 2698 754 c 2
 2435 361 l 2
 2381 281 2344 223 2344 223 c 1
 2427 223 l 2
 2523 223 2587 293 2649 436 c 1
 2658 436 2668 437 2678 437 c 0
 2742 437 2823 424 2823 346 c 0
 2823 255 2753 37 2730 -15 c 1
 2500 -5 2326 0 2184 0 c 0
 2056 0 1958 -5 1868 -12 c 0x60
2446 1124 m 1
 2296 1124 l 1
 2199 1213 2046 1375 2015 1413 c 0
 1965 1474 1927 1509 1927 1539 c 0
 1927 1581 1963 1600 2064 1600 c 0
 2148 1600 2173 1575 2220 1527 c 1
 2371 1336 l 1
 2522 1527 l 1
 2569 1575 2594 1600 2678 1600 c 0
 2779 1600 2815 1581 2815 1539 c 0
 2815 1509 2777 1474 2727 1413 c 0
 2696 1375 2543 1213 2446 1124 c 1
EndSplineSet
Validated: 1
EndChar

StartChar: fi
Encoding: 321 64257 279
Width: 1725
Flags: HW
LayerCount: 2
Fore
SplineSet
1529 587 m 4
 1529 467 1533 303 1612 294 c 5
 1647 288 1688 281 1688 227 c 4
 1688 145 1665 1 1610 -27 c 5
 1569 -19 1450 0 1308 0 c 4
 1159 0 1034 -19 992 -27 c 5
 937 1 914 145 914 227 c 4
 914 281 948 288 977 294 c 5
 1040 303 1044 443 1044 547 c 6
 1044 683 l 6
 1044 845 1044 886 1011 887 c 6
 684 887 l 1
 684 587 l 2
 684 455 693 304 751 297 c 1
 797 289 838 282 838 228 c 0
 838 146 815 1 760 -27 c 1
 718 -19 594 0 447 0 c 0
 292 0 162 -19 118 -27 c 1
 63 1 40 146 40 228 c 0
 40 282 81 289 127 297 c 1
 193 304 199 438 199 538 c 0
 199 875 198 875 196 875 c 2
 190 875 l 2
 156 875 39 876 39 901 c 0
 39 952 36 992 36 1032 c 0
 36 1044 198 1067 198 1067 c 1
 250 1453 491 1516 922 1516 c 1
 1156 1516 1476 1517 1476 1319 c 4
 1476 1202 1369 1171 1311 1171 c 4
 1046 1171 1193 1348 910 1348 c 0
 653 1348 599 1289 599 1212 c 0
 599 1167 623 1114 683 1065 c 1
 689 1065 835 1067 878 1067 c 2
 878 1067 912 1067 1262 1067 c 4
 1354 1067 1415 1081 1461 1081 c 4
 1520 1081 1534 1066 1534 993 c 4
 1534 977 1529 703 1529 587 c 4
EndSplineSet
Validated: 33
LCarets2: 1 0 
Ligature2: "'liga' Standard Ligatures in Latin lookup 0-1" f i
EndChar

StartChar: Euro
Encoding: 318 8364 289
Width: 1674
Flags: HMW
HStem: -29 228 1283 232
LayerCount: 2
Fore
SplineSet
1023 -27 m 0
 529 -27 263 278 200 622 c 1
 160 621 109 618 105 616 c 1
 73 616 50 645 50 711 c 0
 50 759 60 786 86 796 c 1
 96 795 141 793 185 793 c 1
 185 827 188 860 193 894 c 1
 157 892 119 890 115 888 c 1
 83 888 60 917 60 983 c 0
 60 1031 70 1058 96 1068 c 1
 109 1067 185 1066 239 1066 c 2
 240 1066 l 1
 344 1316 598 1515 1026 1515 c 0
 1369 1515 1613 1395 1613 1196 c 0
 1613 1102 1591 1101 1505 1093 c 0
 1408 1084 1404 1084 1400 1084 c 0
 1362 1084 1345 1106 1325 1137 c 1
 1268 1204 1177 1232 1098 1232 c 0
 995 1232 899 1176 847 1067 c 1
 1012 1067 l 2
 1066 1067 1142 1069 1155 1070 c 1
 1181 1060 1191 1033 1191 985 c 0
 1191 919 1168 890 1136 890 c 1
 1124 895 909 896 909 896 c 1
 807 896 l 1
 806 885 806 873 806 862 c 0
 806 838 807 816 809 794 c 1
 982 794 l 2
 1036 794 1112 797 1125 798 c 1
 1151 788 1161 761 1161 713 c 0
 1161 647 1138 618 1106 618 c 1
 1095 623 879 624 879 624 c 1
 852 624 l 1
 919 472 1051 386 1202 386 c 0
 1327 386 1466 417 1592 483 c 1
 1617 438 1629 390 1629 343 c 0
 1629 154 1417 -27 1023 -27 c 0
EndSplineSet
Validated: 1
EndChar

StartChar: uni0110
Encoding: 205 272 296
Width: 1766
Flags: HMW
HStem: -14 21G 1064 21G 1066 345
VStem: 274 582
LayerCount: 2
Fore
SplineSet
246 856 m 0x90
 320 857 776 858 783 858 c 0
 837 858 913 860 926 861 c 1
 952 851 962 824 962 776 c 0
 962 710 939 681 907 681 c 1
 895 686 680 687 680 687 c 1
 577 687 l 1
 577 687 135 684 122 679 c 1
 90 679 67 708 67 774 c 0
 67 822 77 849 103 859 c 1
 116 858 192 856 246 856 c 0x90
EndSplineSet
Refer: 36 68 S 1 0 0 1 0 0 2
Validated: 8388613
EndChar

StartChar: uni0111
Encoding: 206 273 297
Width: 1541
Flags: HMW
VStem: 16 21
LayerCount: 2
Fore
SplineSet
764 1133 m 2
 818 1133 l 1
 801 1180 765 1216 695 1225 c 1
 651 1229 645 1243 645 1285 c 0
 645 1363 665 1489 709 1516 c 1
 769 1506 886 1489 1054 1489 c 0
 1146 1489 1211 1502 1257 1502 c 0
 1316 1502 1330 1487 1330 1415 c 0
 1330 1402 1324 1255 1321 1135 c 1
 1372 1135 1432 1137 1444 1138 c 1
 1470 1128 1480 1101 1480 1053 c 0
 1480 987 1457 958 1425 958 c 1
 1419 960 1371 962 1320 963 c 1
 1320 799 1324 784 1324 576 c 0
 1324 439 1324 305 1419 289 c 0
 1436 286 1483 298 1483 214 c 0
 1483 197 1470 -5 1401 -27 c 1
 1340 -14 1309 -1 1134 -1 c 0
 1019 -1 967 -11 917 -11 c 0
 856 -11 833 36 833 124 c 1
 779 8 654 -27 516 -27 c 0
 190 -27 54 218 54 436 c 0
 54 727 251 885 573 885 c 0
 674 885 762 870 835 811 c 1
 835 961 l 1
 736 960 646 958 640 956 c 1
 608 956 585 985 585 1051 c 0
 585 1099 595 1126 621 1136 c 1
 634 1135 710 1133 764 1133 c 2
618 454 m 0
 618 366 623 193 728 193 c 0
 797 193 825 242 825 417 c 0
 825 605 822 707 725 707 c 0
 621 707 618 547 618 454 c 0
EndSplineSet
Validated: 1
EndChar

StartChar: DZcaron
Encoding: 290 452 298
Width: 3182
Flags: HMW
HStem: -14 21G 1296 168
VStem: 262 582
LayerCount: 2
Fore
SplineSet
896 222 m 0
 1033 222 1063 484 1063 740 c 0
 1063 919 1034 1252 866 1252 c 0
 850 1252 834 1252 819 1249 c 1
 815 1230 814 1034 814 790 c 2
 814 623 l 2
 814 336 829 224 829 224 c 1
 829 224 850 222 896 222 c 0
125 -13 m 1
 84 13 67 163 67 245 c 0
 67 299 111 305 156 310 c 0
 239 319 249 430 249 533 c 2
 249 972 l 2
 249 1085 242 1175 159 1184 c 0
 114 1189 70 1196 70 1250 c 0
 70 1329 87 1476 128 1503 c 1
 186 1501 480 1489 596 1489 c 0
 718 1490 835 1503 957 1503 c 0
 1316 1503 1696 1345 1696 729 c 0
 1696 258 1513 -13 994 -13 c 0
 882 -13 783 0 669 0 c 0
 588 0 225 -10 125 -13 c 1
1822 -17 m 1x40
 1810 -13 1761 114 1761 201 c 0
 1761 208 1763 215 1766 221 c 0
 1795 268 1826 319 1858 369 c 2
 2418 1242 l 1
 2426 1257 2434 1269 2434 1281 c 0
 2434 1293 2397 1297 2338 1297 c 0
 2145 1297 2005 1021 1987 1021 c 0
 1892 1021 1755 1075 1755 1119 c 0
 1755 1122 1755 1125 1756 1128 c 0
 1773 1224 1823 1390 1875 1499 c 1
 2075 1488 2304 1485 2555 1485 c 0
 2750 1485 2947 1493 3074 1499 c 1
 3094 1462 3099 1440 3099 1310 c 0
 3099 1262 3018 1139 2931 1010 c 1
 2931 1010 2527 368 2454 252 c 0
 2453 251 2453 251 2453 250 c 0
 2453 241 2532 237 2600 237 c 0
 2803 237 2905 549 2921 549 c 0
 3040 549 3148 475 3148 459 c 0
 3141 343 3048 71 3004 -17 c 1
 2815 -8 2600 -4 2391 -4 c 0
 2188 -4 1987 -8 1822 -17 c 1x40
2606 1514 m 1
 2456 1514 l 1
 2359 1603 2206 1765 2175 1803 c 0
 2125 1864 2087 1899 2087 1929 c 0
 2087 1971 2123 1990 2224 1990 c 0
 2308 1990 2333 1965 2380 1917 c 1
 2531 1726 l 1
 2682 1917 l 1
 2729 1965 2754 1990 2838 1990 c 0
 2939 1990 2975 1971 2975 1929 c 0
 2975 1899 2937 1864 2887 1803 c 0
 2856 1765 2703 1603 2606 1514 c 1
EndSplineSet
Validated: 1
EndChar

StartChar: fl
Encoding: 322 64258 321
Width: 1758
VWidth: 0
Flags: HW
LayerCount: 2
Fore
SplineSet
1596 1415 m 0
 1596 1325 1585 1117 1585 1009 c 2
 1585 587 l 2
 1585 467 1590 303 1658 296 c 1
 1704 288 1745 281 1745 227 c 0
 1745 145 1722 1 1667 -27 c 1
 1624 -19 1498 0 1348 0 c 0
 1193 0 1063 -19 1019 -27 c 1
 964 1 941 145 941 227 c 0
 941 281 982 288 1028 296 c 1
 1096 303 1100 443 1100 547 c 2
 1100 1295 l 1
 1100 1324 1067 1348 802 1348 c 1
 662 1348 599 1289 599 1212 c 0
 599 1135 623 1044 683 959 c 1
 690 959 848 961 894 961 c 0
 953 961 977 953 977 890 c 0
 977 790 923 781 889 781 c 2
 684 781 l 1
 684 587 l 2
 684 455 695 304 767 297 c 1
 813 289 854 282 854 228 c 0
 854 146 831 1 776 -27 c 1
 732 -19 602 0 447 0 c 0
 292 0 162 -19 118 -27 c 1
 63 1 40 146 40 228 c 0
 40 282 81 289 127 297 c 1
 193 304 199 438 199 538 c 0
 199 769 198 769 196 769 c 2
 190 769 l 2
 156 769 39 770 39 795 c 0
 39 846 36 886 36 926 c 0
 36 938 198 961 198 961 c 1
 198 1322 358 1516 888 1516 c 0
 1329 1516 1523 1509 1523 1503 c 1
 1575 1503 1596 1495 1596 1415 c 0
EndSplineSet
Validated: 1
Ligature2: "'liga' Standard Ligatures in Latin lookup 0-1" f l
EndChar
